RecursiveMonoVar-CasualExtraBoldItalic.ufo
<glyph name="exclam" format="1">
  <advance width="600"/>
  <unicode hex="0021"/>
  <outline>
    <contour>
      <point x="365" y="290" type="line"/>
      <point x="397" y="355"/>
      <point x="438" y="463"/>
      <point x="455" y="529" type="curve"/>
      <point x="483" y="641" type="line" smooth="yes"/>
      <point x="495" y="689"/>
      <point x="444" y="710"/>
      <point x="374" y="710" type="curve" smooth="yes"/>
      <point x="349" y="710"/>
      <point x="330" y="709"/>
      <point x="305" y="703" type="curve"/>
      <point x="305" y="667"/>
      <point x="300" y="630"/>
      <point x="290" y="590" type="curve" smooth="yes"/>
      <point x="276" y="535" type="line"/>
      <point x="257" y="456"/>
      <point x="241" y="343"/>
      <point x="258" y="321" type="curve" smooth="yes"/>
      <point x="272" y="302"/>
      <point x="302" y="290"/>
      <point x="350" y="290" type="curve"/>
    </contour>
    <contour>
      <point x="335" y="-5" type="curve"/>
      <point x="370" y="134" type="line" smooth="yes"/>
      <point x="386" y="197"/>
      <point x="319" y="206"/>
      <point x="258" y="206" type="curve" smooth="yes"/>
      <point x="235" y="206"/>
      <point x="204" y="204"/>
      <point x="178" y="200" type="curve"/>
      <point x="144" y="61" type="line" smooth="yes"/>
      <point x="128" y="-2"/>
      <point x="195" y="-11"/>
      <point x="256" y="-11" type="curve" smooth="yes"/>
      <point x="279" y="-11"/>
      <point x="309" y="-9"/>
    </contour>
  </outline>
</glyph>
<glyph name="quotedbl" format="1">
  <advance width="600"/>
  <unicode hex="0022"/>
  <outline>
    <contour>
      <point x="288" y="446" type="curve"/>
      <point x="350" y="637" type="line" smooth="yes"/>
      <point x="376" y="717"/>
      <point x="344" y="754"/>
      <point x="248" y="754" type="curve" smooth="yes"/>
      <point x="232" y="754"/>
      <point x="217" y="753"/>
      <point x="200" y="750" type="curve"/>
      <point x="203" y="725"/>
      <point x="201" y="696"/>
      <point x="192" y="644" type="curve" smooth="yes"/>
      <point x="166" y="502" type="line" smooth="yes"/>
      <point x="158" y="457"/>
      <point x="176" y="440"/>
      <point x="229" y="440" type="curve" smooth="yes"/>
      <point x="252" y="440"/>
      <point x="272" y="442"/>
    </contour>
    <contour>
      <point x="528" y="446" type="curve"/>
      <point x="593" y="637" type="line" smooth="yes"/>
      <point x="620" y="717"/>
      <point x="587" y="754"/>
      <point x="503" y="754" type="curve" smooth="yes"/>
      <point x="484" y="754"/>
      <point x="471" y="753"/>
      <point x="454" y="751" type="curve"/>
      <point x="409" y="502" type="line"/>
      <point x="401" y="457"/>
      <point x="419" y="440"/>
      <point x="472" y="440" type="curve" smooth="yes"/>
      <point x="495" y="440"/>
      <point x="512" y="442"/>
    </contour>
  </outline>
</glyph>
<glyph name="numbersign" format="1">
  <advance width="600"/>
  <unicode hex="0023"/>
  <outline>
    <contour>
      <point x="279" y="715" type="curve"/>
      <point x="229" y="513"/>
      <point x="133" y="240"/>
      <point x="-37" y="-8" type="curve"/>
      <point x="-27" y="-16"/>
      <point x="-16" y="-20"/>
      <point x="13" y="-20" type="curve"/>
      <point x="51" y="-20"/>
      <point x="79" y="-12"/>
      <point x="94" y="10" type="curve" smooth="yes"/>
      <point x="258" y="260"/>
      <point x="341" y="487"/>
      <point x="391" y="686" type="curve" smooth="yes"/>
      <point x="397" y="709"/>
      <point x="373" y="720"/>
      <point x="329" y="720" type="curve" smooth="yes"/>
      <point x="313" y="720"/>
      <point x="295" y="719"/>
    </contour>
    <contour>
      <point x="509" y="715" type="curve"/>
      <point x="459" y="513"/>
      <point x="363" y="240"/>
      <point x="193" y="-8" type="curve"/>
      <point x="203" y="-16"/>
      <point x="214" y="-20"/>
      <point x="243" y="-20" type="curve"/>
      <point x="281" y="-20"/>
      <point x="309" y="-12"/>
      <point x="324" y="10" type="curve" smooth="yes"/>
      <point x="488" y="260"/>
      <point x="571" y="487"/>
      <point x="621" y="686" type="curve" smooth="yes"/>
      <point x="627" y="709"/>
      <point x="603" y="720"/>
      <point x="559" y="720" type="curve" smooth="yes"/>
      <point x="543" y="720"/>
      <point x="525" y="719"/>
    </contour>
    <contour>
      <point x="628" y="420" type="line"/>
      <point x="629" y="426"/>
      <point x="631" y="432"/>
      <point x="632" y="439" type="curve" smooth="yes"/>
      <point x="644" y="487"/>
      <point x="641" y="514"/>
      <point x="629" y="530" type="curve" smooth="yes"/>
      <point x="618" y="545"/>
      <point x="599" y="550"/>
      <point x="553" y="550" type="curve"/>
      <point x="117" y="550" type="line"/>
      <point x="108" y="529"/>
      <point x="99" y="506"/>
      <point x="94" y="487" type="curve" smooth="yes"/>
      <point x="82" y="436"/>
      <point x="95" y="420"/>
      <point x="151" y="420" type="curve"/>
    </contour>
    <contour>
      <point x="13" y="280" type="line"/>
      <point x="11" y="274"/>
      <point x="9" y="268"/>
      <point x="8" y="261" type="curve" smooth="yes"/>
      <point x="-4" y="213"/>
      <point x="-1" y="186"/>
      <point x="11" y="170" type="curve" smooth="yes"/>
      <point x="22" y="155"/>
      <point x="41" y="150"/>
      <point x="87" y="150" type="curve"/>
      <point x="523" y="150" type="line"/>
      <point x="532" y="171"/>
      <point x="541" y="194"/>
      <point x="546" y="213" type="curve" smooth="yes"/>
      <point x="558" y="264"/>
      <point x="546" y="280"/>
      <point x="490" y="280" type="curve"/>
    </contour>
  </outline>
</glyph>
<glyph name="dollar" format="1">
  <advance width="600"/>
  <unicode hex="0024"/>
  <outline>
    <contour>
      <point x="480" y="720" type="curve" smooth="yes"/>
      <point x="313" y="720"/>
      <point x="159" y="625"/>
      <point x="127" y="497" type="curve" smooth="yes"/>
      <point x="124" y="484" type="line" smooth="yes"/>
      <point x="117" y="457"/>
      <point x="177" y="423"/>
      <point x="257" y="423" type="curve"/>
      <point x="255" y="446"/>
      <point x="261" y="473"/>
      <point x="266" y="495" type="curve" smooth="yes"/>
      <point x="280" y="549"/>
      <point x="378" y="570"/>
      <point x="452" y="570" type="curve" smooth="yes"/>
      <point x="513" y="570"/>
      <point x="548" y="558"/>
      <point x="576" y="532" type="curve"/>
      <point x="580" y="532" type="line"/>
      <point x="601" y="560"/>
      <point x="615" y="589"/>
      <point x="621" y="612" type="curve" smooth="yes"/>
      <point x="627" y="639"/>
      <point x="631" y="662"/>
      <point x="614" y="685" type="curve" smooth="yes"/>
      <point x="598" y="706"/>
      <point x="550" y="720"/>
    </contour>
    <contour>
      <point x="421" y="380" type="curve" smooth="yes"/>
      <point x="335" y="414" type="line" smooth="yes"/>
      <point x="273" y="439"/>
      <point x="258" y="462"/>
      <point x="266" y="495" type="curve" smooth="yes"/>
      <point x="274" y="526"/>
      <point x="282" y="546"/>
      <point x="295" y="567" type="curve"/>
      <point x="213" y="566"/>
      <point x="139" y="546"/>
      <point x="124" y="484" type="curve" smooth="yes"/>
      <point x="108" y="421"/>
      <point x="116" y="350"/>
      <point x="258" y="292" type="curve" smooth="yes"/>
      <point x="341" y="258" type="line" smooth="yes"/>
      <point x="397" y="235"/>
      <point x="415" y="210"/>
      <point x="400" y="150" type="curve" smooth="yes"/>
      <point x="395" y="131"/>
      <point x="394" y="128"/>
      <point x="393" y="124" type="curve"/>
      <point x="452" y="124"/>
      <point x="533" y="163"/>
      <point x="542" y="198" type="curve"/>
      <point x="555" y="250"/>
      <point x="541" y="332"/>
    </contour>
    <contour>
      <point x="227" y="-20" type="curve" smooth="yes"/>
      <point x="400" y="-20"/>
      <point x="510" y="71"/>
      <point x="538" y="182" type="curve" smooth="yes"/>
      <point x="542" y="198" type="line" smooth="yes"/>
      <point x="545" y="212"/>
      <point x="501" y="243"/>
      <point x="465" y="245" type="curve"/>
      <point x="464" y="241"/>
      <point x="463" y="239"/>
      <point x="462" y="235" type="curve" smooth="yes"/>
      <point x="449" y="184"/>
      <point x="356" y="130"/>
      <point x="265" y="130" type="curve" smooth="yes"/>
      <point x="160" y="130"/>
      <point x="93" y="161"/>
      <point x="48" y="218" type="curve"/>
      <point x="44" y="218" type="line"/>
      <point x="36" y="203"/>
      <point x="28" y="182"/>
      <point x="21" y="156" type="curve" smooth="yes"/>
      <point x="7" y="99"/>
      <point x="13" y="57"/>
      <point x="28" y="36" type="curve" smooth="yes"/>
      <point x="52" y="4"/>
      <point x="132" y="-20"/>
    </contour>
    <contour>
      <point x="408" y="437" type="line"/>
      <point x="574" y="768" type="line" smooth="yes"/>
      <point x="610" y="841"/>
      <point x="590" y="885"/>
      <point x="515" y="885" type="curve" smooth="yes"/>
      <point x="500" y="885"/>
      <point x="473" y="881"/>
      <point x="454" y="875" type="curve"/>
      <point x="458" y="846"/>
      <point x="459" y="818"/>
      <point x="446" y="775" type="curve"/>
      <point x="363" y="486" type="line" smooth="yes"/>
      <point x="354" y="455"/>
      <point x="380" y="437"/>
      <point x="404" y="437" type="curve" smooth="yes"/>
    </contour>
    <contour>
      <point x="259" y="234" type="line"/>
      <point x="100" y="-78" type="line" smooth="yes"/>
      <point x="63" y="-151"/>
      <point x="84" y="-195"/>
      <point x="159" y="-195" type="curve" smooth="yes"/>
      <point x="174" y="-195"/>
      <point x="201" y="-191"/>
      <point x="219" y="-185" type="curve"/>
      <point x="215" y="-156"/>
      <point x="215" y="-128"/>
      <point x="227" y="-85" type="curve"/>
      <point x="304" y="185" type="line" smooth="yes"/>
      <point x="312" y="216"/>
      <point x="287" y="234"/>
      <point x="263" y="234" type="curve" smooth="yes"/>
    </contour>
  </outline>
</glyph>
<glyph name="parenleft" format="1">
  <advance width="600"/>
  <unicode hex="0028"/>
  <outline>
    <contour>
      <point x="429" y="722" type="curve" smooth="yes"/>
      <point x="312" y="628"/>
      <point x="221" y="472"/>
      <point x="178" y="303" type="curve" smooth="yes"/>
      <point x="176" y="294" type="line" smooth="yes"/>
      <point x="134" y="125"/>
      <point x="147" y="-32"/>
      <point x="217" y="-125" type="curve" smooth="yes"/>
      <point x="242" y="-158"/>
      <point x="268" y="-173"/>
      <point x="304" y="-173" type="curve" smooth="yes"/>
      <point x="349" y="-173"/>
      <point x="381" y="-157"/>
      <point x="408" y="-136" type="curve"/>
      <point x="409" y="-132" type="line"/>
      <point x="331" y="-31"/>
      <point x="305" y="129"/>
      <point x="346" y="294" type="curve" smooth="yes"/>
      <point x="348" y="303" type="line" smooth="yes"/>
      <point x="389" y="467"/>
      <point x="495" y="628"/>
      <point x="625" y="729" type="curve"/>
      <point x="626" y="733" type="line"/>
      <point x="609" y="754"/>
      <point x="585" y="770"/>
      <point x="540" y="770" type="curve" smooth="yes"/>
      <point x="504" y="770"/>
      <point x="470" y="755"/>
    </contour>
  </outline>
</glyph>
<glyph name="parenright" format="1">
  <advance width="600"/>
  <unicode hex="0029"/>
  <outline>
    <contour>
      <point x="185" y="-125" type="curve" smooth="yes"/>
      <point x="303" y="-31"/>
      <point x="394" y="125"/>
      <point x="436" y="294" type="curve" smooth="yes"/>
      <point x="438" y="303" type="line" smooth="yes"/>
      <point x="481" y="472"/>
      <point x="467" y="629"/>
      <point x="397" y="722" type="curve" smooth="yes"/>
      <point x="372" y="755"/>
      <point x="346" y="770"/>
      <point x="310" y="770" type="curve" smooth="yes"/>
      <point x="265" y="770"/>
      <point x="233" y="754"/>
      <point x="206" y="733" type="curve"/>
      <point x="205" y="729" type="line"/>
      <point x="284" y="628"/>
      <point x="310" y="468"/>
      <point x="268" y="303" type="curve" smooth="yes"/>
      <point x="266" y="294" type="line" smooth="yes"/>
      <point x="225" y="130"/>
      <point x="120" y="-31"/>
      <point x="-11" y="-132" type="curve"/>
      <point x="-12" y="-136" type="line"/>
      <point x="5" y="-157"/>
      <point x="29" y="-173"/>
      <point x="74" y="-173" type="curve" smooth="yes"/>
      <point x="110" y="-173"/>
      <point x="144" y="-158"/>
    </contour>
  </outline>
</glyph>
<glyph name="asterisk" format="1">
  <advance width="600"/>
  <unicode hex="002A"/>
  <outline>
    <contour>
      <point x="294" y="568" type="curve"/>
      <point x="297" y="538"/>
      <point x="299" y="511"/>
      <point x="296" y="468" type="curve" smooth="yes"/>
      <point x="283" y="309" type="line"/>
      <point x="207" y="158" type="line" smooth="yes"/>
      <point x="171" y="85"/>
      <point x="191" y="41"/>
      <point x="266" y="41" type="curve"/>
      <point x="285" y="41"/>
      <point x="306" y="44"/>
      <point x="326" y="51" type="curve"/>
      <point x="324" y="81"/>
      <point x="320" y="108"/>
      <point x="324" y="151" type="curve" smooth="yes"/>
      <point x="338" y="309" type="line"/>
      <point x="413" y="461" type="line" smooth="yes"/>
      <point x="449" y="535"/>
      <point x="429" y="578"/>
      <point x="354" y="578" type="curve" smooth="yes"/>
      <point x="336" y="578"/>
      <point x="314" y="575"/>
    </contour>
    <contour>
      <point x="552" y="497" type="curve"/>
      <point x="297" y="335" type="line"/>
      <point x="89" y="264" type="line" smooth="yes"/>
      <point x="50" y="251"/>
      <point x="36" y="210"/>
      <point x="49" y="167" type="curve"/>
      <point x="54" y="151"/>
      <point x="63" y="138"/>
      <point x="71" y="127" type="curve"/>
      <point x="324" y="289" type="line"/>
      <point x="533" y="360" type="line" smooth="yes"/>
      <point x="573" y="374"/>
      <point x="588" y="412"/>
      <point x="572" y="458" type="curve" smooth="yes"/>
      <point x="568" y="470"/>
      <point x="563" y="480"/>
    </contour>
    <contour>
      <point x="549" y="236" type="curve"/>
      <point x="335" y="335" type="line"/>
      <point x="204" y="469" type="line" smooth="yes"/>
      <point x="179" y="494"/>
      <point x="141" y="478"/>
      <point x="103" y="434" type="curve"/>
      <point x="90" y="419"/>
      <point x="81" y="402"/>
      <point x="72" y="387" type="curve"/>
      <point x="286" y="289" type="line"/>
      <point x="418" y="154" type="line" smooth="yes"/>
      <point x="443" y="129"/>
      <point x="481" y="144"/>
      <point x="519" y="190" type="curve"/>
      <point x="529" y="202"/>
      <point x="538" y="215"/>
    </contour>
  </outline>
</glyph>
<glyph name="plus" format="1">
  <advance width="600"/>
  <unicode hex="002B"/>
  <outline>
    <contour>
      <point x="75" y="375" type="line"/>
      <point x="74" y="369"/>
      <point x="72" y="363"/>
      <point x="71" y="356" type="curve" smooth="yes"/>
      <point x="56" y="297"/>
      <point x="55" y="263"/>
      <point x="69" y="245" type="curve" smooth="yes"/>
      <point x="80" y="230"/>
      <point x="99" y="225"/>
      <point x="145" y="225" type="curve"/>
      <point x="543" y="225" type="line"/>
      <point x="552" y="246"/>
      <point x="561" y="269"/>
      <point x="566" y="288" type="curve" smooth="yes"/>
      <point x="582" y="354"/>
      <point x="570" y="375"/>
      <point x="514" y="375" type="curve"/>
    </contour>
    <contour>
      <point x="322" y="56" type="curve"/>
      <point x="417" y="433" type="line" smooth="yes"/>
      <point x="430" y="485"/>
      <point x="427" y="501"/>
      <point x="412" y="521" type="curve" smooth="yes"/>
      <point x="395" y="543"/>
      <point x="357" y="550"/>
      <point x="325" y="550" type="curve" smooth="yes"/>
      <point x="311" y="550"/>
      <point x="297" y="549"/>
      <point x="282" y="546" type="curve"/>
      <point x="282" y="510"/>
      <point x="278" y="479"/>
      <point x="269" y="440" type="curve" smooth="yes"/>
      <point x="186" y="112" type="line" smooth="yes"/>
      <point x="173" y="58"/>
      <point x="206" y="50"/>
      <point x="263" y="50" type="curve" smooth="yes"/>
      <point x="286" y="50"/>
      <point x="306" y="52"/>
    </contour>
  </outline>
</glyph>
<glyph name="period" format="1">
  <advance width="600"/>
  <unicode hex="002E"/>
  <outline>
    <contour>
      <point x="335" y="-5" type="curve"/>
      <point x="370" y="134" type="line" smooth="yes"/>
      <point x="386" y="197"/>
      <point x="319" y="206"/>
      <point x="258" y="206" type="curve" smooth="yes"/>
      <point x="235" y="206"/>
      <point x="204" y="204"/>
      <point x="178" y="200" type="curve"/>
      <point x="144" y="61" type="line" smooth="yes"/>
      <point x="128" y="-2"/>
      <point x="195" y="-11"/>
      <point x="256" y="-11" type="curve" smooth="yes"/>
      <point x="279" y="-11"/>
      <point x="309" y="-9"/>
    </contour>
  </outline>
</glyph>
<glyph name="one" format="1">
  <advance width="600"/>
  <unicode hex="0031"/>
  <outline>
    <contour>
      <point x="370" y="72" type="curve"/>
      <point x="419" y="268"/>
      <point x="470" y="469"/>
      <point x="519" y="665" type="curve" smooth="yes"/>
      <point x="527" y="699"/>
      <point x="473" y="710"/>
      <point x="405" y="710" type="curve" smooth="yes"/>
      <point x="380" y="710" type="line"/>
      <point x="340" y="552"/>
      <point x="299" y="385"/>
      <point x="259" y="227" type="curve" smooth="yes"/>
      <point x="229" y="106"/>
      <point x="291" y="72"/>
    </contour>
    <contour>
      <point x="59" y="145" type="line"/>
      <point x="57" y="139"/>
      <point x="56" y="133"/>
      <point x="54" y="126" type="curve" smooth="yes"/>
      <point x="39" y="67"/>
      <point x="40" y="38"/>
      <point x="53" y="20" type="curve" smooth="yes"/>
      <point x="65" y="5"/>
      <point x="83" y="0"/>
      <point x="129" y="0" type="curve" smooth="yes"/>
      <point x="498" y="0" type="line"/>
      <point x="506" y="14"/>
      <point x="511" y="27"/>
      <point x="515" y="43" type="curve" smooth="yes"/>
      <point x="531" y="106"/>
      <point x="486" y="145"/>
      <point x="364" y="145" type="curve" smooth="yes"/>
    </contour>
    <contour>
      <point x="173" y="412" type="curve" smooth="yes"/>
      <point x="204" y="412"/>
      <point x="233" y="425"/>
      <point x="270" y="455" type="curve" smooth="yes"/>
      <point x="338" y="509"/>
      <point x="384" y="581"/>
      <point x="400" y="646" type="curve" smooth="yes"/>
      <point x="411" y="692"/>
      <point x="394" y="710"/>
      <point x="382" y="710" type="curve"/>
      <point x="357" y="710" type="line"/>
      <point x="325" y="675"/>
      <point x="296" y="646"/>
      <point x="264" y="620" type="curve"/>
      <point x="229" y="592"/>
      <point x="191" y="568"/>
      <point x="144" y="546" type="curve"/>
      <point x="137" y="521" type="line" smooth="yes"/>
      <point x="118" y="453"/>
      <point x="143" y="412"/>
    </contour>
  </outline>
</glyph>
<glyph name="three" format="1">
  <advance width="600"/>
  <unicode hex="0033"/>
  <outline>
    <contour>
      <point x="355" y="575" type="curve" smooth="yes"/>
      <point x="461" y="575"/>
      <point x="514" y="523"/>
      <point x="497" y="455" type="curve" smooth="yes"/>
      <point x="494" y="442"/>
      <point x="490" y="431"/>
      <point x="485" y="421" type="curve"/>
      <point x="524" y="423"/>
      <point x="592" y="488"/>
      <point x="599" y="517" type="curve" smooth="yes"/>
      <point x="603" y="533" type="line" smooth="yes"/>
      <point x="628" y="632"/>
      <point x="547" y="720"/>
      <point x="397" y="720" type="curve" smooth="yes"/>
      <point x="311" y="720"/>
      <point x="241" y="704"/>
      <point x="202" y="673" type="curve" smooth="yes"/>
      <point x="170" y="648"/>
      <point x="153" y="624"/>
      <point x="141" y="576" type="curve" smooth="yes"/>
      <point x="135" y="552"/>
      <point x="136" y="528"/>
      <point x="139" y="502" type="curve"/>
      <point x="143" y="502" type="line"/>
      <point x="216" y="561"/>
      <point x="273" y="575"/>
    </contour>
    <contour>
      <point x="228" y="320" type="curve" smooth="yes"/>
      <point x="433" y="320"/>
      <point x="576" y="427"/>
      <point x="599" y="517" type="curve" smooth="yes"/>
      <point x="608" y="554"/>
      <point x="522" y="604"/>
      <point x="481" y="604" type="curve"/>
      <point x="480" y="601"/>
      <point x="479" y="597"/>
      <point x="479" y="594" type="curve" smooth="yes"/>
      <point x="445" y="449"/>
      <point x="333" y="399"/>
      <point x="204" y="399" type="curve"/>
      <point x="196" y="383"/>
      <point x="192" y="374"/>
      <point x="187" y="351" type="curve" smooth="yes"/>
      <point x="181" y="326"/>
      <point x="217" y="320"/>
    </contour>
    <contour>
      <point x="217" y="276" type="curve" smooth="yes"/>
      <point x="324" y="267"/>
      <point x="407" y="216"/>
      <point x="388" y="141" type="curve" smooth="yes"/>
      <point x="388" y="138"/>
      <point x="387" y="134"/>
      <point x="386" y="131" type="curve"/>
      <point x="443" y="131"/>
      <point x="518" y="144"/>
      <point x="524" y="165" type="curve" smooth="yes"/>
      <point x="560" y="313"/>
      <point x="393" y="364"/>
      <point x="196" y="364" type="curve"/>
      <point x="192" y="357"/>
      <point x="188" y="356"/>
      <point x="187" y="351" type="curve" smooth="yes"/>
      <point x="174" y="298"/>
      <point x="182" y="279"/>
    </contour>
    <contour>
      <point x="242" y="125" type="curve" smooth="yes"/>
      <point x="152" y="125"/>
      <point x="96" y="145"/>
      <point x="48" y="207" type="curve"/>
      <point x="44" y="207" type="line"/>
      <point x="33" y="186"/>
      <point x="26" y="168"/>
      <point x="19" y="141" type="curve" smooth="yes"/>
      <point x="5" y="86"/>
      <point x="9" y="65"/>
      <point x="28" y="40" type="curve" smooth="yes"/>
      <point x="52" y="8"/>
      <point x="132" y="-20"/>
      <point x="227" y="-20" type="curve" smooth="yes"/>
      <point x="383" y="-20"/>
      <point x="493" y="44"/>
      <point x="520" y="149" type="curve" smooth="yes"/>
      <point x="524" y="165" type="line" smooth="yes"/>
      <point x="530" y="194"/>
      <point x="474" y="267"/>
      <point x="432" y="269" type="curve"/>
      <point x="432" y="259"/>
      <point x="430" y="248"/>
      <point x="427" y="235" type="curve" smooth="yes"/>
      <point x="409" y="163"/>
      <point x="358" y="125"/>
    </contour>
  </outline>
</glyph>
<glyph name="four" format="1">
  <advance width="600"/>
  <unicode hex="0034"/>
  <outline>
    <contour>
      <point x="153" y="245" type="curve"/>
      <point x="280" y="409"/>
      <point x="465" y="572"/>
      <point x="648" y="663" type="curve"/>
      <point x="649" y="667" type="line"/>
      <point x="631" y="693"/>
      <point x="583" y="710"/>
      <point x="510" y="710" type="curve" smooth="yes"/>
      <point x="463" y="710"/>
      <point x="426" y="700"/>
      <point x="357" y="650" type="curve" smooth="yes"/>
      <point x="199" y="536"/>
      <point x="64" y="366"/>
      <point x="42" y="280" type="curve" smooth="yes"/>
      <point x="37" y="258"/>
      <point x="100" y="245"/>
    </contour>
    <contour>
      <point x="536" y="155" type="line"/>
      <point x="544" y="170"/>
      <point x="550" y="187"/>
      <point x="554" y="202" type="curve" smooth="yes"/>
      <point x="564" y="245"/>
      <point x="568" y="300"/>
      <point x="533" y="300" type="curve" smooth="yes"/>
      <point x="353" y="300" type="line"/>
      <point x="270" y="300"/>
      <point x="139" y="294"/>
      <point x="42" y="280" type="curve"/>
      <point x="38" y="265" type="line" smooth="yes"/>
      <point x="27" y="219"/>
      <point x="32" y="189"/>
      <point x="46" y="169" type="curve" smooth="yes"/>
      <point x="55" y="158"/>
      <point x="63" y="155"/>
      <point x="88" y="155" type="curve" smooth="yes"/>
    </contour>
    <contour>
      <point x="442" y="-1" type="curve"/>
      <point x="443" y="33"/>
      <point x="447" y="61"/>
      <point x="456" y="96" type="curve" smooth="yes"/>
      <point x="523" y="365" type="line" smooth="yes"/>
      <point x="530" y="394"/>
      <point x="487" y="420"/>
      <point x="441" y="420" type="curve" smooth="yes"/>
      <point x="437" y="420" type="line"/>
      <point x="392" y="360"/>
      <point x="338" y="262"/>
      <point x="323" y="203" type="curve"/>
      <point x="286" y="55" type="line" smooth="yes"/>
      <point x="277" y="18"/>
      <point x="308" y="-6"/>
      <point x="375" y="-6" type="curve" smooth="yes"/>
      <point x="408" y="-6"/>
      <point x="427" y="-4"/>
    </contour>
  </outline>
</glyph>
<glyph name="colon" format="1">
  <advance width="600"/>
  <unicode hex="003A"/>
  <outline>
    <contour>
      <point x="422" y="341" type="curve"/>
      <point x="457" y="480" type="line" smooth="yes"/>
      <point x="472" y="543"/>
      <point x="406" y="552"/>
      <point x="345" y="552" type="curve" smooth="yes"/>
      <point x="322" y="552"/>
      <point x="291" y="550"/>
      <point x="265" y="546" type="curve"/>
      <point x="230" y="407" type="line" smooth="yes"/>
      <point x="215" y="344"/>
      <point x="281" y="335"/>
      <point x="342" y="335" type="curve" smooth="yes"/>
      <point x="365" y="335"/>
      <point x="396" y="337"/>
    </contour>
    <contour>
      <point x="335" y="-5" type="curve"/>
      <point x="370" y="134" type="line" smooth="yes"/>
      <point x="386" y="197"/>
      <point x="319" y="206"/>
      <point x="258" y="206" type="curve" smooth="yes"/>
      <point x="235" y="206"/>
      <point x="204" y="204"/>
      <point x="178" y="200" type="curve"/>
      <point x="144" y="61" type="line" smooth="yes"/>
      <point x="128" y="-2"/>
      <point x="195" y="-11"/>
      <point x="256" y="-11" type="curve" smooth="yes"/>
      <point x="279" y="-11"/>
      <point x="309" y="-9"/>
    </contour>
  </outline>
</glyph>
<glyph name="semicolon" format="1">
  <advance width="600"/>
  <unicode hex="003B"/>
  <outline>
    <contour>
      <point x="421" y="339" type="curve"/>
      <point x="456" y="478" type="line" smooth="yes"/>
      <point x="472" y="541"/>
      <point x="405" y="550"/>
      <point x="344" y="550" type="curve" smooth="yes"/>
      <point x="321" y="550"/>
      <point x="291" y="548"/>
      <point x="265" y="544" type="curve"/>
      <point x="230" y="405" type="line" smooth="yes"/>
      <point x="214" y="342"/>
      <point x="281" y="333"/>
      <point x="342" y="333" type="curve" smooth="yes"/>
      <point x="365" y="333"/>
      <point x="395" y="335"/>
    </contour>
    <contour>
      <point x="158" y="-200" type="curve" smooth="yes"/>
      <point x="180" y="-200"/>
      <point x="193" y="-196"/>
      <point x="207" y="-185" type="curve"/>
      <point x="280" y="-127"/>
      <point x="363" y="0"/>
      <point x="384" y="82" type="curve"/>
      <point x="398" y="138"/>
      <point x="368" y="160"/>
      <point x="279" y="160" type="curve" smooth="yes"/>
      <point x="254" y="160"/>
      <point x="237" y="158"/>
      <point x="207" y="153" type="curve"/>
      <point x="174" y="22"/>
      <point x="123" y="-85"/>
      <point x="56" y="-165" type="curve"/>
      <point x="81" y="-190"/>
      <point x="110" y="-200"/>
    </contour>
  </outline>
</glyph>
<glyph name="greater" format="1">
  <advance width="600"/>
  <unicode hex="003E"/>
  <outline>
    <contour>
      <point x="33" y="136" type="curve"/>
      <point x="28" y="113" type="line"/>
      <point x="17" y="70"/>
      <point x="27" y="6"/>
      <point x="66" y="6" type="curve" smooth="yes"/>
      <point x="79" y="6"/>
      <point x="109" y="13"/>
      <point x="153" y="30" type="curve" smooth="yes"/>
      <point x="294" y="84"/>
      <point x="447" y="183"/>
      <point x="532" y="269" type="curve"/>
      <point x="537" y="291" type="line"/>
      <point x="547" y="330"/>
      <point x="512" y="338"/>
      <point x="419" y="338" type="curve"/>
      <point x="324" y="248"/>
      <point x="216" y="173"/>
    </contour>
    <contour>
      <point x="160" y="598" type="curve"/>
      <point x="151" y="583"/>
      <point x="145" y="567"/>
      <point x="139" y="543" type="curve" smooth="yes"/>
      <point x="126" y="488"/>
      <point x="128" y="448"/>
      <point x="152" y="439" type="curve" smooth="yes"/>
      <point x="288" y="391"/>
      <point x="362" y="331"/>
      <point x="421" y="236" type="curve" smooth="yes"/>
      <point x="426" y="228"/>
      <point x="426" y="220"/>
      <point x="425" y="216" type="curve" smooth="yes"/>
      <point x="424" y="210"/>
      <point x="423" y="206"/>
      <point x="421" y="200" type="curve"/>
      <point x="498" y="238"/>
      <point x="532" y="270"/>
      <point x="536" y="287" type="curve" smooth="yes"/>
      <point x="539" y="296" type="line" smooth="yes"/>
      <point x="546" y="324"/>
      <point x="546" y="340"/>
      <point x="513" y="381" type="curve" smooth="yes"/>
      <point x="442" y="469"/>
      <point x="340" y="551"/>
    </contour>
  </outline>
</glyph>
<glyph name="at" format="1">
  <advance width="600"/>
  <unicode hex="0040"/>
  <outline>
    <contour>
      <point x="524" y="523" type="curve" smooth="yes"/>
      <point x="514" y="537"/>
      <point x="497" y="548"/>
      <point x="451" y="548" type="curve" smooth="yes"/>
      <point x="428" y="548"/>
      <point x="395" y="543"/>
      <point x="358" y="513" type="curve" smooth="yes"/>
      <point x="328" y="489"/>
      <point x="311" y="431"/>
      <point x="321" y="400" type="curve"/>
      <point x="371" y="427"/>
      <point x="396" y="434"/>
      <point x="437" y="434" type="curve" smooth="yes"/>
      <point x="460" y="434"/>
      <point x="481" y="431"/>
      <point x="499" y="413" type="curve"/>
      <point x="528" y="456"/>
      <point x="537" y="506"/>
    </contour>
    <contour>
      <point x="481" y="215" type="curve"/>
      <point x="434" y="165"/>
      <point x="383" y="130"/>
      <point x="351" y="130" type="curve" smooth="yes"/>
      <point x="325" y="130"/>
      <point x="321" y="161"/>
      <point x="338" y="230" type="curve" smooth="yes"/>
      <point x="340" y="237" type="line" smooth="yes"/>
      <point x="358" y="312"/>
      <point x="400" y="429"/>
      <point x="470" y="506" type="curve"/>
      <point x="438" y="534"/>
      <point x="395" y="543"/>
      <point x="358" y="513" type="curve" smooth="yes"/>
      <point x="298" y="466"/>
      <point x="243" y="371"/>
      <point x="205" y="220" type="curve" smooth="yes"/>
      <point x="203" y="211" type="line" smooth="yes"/>
      <point x="170" y="78"/>
      <point x="203" y="10"/>
      <point x="293" y="10" type="curve" smooth="yes"/>
      <point x="345" y="10"/>
      <point x="383" y="30"/>
      <point x="440" y="86" type="curve" smooth="yes"/>
      <point x="465" y="111"/>
      <point x="485" y="162"/>
    </contour>
    <contour>
      <point x="491" y="14" type="line"/>
      <point x="494" y="51"/>
      <point x="501" y="85"/>
      <point x="508" y="116" type="curve"/>
      <point x="609" y="516" type="line" smooth="yes"/>
      <point x="649" y="678"/>
      <point x="601" y="760"/>
      <point x="465" y="760" type="curve" smooth="yes"/>
      <point x="428" y="760"/>
      <point x="423" y="721"/>
      <point x="418" y="701" type="curve"/>
      <point x="508" y="703"/>
      <point x="512" y="649"/>
      <point x="492" y="571" type="curve" smooth="yes"/>
      <point x="381" y="125" type="line" smooth="yes"/>
      <point x="366" y="67"/>
      <point x="403" y="14"/>
      <point x="476" y="14" type="curve" smooth="yes"/>
    </contour>
    <contour>
      <point x="36" y="214" type="curve" smooth="yes"/>
      <point x="33" y="201" type="line" smooth="yes"/>
      <point x="-12" y="22"/>
      <point x="-2" y="-72"/>
      <point x="39" y="-126" type="curve" smooth="yes"/>
      <point x="64" y="-159"/>
      <point x="110" y="-153"/>
      <point x="158" y="-114" type="curve"/>
      <point x="86" y="-22"/>
      <point x="93" y="41"/>
      <point x="133" y="201" type="curve" smooth="yes"/>
      <point x="135" y="211" type="line" smooth="yes"/>
      <point x="198" y="461"/>
      <point x="323" y="660"/>
      <point x="450" y="660" type="curve" smooth="yes"/>
      <point x="505" y="660"/>
      <point x="511" y="633"/>
      <point x="514" y="594" type="curve"/>
      <point x="549" y="610"/>
      <point x="569" y="633"/>
      <point x="576" y="660" type="curve" smooth="yes"/>
      <point x="591" y="722"/>
      <point x="546" y="760"/>
      <point x="465" y="760" type="curve" smooth="yes"/>
      <point x="282" y="760"/>
      <point x="115" y="531"/>
    </contour>
    <contour>
      <point x="208" y="-190" type="curve" smooth="yes"/>
      <point x="276" y="-190"/>
      <point x="326" y="-181"/>
      <point x="349" y="-163" type="curve" smooth="yes"/>
      <point x="370" y="-146"/>
      <point x="382" y="-113"/>
      <point x="393" y="-70" type="curve" smooth="yes"/>
      <point x="395" y="-62" type="line"/>
      <point x="391" y="-62" type="line"/>
      <point x="344" y="-82"/>
      <point x="301" y="-90"/>
      <point x="238" y="-90" type="curve" smooth="yes"/>
      <point x="159" y="-90"/>
      <point x="112" y="-60"/>
      <point x="72" y="0" type="curve"/>
      <point x="36" y="-29"/>
      <point x="13" y="-91"/>
      <point x="39" y="-126" type="curve"/>
      <point x="70" y="-168"/>
      <point x="128" y="-190"/>
    </contour>
  </outline>
</glyph>
<glyph name="E" format="1">
  <advance width="600"/>
  <unicode hex="0045"/>
  <outline>
    <contour>
      <point x="132" y="700" type="line"/>
      <point x="130" y="692"/>
      <point x="128" y="683"/>
      <point x="126" y="675" type="curve" smooth="yes"/>
      <point x="114" y="629"/>
      <point x="108" y="580"/>
      <point x="119" y="565" type="curve" smooth="yes"/>
      <point x="125" y="557"/>
      <point x="129" y="555"/>
      <point x="140" y="555" type="curve" smooth="yes"/>
      <point x="614" y="555" type="line"/>
      <point x="622" y="569"/>
      <point x="629" y="588"/>
      <point x="634" y="609" type="curve" smooth="yes"/>
      <point x="639" y="629"/>
      <point x="644" y="670"/>
      <point x="630" y="688" type="curve" smooth="yes"/>
      <point x="623" y="698"/>
      <point x="616" y="700"/>
      <point x="599" y="700" type="curve" smooth="yes"/>
    </contour>
    <contour>
      <point x="191" y="95" type="curve"/>
      <point x="288" y="482" type="line" smooth="yes"/>
      <point x="308" y="563"/>
      <point x="274" y="589"/>
      <point x="154" y="589" type="curve"/>
      <point x="43" y="145" type="line"/>
      <point x="33" y="106"/>
      <point x="107" y="95"/>
    </contour>
    <contour>
      <point x="43" y="145" type="line"/>
      <point x="40" y="132" type="line" smooth="yes"/>
      <point x="25" y="73"/>
      <point x="67" y="0"/>
      <point x="115" y="0" type="curve" smooth="yes"/>
      <point x="477" y="0" type="line"/>
      <point x="485" y="15"/>
      <point x="492" y="35"/>
      <point x="498" y="58" type="curve" smooth="yes"/>
      <point x="513" y="120"/>
      <point x="501" y="145"/>
      <point x="457" y="145" type="curve" smooth="yes"/>
    </contour>
    <contour>
      <point x="177" y="400" type="line"/>
      <point x="155" y="313"/>
      <point x="158" y="275"/>
      <point x="201" y="275" type="curve" smooth="yes"/>
      <point x="499" y="275" type="line"/>
      <point x="501" y="279"/>
      <point x="503" y="285"/>
      <point x="504" y="289" type="curve" smooth="yes"/>
      <point x="512" y="318"/>
      <point x="511" y="358"/>
      <point x="493" y="382" type="curve" smooth="yes"/>
      <point x="481" y="397"/>
      <point x="470" y="400"/>
      <point x="451" y="400" type="curve" smooth="yes"/>
    </contour>
    <contour>
      <point x="410" y="712" type="move" name="top"/>
    </contour>
    <contour>
      <point x="477" y="-1" type="move" name="ogonek"/>
    </contour>
    <contour>
      <point x="260" y="-1" type="move" name="bottom"/>
    </contour>
  </outline>
</glyph>
<glyph name="F" format="1">
  <advance width="600"/>
  <unicode hex="0046"/>
  <outline>
    <contour>
      <point x="194" y="-6" type="curve"/>
      <point x="197" y="31"/>
      <point x="203" y="65"/>
      <point x="211" y="96" type="curve" smooth="yes"/>
      <point x="308" y="482" type="line"/>
      <point x="328" y="563"/>
      <point x="296" y="589"/>
      <point x="174" y="589" type="curve"/>
      <point x="41" y="56" type="line" smooth="yes"/>
      <point x="30" y="11"/>
      <point x="69" y="-6"/>
      <point x="179" y="-6" type="curve" smooth="yes"/>
      <point x="184" y="-6"/>
      <point x="189" y="-6"/>
    </contour>
    <contour>
      <point x="132" y="700" type="line"/>
      <point x="130" y="692"/>
      <point x="128" y="683"/>
      <point x="126" y="675" type="curve" smooth="yes"/>
      <point x="109" y="608"/>
      <point x="113" y="582"/>
      <point x="122" y="569" type="curve" smooth="yes"/>
      <point x="130" y="559"/>
      <point x="136" y="555"/>
      <point x="156" y="555" type="curve"/>
      <point x="615" y="555" type="line"/>
      <point x="622" y="568"/>
      <point x="629" y="586"/>
      <point x="634" y="609" type="curve" smooth="yes"/>
      <point x="644" y="648"/>
      <point x="640" y="673"/>
      <point x="631" y="686" type="curve" smooth="yes"/>
      <point x="622" y="697"/>
      <point x="613" y="700"/>
      <point x="593" y="700" type="curve"/>
    </contour>
    <contour>
      <point x="135" y="350" type="line"/>
      <point x="112" y="260"/>
      <point x="110" y="205"/>
      <point x="153" y="205" type="curve"/>
      <point x="480" y="205" type="line"/>
      <point x="485" y="214"/>
      <point x="488" y="223"/>
      <point x="491" y="234" type="curve"/>
      <point x="499" y="269"/>
      <point x="496" y="305"/>
      <point x="479" y="328" type="curve" smooth="yes"/>
      <point x="466" y="346"/>
      <point x="456" y="350"/>
      <point x="426" y="350" type="curve"/>
    </contour>
  </outline>
</glyph>
<glyph name="G" format="1">
  <advance width="600"/>
  <unicode hex="0047"/>
  <outline>
    <contour>
      <point x="453" y="586" type="curve" smooth="yes"/>
      <point x="513" y="586"/>
      <point x="523" y="553"/>
      <point x="508" y="491" type="curve"/>
      <point x="560" y="491"/>
      <point x="583" y="513"/>
      <point x="587" y="528" type="curve" smooth="yes"/>
      <point x="602" y="587"/>
      <point x="605" y="623"/>
      <point x="572" y="667" type="curve" smooth="yes"/>
      <point x="549" y="697"/>
      <point x="514" y="720"/>
      <point x="470" y="720" type="curve" smooth="yes"/>
      <point x="294" y="720"/>
      <point x="134" y="607"/>
      <point x="62" y="319" type="curve" smooth="yes"/>
      <point x="60" y="311" type="line" smooth="yes"/>
      <point x="40" y="230"/>
      <point x="81" y="130"/>
      <point x="190" y="130" type="curve"/>
      <point x="184" y="177"/>
      <point x="188" y="218"/>
      <point x="201" y="275" type="curve" smooth="yes"/>
      <point x="203" y="284" type="line" smooth="yes"/>
      <point x="251" y="499"/>
      <point x="367" y="586"/>
    </contour>
    <contour>
      <point x="291" y="125" type="curve" smooth="yes"/>
      <point x="181" y="125"/>
      <point x="155" y="205"/>
      <point x="191" y="349" type="curve"/>
      <point x="107" y="365"/>
      <point x="73" y="364"/>
      <point x="60" y="311" type="curve" smooth="yes"/>
      <point x="18" y="141"/>
      <point x="82" y="-20"/>
      <point x="271" y="-20" type="curve" smooth="yes"/>
      <point x="393" y="-20"/>
      <point x="488" y="25"/>
      <point x="515" y="123" type="curve" smooth="yes"/>
      <point x="518" y="134" type="line" smooth="yes"/>
      <point x="536" y="201"/>
      <point x="501" y="279"/>
      <point x="444" y="279" type="curve"/>
      <point x="443" y="261"/>
      <point x="442" y="251"/>
      <point x="434" y="222" type="curve" smooth="yes"/>
      <point x="416" y="150"/>
      <point x="363" y="125"/>
    </contour>
    <contour>
      <point x="338" y="355" type="line"/>
      <point x="336" y="349"/>
      <point x="335" y="343"/>
      <point x="333" y="336" type="curve" smooth="yes"/>
      <point x="323" y="296"/>
      <point x="328" y="274"/>
      <point x="340" y="258" type="curve" smooth="yes"/>
      <point x="358" y="235"/>
      <point x="382" y="226"/>
      <point x="461" y="226" type="curve"/>
      <point x="561" y="226" type="line"/>
      <point x="564" y="235" type="line" smooth="yes"/>
      <point x="586" y="326"/>
      <point x="578" y="355"/>
      <point x="526" y="355" type="curve" smooth="yes"/>
    </contour>
    <contour>
      <point x="569" y="456" type="curve"/>
      <point x="587" y="528" type="line" smooth="yes"/>
      <point x="611" y="623"/>
      <point x="563" y="648"/>
      <point x="506" y="648" type="curve"/>
      <point x="470" y="600"/>
      <point x="444" y="555"/>
      <point x="434" y="517" type="curve" smooth="yes"/>
      <point x="433" y="512" type="line" smooth="yes"/>
      <point x="422" y="467"/>
      <point x="440" y="450"/>
      <point x="509" y="450" type="curve" smooth="yes"/>
      <point x="532" y="450"/>
      <point x="553" y="452"/>
    </contour>
    <contour>
      <point x="422" y="711" type="move" name="top"/>
    </contour>
    <contour>
      <point x="244" y="-1" type="move" name="bottom"/>
    </contour>
  </outline>
</glyph>
<glyph name="H" format="1">
  <advance width="600"/>
  <unicode hex="0048"/>
  <outline>
    <contour>
      <point x="170" y="703" type="curve"/>
      <point x="170" y="667"/>
      <point x="165" y="630"/>
      <point x="155" y="590" type="curve" smooth="yes"/>
      <point x="21" y="57" type="line" smooth="yes"/>
      <point x="10" y="12"/>
      <point x="45" y="-10"/>
      <point x="127" y="-10" type="curve" smooth="yes"/>
      <point x="144" y="-10"/>
      <point x="157" y="-9"/>
      <point x="165" y="-7" type="curve"/>
      <point x="327" y="640" type="line" smooth="yes"/>
      <point x="333" y="665"/>
      <point x="332" y="677"/>
      <point x="324" y="688" type="curve" smooth="yes"/>
      <point x="312" y="704"/>
      <point x="289" y="710"/>
      <point x="239" y="710" type="curve" smooth="yes"/>
      <point x="214" y="710"/>
      <point x="194" y="708"/>
    </contour>
    <contour>
      <point x="479" y="-3" type="curve"/>
      <point x="479" y="33"/>
      <point x="485" y="70"/>
      <point x="495" y="110" type="curve" smooth="yes"/>
      <point x="628" y="643" type="line" smooth="yes"/>
      <point x="639" y="687"/>
      <point x="596" y="710"/>
      <point x="502" y="710" type="curve" smooth="yes"/>
      <point x="494" y="710"/>
      <point x="489" y="710"/>
      <point x="485" y="710" type="curve"/>
      <point x="322" y="60" type="line" smooth="yes"/>
      <point x="316" y="35"/>
      <point x="317" y="23"/>
      <point x="325" y="12" type="curve" smooth="yes"/>
      <point x="337" y="-4"/>
      <point x="360" y="-10"/>
      <point x="410" y="-10" type="curve" smooth="yes"/>
      <point x="435" y="-10"/>
      <point x="455" y="-8"/>
    </contour>
    <contour>
      <point x="56" y="395" type="line"/>
      <point x="50" y="370" type="line" smooth="yes"/>
      <point x="37" y="319"/>
      <point x="41" y="283"/>
      <point x="60" y="258" type="curve" smooth="yes"/>
      <point x="65" y="251"/>
      <point x="68" y="250"/>
      <point x="75" y="250" type="curve"/>
      <point x="404" y="250" type="line"/>
      <point x="432" y="362"/>
      <point x="414" y="395"/>
      <point x="333" y="395" type="curve" smooth="yes"/>
    </contour>
    <contour>
      <point x="396" y="711" type="move" name="top"/>
    </contour>
  </outline>
</glyph>
<glyph name="J" format="1">
  <advance width="600"/>
  <unicode hex="004A"/>
  <outline>
    <contour>
      <point x="233" y="700" type="line"/>
      <point x="228" y="691"/>
      <point x="223" y="679"/>
      <point x="219" y="664" type="curve" smooth="yes"/>
      <point x="210" y="626"/>
      <point x="213" y="602"/>
      <point x="228" y="582" type="curve" smooth="yes"/>
      <point x="244" y="560"/>
      <point x="273" y="555"/>
      <point x="346" y="555" type="curve" smooth="yes"/>
      <point x="514" y="555" type="line"/>
      <point x="541" y="665"/>
      <point x="524" y="700"/>
      <point x="475" y="700" type="curve"/>
    </contour>
    <contour>
      <point x="494" y="188" type="curve" smooth="yes"/>
      <point x="610" y="649" type="line" smooth="yes"/>
      <point x="617" y="679"/>
      <point x="586" y="700"/>
      <point x="497" y="700" type="curve" smooth="yes"/>
      <point x="463" y="700" type="line"/>
      <point x="346" y="230" type="line" smooth="yes"/>
      <point x="328" y="160"/>
      <point x="314" y="122"/>
      <point x="266" y="64" type="curve"/>
      <point x="359" y="21"/>
      <point x="473" y="105"/>
    </contour>
    <contour>
      <point x="243" y="125" type="curve" smooth="yes"/>
      <point x="169" y="125"/>
      <point x="130" y="141"/>
      <point x="77" y="180" type="curve"/>
      <point x="73" y="180" type="line"/>
      <point x="65" y="164"/>
      <point x="59" y="146"/>
      <point x="55" y="130" type="curve"/>
      <point x="39" y="69"/>
      <point x="46" y="40"/>
      <point x="60" y="21" type="curve" smooth="yes"/>
      <point x="80" y="-5"/>
      <point x="144" y="-20"/>
      <point x="204" y="-20" type="curve" smooth="yes"/>
      <point x="214" y="-20" type="line" smooth="yes"/>
      <point x="363" y="-20"/>
      <point x="466" y="78"/>
      <point x="494" y="188" type="curve"/>
      <point x="499" y="205"/>
      <point x="488" y="250"/>
      <point x="455" y="250" type="curve"/>
      <point x="398" y="176"/>
      <point x="315" y="125"/>
    </contour>
    <contour>
      <point x="412" y="711" type="move" name="top"/>
    </contour>
  </outline>
</glyph>
<glyph name="L" format="1">
  <advance width="600"/>
  <unicode hex="004C"/>
  <outline>
    <contour>
      <point x="175" y="73" type="curve"/>
      <point x="317" y="640" type="line" smooth="yes"/>
      <point x="323" y="665"/>
      <point x="324" y="680"/>
      <point x="314" y="690" type="curve" smooth="yes"/>
      <point x="299" y="705"/>
      <point x="279" y="710"/>
      <point x="229" y="710" type="curve" smooth="yes"/>
      <point x="204" y="710"/>
      <point x="184" y="708"/>
      <point x="160" y="703" type="curve"/>
      <point x="160" y="668"/>
      <point x="155" y="631"/>
      <point x="145" y="590" type="curve" smooth="yes"/>
      <point x="36" y="155" type="line" smooth="yes"/>
      <point x="26" y="114"/>
      <point x="73" y="73"/>
    </contour>
    <contour>
      <point x="36" y="155" type="line"/>
      <point x="30" y="132" type="line" smooth="yes"/>
      <point x="15" y="73"/>
      <point x="57" y="0"/>
      <point x="105" y="0" type="curve" smooth="yes"/>
      <point x="487" y="0" type="line"/>
      <point x="496" y="17"/>
      <point x="503" y="41"/>
      <point x="510" y="68" type="curve" smooth="yes"/>
      <point x="527" y="134"/>
      <point x="504" y="155"/>
      <point x="460" y="155" type="curve" smooth="yes"/>
    </contour>
    <contour>
      <point x="495" y="550" type="move" name="caronslovak"/>
    </contour>
    <contour>
      <point x="256" y="711" type="move" name="top"/>
    </contour>
    <contour>
      <point x="488" y="400" type="move" name="dot"/>
    </contour>
    <contour>
      <point x="238" y="-1" type="move" name="bottom"/>
    </contour>
  </outline>
</glyph>
<glyph name="M" format="1">
  <advance width="600"/>
  <unicode hex="004D"/>
  <outline>
    <contour>
      <point x="129" y="-7" type="curve"/>
      <point x="146" y="62"/>
      <point x="164" y="131"/>
      <point x="181" y="200" type="curve" smooth="yes"/>
      <point x="209" y="312"/>
      <point x="218" y="470"/>
      <point x="267" y="665" type="curve" smooth="yes"/>
      <point x="269" y="673"/>
      <point x="270" y="686"/>
      <point x="266" y="692" type="curve" smooth="yes"/>
      <point x="255" y="706"/>
      <point x="246" y="710"/>
      <point x="222" y="710" type="curve" smooth="yes"/>
      <point x="204" y="710"/>
      <point x="185" y="708"/>
      <point x="159" y="703" type="curve"/>
      <point x="158" y="672"/>
      <point x="150" y="636"/>
      <point x="141" y="600" type="curve" smooth="yes"/>
      <point x="5" y="55" type="line" smooth="yes"/>
      <point x="0" y="37"/>
      <point x="2" y="27"/>
      <point x="10" y="16" type="curve" smooth="yes"/>
      <point x="22" y="0"/>
      <point x="63" y="-10"/>
      <point x="97" y="-10" type="curve" smooth="yes"/>
      <point x="109" y="-10"/>
      <point x="121" y="-9"/>
    </contour>
    <contour>
      <point x="488" y="-6" type="curve"/>
      <point x="490" y="28"/>
      <point x="497" y="63"/>
      <point x="506" y="100" type="curve" smooth="yes"/>
      <point x="646" y="659" type="line" smooth="yes"/>
      <point x="648" y="669"/>
      <point x="646" y="678"/>
      <point x="641" y="685" type="curve" smooth="yes"/>
      <point x="632" y="697"/>
      <point x="602" y="710"/>
      <point x="556" y="710" type="curve" smooth="yes"/>
      <point x="548" y="710" type="line"/>
      <point x="549" y="694"/>
      <point x="547" y="686"/>
      <point x="543" y="670" type="curve" smooth="yes"/>
      <point x="512" y="543"/>
      <point x="418" y="308"/>
      <point x="391" y="200" type="curve" smooth="yes"/>
      <point x="379" y="152"/>
      <point x="367" y="103"/>
      <point x="355" y="55" type="curve" smooth="yes"/>
      <point x="350" y="37"/>
      <point x="352" y="27"/>
      <point x="360" y="16" type="curve" smooth="yes"/>
      <point x="372" y="0"/>
      <point x="413" y="-10"/>
      <point x="447" y="-10" type="curve"/>
      <point x="461" y="-10"/>
      <point x="473" y="-9"/>
    </contour>
    <contour>
      <point x="222" y="710" type="line"/>
      <point x="207" y="547"/>
      <point x="237" y="310"/>
      <point x="282" y="250" type="curve"/>
      <point x="285" y="246"/>
      <point x="289" y="245"/>
      <point x="294" y="245" type="curve"/>
      <point x="308" y="245"/>
      <point x="337" y="320"/>
      <point x="353" y="386" type="curve"/>
      <point x="321" y="434"/>
      <point x="309" y="532"/>
      <point x="324" y="674" type="curve"/>
      <point x="326" y="694"/>
      <point x="300" y="710"/>
      <point x="226" y="710" type="curve"/>
    </contour>
    <contour>
      <point x="548" y="710" type="curve" smooth="yes"/>
      <point x="531" y="710"/>
      <point x="512" y="709"/>
      <point x="497" y="706" type="curve"/>
      <point x="431" y="526"/>
      <point x="363" y="424"/>
      <point x="305" y="382" type="curve"/>
      <point x="288" y="369"/>
      <point x="267" y="245"/>
      <point x="294" y="245" type="curve"/>
      <point x="303" y="245" type="line"/>
      <point x="400" y="312"/>
      <point x="518" y="514"/>
      <point x="562" y="657" type="curve"/>
      <point x="573" y="690"/>
      <point x="566" y="710"/>
    </contour>
  </outline>
</glyph>
<glyph name="N" format="1">
  <advance width="600"/>
  <unicode hex="004E"/>
  <outline>
    <contour>
      <point x="146" y="-4" type="curve"/>
      <point x="172" y="101" type="line"/>
      <point x="258" y="443"/>
      <point x="283" y="671"/>
      <point x="266" y="693" type="curve" smooth="yes"/>
      <point x="260" y="701"/>
      <point x="248" y="710"/>
      <point x="240" y="710" type="curve"/>
      <point x="215" y="710"/>
      <point x="197" y="708"/>
      <point x="169" y="701" type="curve"/>
      <point x="169" y="665"/>
      <point x="165" y="630"/>
      <point x="155" y="590" type="curve" smooth="yes"/>
      <point x="21" y="57" type="line"/>
      <point x="9" y="8"/>
      <point x="65" y="-9"/>
      <point x="108" y="-9" type="curve"/>
      <point x="124" y="-9"/>
      <point x="133" y="-8"/>
    </contour>
    <contour>
      <point x="464" y="-10" type="line"/>
      <point x="630" y="651" type="line"/>
      <point x="640" y="691"/>
      <point x="594" y="710"/>
      <point x="530" y="710" type="curve"/>
      <point x="505" y="710" type="line"/>
      <point x="445" y="470" type="line"/>
      <point x="383" y="225"/>
      <point x="357" y="51"/>
      <point x="380" y="20" type="curve" smooth="yes"/>
      <point x="396" y="-1"/>
      <point x="421" y="-10"/>
      <point x="439" y="-10" type="curve"/>
    </contour>
    <contour>
      <point x="240" y="710" type="line"/>
      <point x="260" y="683"/>
      <point x="256" y="627"/>
      <point x="253" y="579" type="curve" smooth="yes"/>
      <point x="235" y="327"/>
      <point x="275" y="104"/>
      <point x="327" y="35" type="curve"/>
      <point x="349" y="6"/>
      <point x="390" y="-10"/>
      <point x="439" y="-10" type="curve" smooth="yes"/>
      <point x="443" y="-10"/>
      <point x="444" y="-10"/>
      <point x="448" y="-10" type="curve"/>
      <point x="453" y="-10"/>
      <point x="461" y="11"/>
      <point x="469" y="43" type="curve"/>
      <point x="363" y="139"/>
      <point x="345" y="396"/>
      <point x="356" y="664" type="curve"/>
      <point x="357" y="695"/>
      <point x="308" y="710"/>
      <point x="242" y="710" type="curve"/>
    </contour>
    <contour>
      <point x="410" y="712" type="move" name="top"/>
    </contour>
    <contour>
      <point x="230" y="-1" type="move" name="bottom"/>
    </contour>
  </outline>
</glyph>
<glyph name="O" format="1">
  <advance width="600"/>
  <unicode hex="004F"/>
  <outline>
    <contour>
      <point x="402" y="720" type="curve" smooth="yes"/>
      <point x="256" y="720"/>
      <point x="132" y="601"/>
      <point x="71" y="355" type="curve" smooth="yes"/>
      <point x="67" y="339" type="line" smooth="yes"/>
      <point x="9" y="107"/>
      <point x="82" y="-20"/>
      <point x="240" y="-20" type="curve" smooth="yes"/>
      <point x="283" y="-20"/>
      <point x="312" y="26"/>
      <point x="329" y="93" type="curve"/>
      <point x="196" y="93"/>
      <point x="175" y="161"/>
      <point x="210" y="312" type="curve" smooth="yes"/>
      <point x="213" y="325" type="line" smooth="yes"/>
      <point x="253" y="497"/>
      <point x="311" y="576"/>
      <point x="383" y="576" type="curve" smooth="yes"/>
      <point x="424" y="576"/>
      <point x="449" y="561"/>
      <point x="479" y="525" type="curve"/>
      <point x="552" y="579"/>
      <point x="500" y="720"/>
    </contour>
    <contour>
      <point x="240" y="-20" type="curve" smooth="yes"/>
      <point x="394" y="-20"/>
      <point x="506" y="90"/>
      <point x="568" y="336" type="curve" smooth="yes"/>
      <point x="572" y="352" type="line" smooth="yes"/>
      <point x="630" y="582"/>
      <point x="564" y="720"/>
      <point x="402" y="720" type="curve" smooth="yes"/>
      <point x="359" y="720"/>
      <point x="325" y="674"/>
      <point x="308" y="607" type="curve"/>
      <point x="445" y="607"/>
      <point x="463" y="532"/>
      <point x="428" y="379" type="curve" smooth="yes"/>
      <point x="425" y="366" type="line" smooth="yes"/>
      <point x="385" y="194"/>
      <point x="326" y="124"/>
      <point x="254" y="124" type="curve" smooth="yes"/>
      <point x="213" y="124"/>
      <point x="183" y="136"/>
      <point x="158" y="175" type="curve"/>
      <point x="78" y="116"/>
      <point x="142" y="-20"/>
    </contour>
    <contour>
      <point x="410" y="712" type="move" name="top"/>
    </contour>
    <contour>
      <point x="325" y="-1" type="move" name="ogonek"/>
    </contour>
    <contour>
      <point x="232" y="-1" type="move" name="bottom"/>
    </contour>
  </outline>
</glyph>
<glyph name="Q" format="1">
  <advance width="600"/>
  <unicode hex="0051"/>
  <outline>
    <contour>
      <point x="402" y="720" type="curve" smooth="yes"/>
      <point x="256" y="720"/>
      <point x="132" y="601"/>
      <point x="71" y="355" type="curve" smooth="yes"/>
      <point x="67" y="339" type="line" smooth="yes"/>
      <point x="9" y="107"/>
      <point x="82" y="-20"/>
      <point x="240" y="-20" type="curve" smooth="yes"/>
      <point x="283" y="-20"/>
      <point x="312" y="26"/>
      <point x="329" y="93" type="curve"/>
      <point x="196" y="93"/>
      <point x="175" y="161"/>
      <point x="210" y="312" type="curve" smooth="yes"/>
      <point x="213" y="325" type="line" smooth="yes"/>
      <point x="253" y="497"/>
      <point x="311" y="576"/>
      <point x="383" y="576" type="curve" smooth="yes"/>
      <point x="424" y="576"/>
      <point x="449" y="561"/>
      <point x="479" y="525" type="curve"/>
      <point x="552" y="579"/>
      <point x="500" y="720"/>
    </contour>
    <contour>
      <point x="240" y="-20" type="curve" smooth="yes"/>
      <point x="394" y="-20"/>
      <point x="506" y="90"/>
      <point x="568" y="336" type="curve" smooth="yes"/>
      <point x="572" y="352" type="line" smooth="yes"/>
      <point x="630" y="582"/>
      <point x="564" y="720"/>
      <point x="402" y="720" type="curve" smooth="yes"/>
      <point x="359" y="720"/>
      <point x="325" y="674"/>
      <point x="308" y="607" type="curve"/>
      <point x="445" y="607"/>
      <point x="463" y="532"/>
      <point x="428" y="379" type="curve" smooth="yes"/>
      <point x="425" y="366" type="line" smooth="yes"/>
      <point x="385" y="194"/>
      <point x="326" y="124"/>
      <point x="254" y="124" type="curve" smooth="yes"/>
      <point x="213" y="124"/>
      <point x="183" y="136"/>
      <point x="158" y="175" type="curve"/>
      <point x="79" y="116"/>
      <point x="142" y="-20"/>
    </contour>
    <contour>
      <point x="365" y="133" type="line"/>
      <point x="258" y="83"/>
      <point x="240" y="66"/>
      <point x="249" y="34" type="curve" smooth="yes"/>
      <point x="281" y="-81" type="line" smooth="yes"/>
      <point x="301" y="-153"/>
      <point x="330" y="-186"/>
      <point x="383" y="-186" type="curve" smooth="yes"/>
      <point x="388" y="-186" type="line" smooth="yes"/>
      <point x="432" y="-186"/>
      <point x="469" y="-161"/>
      <point x="490" y="-87" type="curve" smooth="yes"/>
      <point x="497" y="-61"/>
      <point x="498" y="-39"/>
      <point x="499" y="-18" type="curve"/>
      <point x="495" y="-18" type="line"/>
      <point x="480" y="-25"/>
      <point x="471" y="-27"/>
      <point x="454" y="-27" type="curve" smooth="yes"/>
      <point x="419" y="-27"/>
      <point x="412" y="-14"/>
      <point x="402" y="17" type="curve" smooth="yes"/>
    </contour>
  </outline>
</glyph>
<glyph name="U" format="1">
  <advance width="600"/>
  <unicode hex="0055"/>
  <outline>
    <contour>
      <point x="155" y="703" type="curve"/>
      <point x="155" y="668"/>
      <point x="150" y="631"/>
      <point x="140" y="590" type="curve" smooth="yes"/>
      <point x="27" y="138" type="line"/>
      <point x="16" y="96"/>
      <point x="62" y="83"/>
      <point x="139" y="83" type="curve"/>
      <point x="224" y="295"/>
      <point x="264" y="413"/>
      <point x="299" y="550" type="curve" smooth="yes"/>
      <point x="301" y="560" type="line"/>
      <point x="330" y="676"/>
      <point x="303" y="710"/>
      <point x="221" y="710" type="curve"/>
      <point x="197" y="710"/>
      <point x="178" y="708"/>
    </contour>
    <contour>
      <point x="140" y="-10" type="curve" smooth="yes"/>
      <point x="205" y="-10"/>
      <point x="281" y="25"/>
      <point x="356" y="117" type="curve" smooth="yes"/>
      <point x="409" y="184"/>
      <point x="408" y="217"/>
      <point x="394" y="271" type="curve"/>
      <point x="338" y="177"/>
      <point x="269" y="160"/>
      <point x="198" y="160" type="curve" smooth="yes"/>
      <point x="167" y="160"/>
      <point x="151" y="172"/>
      <point x="149" y="202" type="curve"/>
      <point x="119" y="202"/>
      <point x="35" y="173"/>
      <point x="27" y="138" type="curve" smooth="yes"/>
      <point x="10" y="72"/>
      <point x="66" y="-10"/>
    </contour>
    <contour>
      <point x="482" y="-3" type="curve"/>
      <point x="482" y="29"/>
      <point x="488" y="64"/>
      <point x="497" y="101" type="curve" smooth="yes"/>
      <point x="635" y="651" type="line" smooth="yes"/>
      <point x="645" y="692"/>
      <point x="612" y="710"/>
      <point x="533" y="710" type="curve" smooth="yes"/>
      <point x="515" y="710"/>
      <point x="503" y="709"/>
      <point x="489" y="706" type="curve"/>
      <point x="419" y="427" type="line" smooth="yes"/>
      <point x="349" y="149"/>
      <point x="346" y="54"/>
      <point x="374" y="16" type="curve" smooth="yes"/>
      <point x="389" y="-4"/>
      <point x="408" y="-10"/>
      <point x="433" y="-10" type="curve" smooth="yes"/>
      <point x="451" y="-10"/>
      <point x="466" y="-8"/>
    </contour>
    <contour>
      <point x="410" y="712" type="move" name="top"/>
    </contour>
    <contour>
      <point x="482" y="-4" type="move" name="ogonek"/>
    </contour>
    <contour>
      <point x="409" y="711" type="move" name="ring"/>
    </contour>
    <contour>
      <point x="231" y="-1" type="move" name="bottom"/>
    </contour>
  </outline>
</glyph>
<glyph name="V" format="1">
  <advance width="600"/>
  <unicode hex="0056"/>
  <outline>
    <contour>
      <point x="183" y="710" type="curve"/>
      <point x="159" y="710" type="line"/>
      <point x="84" y="366"/>
      <point x="75" y="144"/>
      <point x="155" y="37" type="curve" smooth="yes"/>
      <point x="187" y="-5"/>
      <point x="219" y="-10"/>
      <point x="248" y="-10" type="curve" smooth="yes"/>
      <point x="266" y="-10" type="line" smooth="yes"/>
      <point x="288" y="-10"/>
      <point x="315" y="25"/>
      <point x="343" y="77" type="curve"/>
      <point x="340" y="77"/>
      <point x="338" y="77"/>
      <point x="336" y="77" type="curve" smooth="yes"/>
      <point x="328" y="77"/>
      <point x="323" y="79"/>
      <point x="312" y="88" type="curve"/>
      <point x="226" y="162"/>
      <point x="229" y="279"/>
      <point x="305" y="653" type="curve"/>
      <point x="313" y="693"/>
      <point x="290" y="710"/>
    </contour>
    <contour>
      <point x="528" y="710" type="curve"/>
      <point x="504" y="710" type="line"/>
      <point x="386" y="333"/>
      <point x="336" y="196"/>
      <point x="217" y="114" type="curve"/>
      <point x="184" y="92"/>
      <point x="195" y="-10"/>
      <point x="259" y="-10" type="curve"/>
      <point x="288" y="-10" type="line"/>
      <point x="436" y="93"/>
      <point x="545" y="325"/>
      <point x="639" y="636" type="curve"/>
      <point x="652" y="679"/>
      <point x="593" y="710"/>
    </contour>
  </outline>
</glyph>
<glyph name="W" format="1">
  <advance width="600"/>
  <unicode hex="0057"/>
  <outline>
    <contour>
      <point x="138" y="710" type="curve"/>
      <point x="19" y="237"/>
      <point x="14" y="90"/>
      <point x="72" y="12" type="curve"/>
      <point x="82" y="-2"/>
      <point x="100" y="-10"/>
      <point x="119" y="-10" type="curve"/>
      <point x="122" y="-10" type="line" smooth="yes"/>
      <point x="136" y="-10"/>
      <point x="182" y="80"/>
      <point x="191" y="116" type="curve"/>
      <point x="155" y="140"/>
      <point x="166" y="208"/>
      <point x="277" y="650" type="curve"/>
      <point x="280" y="664"/>
      <point x="278" y="672"/>
      <point x="271" y="682" type="curve" smooth="yes"/>
      <point x="260" y="696"/>
      <point x="225" y="710"/>
      <point x="162" y="710" type="curve"/>
      <point x="154" y="710"/>
      <point x="146" y="710"/>
    </contour>
    <contour>
      <point x="528" y="710" type="curve"/>
      <point x="400" y="199"/>
      <point x="371" y="146"/>
      <point x="329" y="112" type="curve"/>
      <point x="316" y="53"/>
      <point x="326" y="-10"/>
      <point x="363" y="-10" type="curve"/>
      <point x="381" y="-10" type="line"/>
      <point x="483" y="95"/>
      <point x="570" y="264"/>
      <point x="665" y="643" type="curve"/>
      <point x="670" y="662"/>
      <point x="670" y="671"/>
      <point x="661" y="683" type="curve" smooth="yes"/>
      <point x="649" y="699"/>
      <point x="615" y="710"/>
      <point x="552" y="710" type="curve"/>
      <point x="544" y="710"/>
      <point x="536" y="710"/>
    </contour>
    <contour>
      <point x="340" y="525" type="curve"/>
      <point x="320" y="525" type="line"/>
      <point x="253" y="254"/>
      <point x="194" y="180"/>
      <point x="93" y="55" type="curve"/>
      <point x="85" y="18"/>
      <point x="90" y="-10"/>
      <point x="119" y="-10" type="curve"/>
      <point x="144" y="-10" type="line"/>
      <point x="255" y="128"/>
      <point x="322" y="246"/>
      <point x="378" y="472" type="curve"/>
      <point x="387" y="508"/>
      <point x="362" y="525"/>
    </contour>
    <contour>
      <point x="340" y="525" type="curve"/>
      <point x="335" y="525" type="line"/>
      <point x="272" y="234"/>
      <point x="262" y="98"/>
      <point x="319" y="7" type="curve"/>
      <point x="326" y="-4"/>
      <point x="337" y="-10"/>
      <point x="354" y="-10" type="curve"/>
      <point x="362" y="-10" type="line"/>
      <point x="379" y="-10"/>
      <point x="409" y="30"/>
      <point x="414" y="50" type="curve"/>
      <point x="360" y="108"/>
      <point x="335" y="231"/>
      <point x="398" y="485" type="curve"/>
      <point x="404" y="507"/>
      <point x="380" y="525"/>
    </contour>
    <contour>
      <point x="410" y="711" type="move" name="top"/>
    </contour>
  </outline>
</glyph>
<glyph name="Y" format="1">
  <advance width="600"/>
  <unicode hex="0059"/>
  <outline>
    <contour>
      <point x="158" y="710" type="line"/>
      <point x="121" y="475"/>
      <point x="130" y="326"/>
      <point x="196" y="237" type="curve"/>
      <point x="228" y="195"/>
      <point x="261" y="190"/>
      <point x="290" y="190" type="curve"/>
      <point x="337" y="190"/>
      <point x="360" y="204"/>
      <point x="379" y="281" type="curve"/>
      <point x="283" y="332"/>
      <point x="271" y="432"/>
      <point x="303" y="660" type="curve"/>
      <point x="307" y="688"/>
      <point x="278" y="710"/>
      <point x="182" y="710" type="curve" smooth="yes"/>
    </contour>
    <contour>
      <point x="498" y="710" type="line"/>
      <point x="415" y="472"/>
      <point x="366" y="383"/>
      <point x="247" y="302" type="curve"/>
      <point x="215" y="281"/>
      <point x="230" y="190"/>
      <point x="290" y="190" type="curve"/>
      <point x="340" y="190" type="line"/>
      <point x="469" y="291"/>
      <point x="572" y="442"/>
      <point x="638" y="636" type="curve"/>
      <point x="653" y="679"/>
      <point x="602" y="710"/>
      <point x="522" y="710" type="curve"/>
    </contour>
    <contour>
      <point x="324" y="-3" type="curve"/>
      <point x="324" y="33"/>
      <point x="330" y="70"/>
      <point x="340" y="110" type="curve" smooth="yes"/>
      <point x="375" y="253" type="line" smooth="yes"/>
      <point x="385" y="291"/>
      <point x="324" y="320"/>
      <point x="232" y="320" type="curve"/>
      <point x="167" y="60" type="line" smooth="yes"/>
      <point x="161" y="35"/>
      <point x="162" y="23"/>
      <point x="170" y="12" type="curve" smooth="yes"/>
      <point x="182" y="-4"/>
      <point x="205" y="-10"/>
      <point x="255" y="-10" type="curve" smooth="yes"/>
      <point x="280" y="-10"/>
      <point x="300" y="-8"/>
    </contour>
    <contour>
      <point x="410" y="712" type="move" name="top"/>
    </contour>
  </outline>
</glyph>
<glyph name="Z" format="1">
  <advance width="600"/>
  <unicode hex="005A"/>
  <outline>
    <contour>
      <point x="212" y="700" type="line"/>
      <point x="207" y="691"/>
      <point x="201" y="676"/>
      <point x="198" y="662" type="curve" smooth="yes"/>
      <point x="187" y="621"/>
      <point x="190" y="590"/>
      <point x="205" y="571" type="curve" smooth="yes"/>
      <point x="215" y="558"/>
      <point x="222" y="555"/>
      <point x="243" y="555" type="curve" smooth="yes"/>
      <point x="421" y="555" type="line" smooth="yes"/>
      <point x="500" y="555"/>
      <point x="538" y="540"/>
      <point x="572" y="506" type="curve" smooth="yes"/>
      <point x="600" y="510"/>
      <point x="610" y="513"/>
      <point x="615" y="532" type="curve"/>
      <point x="618" y="545" type="line" smooth="yes"/>
      <point x="640" y="642"/>
      <point x="595" y="700"/>
      <point x="535" y="700" type="curve" smooth="yes"/>
    </contour>
    <contour>
      <point x="499" y="602" type="curve"/>
      <point x="371" y="423"/>
      <point x="288" y="340"/>
      <point x="16" y="135" type="curve"/>
      <point x="6" y="97"/>
      <point x="72" y="79"/>
      <point x="133" y="102" type="curve" smooth="yes"/>
      <point x="260" y="150"/>
      <point x="590" y="431"/>
      <point x="615" y="532" type="curve"/>
      <point x="630" y="593"/>
      <point x="592" y="602"/>
    </contour>
    <contour>
      <point x="479" y="0" type="line"/>
      <point x="483" y="8"/>
      <point x="487" y="18"/>
      <point x="490" y="31" type="curve" smooth="yes"/>
      <point x="500" y="73"/>
      <point x="498" y="99"/>
      <point x="478" y="126" type="curve" smooth="yes"/>
      <point x="466" y="141"/>
      <point x="452" y="145"/>
      <point x="427" y="145" type="curve" smooth="yes"/>
      <point x="368" y="145" type="line" smooth="yes"/>
      <point x="257" y="145"/>
      <point x="121" y="141"/>
      <point x="16" y="135" type="curve"/>
      <point x="12" y="120" type="line" smooth="yes"/>
      <point x="-7" y="45"/>
      <point x="3" y="0"/>
      <point x="37" y="0" type="curve" smooth="yes"/>
    </contour>
    <contour>
      <point x="255" y="460" type="curve"/>
      <point x="282" y="566"/>
      <point x="306" y="603"/>
      <point x="322" y="666" type="curve"/>
      <point x="329" y="695"/>
      <point x="275" y="720"/>
      <point x="206" y="720" type="curve" smooth="yes"/>
      <point x="200" y="720" type="line"/>
      <point x="166" y="658"/>
      <point x="140" y="590"/>
      <point x="121" y="516" type="curve"/>
      <point x="110" y="470"/>
      <point x="129" y="454"/>
      <point x="196" y="454" type="curve" smooth="yes"/>
      <point x="219" y="454"/>
      <point x="239" y="456"/>
    </contour>
    <contour>
      <point x="410" y="711" type="move" name="top"/>
    </contour>
  </outline>
</glyph>
<glyph name="bracketleft" format="1">
  <advance width="600"/>
  <unicode hex="005B"/>
  <outline>
    <contour>
      <point x="298" y="640" type="curve" smooth="yes"/>
      <point x="134" y="-14" type="line" smooth="yes"/>
      <point x="120" y="-68"/>
      <point x="207" y="-78"/>
      <point x="278" y="-78" type="curve"/>
      <point x="470" y="690" type="line" smooth="yes"/>
      <point x="485" y="751"/>
      <point x="466" y="760"/>
      <point x="382" y="760" type="curve" smooth="yes"/>
      <point x="357" y="760"/>
      <point x="337" y="758"/>
      <point x="313" y="753" type="curve"/>
      <point x="313" y="717"/>
      <point x="308" y="680"/>
    </contour>
    <contour>
      <point x="598" y="610" type="line"/>
      <point x="607" y="624"/>
      <point x="613" y="643"/>
      <point x="619" y="664" type="curve" smooth="yes"/>
      <point x="624" y="685"/>
      <point x="630" y="729"/>
      <point x="616" y="748" type="curve" smooth="yes"/>
      <point x="608" y="758"/>
      <point x="602" y="760"/>
      <point x="585" y="760" type="curve" smooth="yes"/>
      <point x="382" y="760" type="line"/>
      <point x="356" y="659"/>
      <point x="398" y="610"/>
      <point x="514" y="610" type="curve"/>
    </contour>
    <contour>
      <point x="407" y="-161" type="line"/>
      <point x="415" y="-146"/>
      <point x="422" y="-126"/>
      <point x="428" y="-103" type="curve" smooth="yes"/>
      <point x="444" y="-37"/>
      <point x="433" y="-11"/>
      <point x="389" y="-11" type="curve" smooth="yes"/>
      <point x="135" y="-11" type="line"/>
      <point x="130" y="-29" type="line" smooth="yes"/>
      <point x="115" y="-88"/>
      <point x="157" y="-161"/>
      <point x="205" y="-161" type="curve" smooth="yes"/>
    </contour>
  </outline>
</glyph>
<glyph name="backslash" format="1">
  <advance width="600"/>
  <unicode hex="005C"/>
  <outline>
    <contour>
      <point x="158" y="751" type="curve"/>
      <point x="149" y="447"/>
      <point x="184" y="179"/>
      <point x="264" y="-54" type="curve" smooth="yes"/>
      <point x="283" y="-109"/>
      <point x="317" y="-135"/>
      <point x="370" y="-135" type="curve" smooth="yes"/>
      <point x="403" y="-135"/>
      <point x="428" y="-129"/>
      <point x="460" y="-113" type="curve"/>
      <point x="444" y="-90"/>
      <point x="432" y="-64"/>
      <point x="422" y="-29" type="curve"/>
      <point x="351" y="196"/>
      <point x="319" y="441"/>
      <point x="325" y="706" type="curve"/>
      <point x="326" y="746"/>
      <point x="294" y="768"/>
      <point x="233" y="768" type="curve" smooth="yes"/>
      <point x="208" y="768"/>
      <point x="187" y="763"/>
    </contour>
  </outline>
</glyph>
<glyph name="bracketright" format="1">
  <advance width="600"/>
  <unicode hex="005D"/>
  <outline>
    <contour>
      <point x="317" y="-41" type="curve" smooth="yes"/>
      <point x="481" y="613" type="line" smooth="yes"/>
      <point x="494" y="667"/>
      <point x="408" y="677"/>
      <point x="337" y="677" type="curve"/>
      <point x="145" y="-91" type="line" smooth="yes"/>
      <point x="129" y="-152"/>
      <point x="149" y="-161"/>
      <point x="233" y="-161" type="curve" smooth="yes"/>
      <point x="258" y="-161"/>
      <point x="278" y="-159"/>
      <point x="302" y="-154" type="curve"/>
      <point x="302" y="-118"/>
      <point x="307" y="-81"/>
    </contour>
    <contour>
      <point x="17" y="-11" type="line"/>
      <point x="8" y="-25"/>
      <point x="1" y="-44"/>
      <point x="-4" y="-65" type="curve" smooth="yes"/>
      <point x="-9" y="-86"/>
      <point x="-15" y="-130"/>
      <point x="-1" y="-149" type="curve" smooth="yes"/>
      <point x="7" y="-159"/>
      <point x="13" y="-161"/>
      <point x="30" y="-161" type="curve" smooth="yes"/>
      <point x="233" y="-161" type="line"/>
      <point x="258" y="-60"/>
      <point x="217" y="-11"/>
      <point x="101" y="-11" type="curve"/>
    </contour>
    <contour>
      <point x="208" y="760" type="line"/>
      <point x="200" y="745"/>
      <point x="193" y="725"/>
      <point x="187" y="702" type="curve" smooth="yes"/>
      <point x="171" y="636"/>
      <point x="182" y="610"/>
      <point x="226" y="610" type="curve" smooth="yes"/>
      <point x="480" y="610" type="line"/>
      <point x="485" y="628" type="line" smooth="yes"/>
      <point x="499" y="687"/>
      <point x="458" y="760"/>
      <point x="410" y="760" type="curve" smooth="yes"/>
    </contour>
  </outline>
</glyph>
<glyph name="grave" format="1">
  <advance width="600"/>
  <unicode hex="0060"/>
  <outline>
    <contour>
      <point x="482" y="414" type="curve"/>
      <point x="454" y="485"/>
      <point x="449" y="613"/>
      <point x="466" y="713" type="curve"/>
      <point x="438" y="718"/>
      <point x="422" y="720"/>
      <point x="397" y="720" type="curve" smooth="yes"/>
      <point x="320" y="720"/>
      <point x="269" y="706"/>
      <point x="253" y="642" type="curve" smooth="yes"/>
      <point x="238" y="581"/>
      <point x="265" y="444"/>
      <point x="316" y="394" type="curve" smooth="yes"/>
      <point x="327" y="384"/>
      <point x="341" y="379"/>
      <point x="362" y="379" type="curve" smooth="yes"/>
      <point x="410" y="379"/>
      <point x="445" y="389"/>
    </contour>
  </outline>
</glyph>
<glyph name="a" format="1">
  <advance width="600"/>
  <unicode hex="0061"/>
  <outline>
    <contour>
      <point x="312" y="552" type="curve" smooth="yes"/>
      <point x="223" y="552"/>
      <point x="98" y="482"/>
      <point x="34" y="246" type="curve" smooth="yes"/>
      <point x="28" y="224" type="line" smooth="yes"/>
      <point x="14" y="172"/>
      <point x="33" y="66"/>
      <point x="120" y="66" type="curve" smooth="yes"/>
      <point x="147" y="66"/>
      <point x="173" y="82"/>
      <point x="182" y="105" type="curve"/>
      <point x="170" y="145"/>
      <point x="173" y="170"/>
      <point x="190" y="239" type="curve" smooth="yes"/>
      <point x="192" y="247" type="line" smooth="yes"/>
      <point x="219" y="356"/>
      <point x="267" y="408"/>
      <point x="341" y="408" type="curve" smooth="yes"/>
      <point x="384" y="408"/>
      <point x="411" y="394"/>
      <point x="428" y="368" type="curve"/>
      <point x="454" y="398"/>
      <point x="462" y="441"/>
      <point x="450" y="468" type="curve" smooth="yes"/>
      <point x="433" y="505"/>
      <point x="395" y="552"/>
    </contour>
    <contour>
      <point x="163" y="-12" type="curve" smooth="yes"/>
      <point x="257" y="-12"/>
      <point x="338" y="79"/>
      <point x="386" y="177" type="curve" smooth="yes"/>
      <point x="411" y="226"/>
      <point x="422" y="296"/>
      <point x="414" y="334" type="curve"/>
      <point x="338" y="197"/>
      <point x="266" y="149"/>
      <point x="203" y="149" type="curve" smooth="yes"/>
      <point x="161" y="149"/>
      <point x="112" y="183"/>
      <point x="82" y="249" type="curve"/>
      <point x="48" y="245"/>
      <point x="31" y="234"/>
      <point x="28" y="224" type="curve" smooth="yes"/>
      <point x="0" y="112"/>
      <point x="48" y="-12"/>
    </contour>
    <contour>
      <point x="604" y="538" type="line"/>
      <point x="584" y="542"/>
      <point x="570" y="544"/>
      <point x="547" y="544" type="curve" smooth="yes"/>
      <point x="490" y="544"/>
      <point x="453" y="536"/>
      <point x="440" y="482" type="curve" smooth="yes"/>
      <point x="351" y="126" type="line" smooth="yes"/>
      <point x="339" y="78"/>
      <point x="416" y="53"/>
      <point x="500" y="70" type="curve"/>
      <point x="500" y="106"/>
      <point x="503" y="137"/>
      <point x="513" y="176" type="curve"/>
    </contour>
    <contour>
      <point x="546" y="139" type="line"/>
      <point x="543" y="139" type="line"/>
      <point x="542" y="139"/>
      <point x="540" y="139"/>
      <point x="539" y="139" type="curve" smooth="yes"/>
      <point x="508" y="139"/>
      <point x="477" y="153"/>
      <point x="463" y="197" type="curve"/>
      <point x="386" y="197"/>
      <point x="364" y="181"/>
      <point x="351" y="126" type="curve" smooth="yes"/>
      <point x="333" y="56"/>
      <point x="368" y="-10"/>
      <point x="442" y="-10" type="curve" smooth="yes"/>
      <point x="448" y="-10" type="line" smooth="yes"/>
      <point x="492" y="-10"/>
      <point x="519" y="34"/>
      <point x="542" y="123" type="curve"/>
    </contour>
  </outline>
</glyph>
<glyph name="i" format="1">
  <advance width="600"/>
  <unicode hex="0069"/>
  <outline>
    <contour>
      <point x="102" y="540" type="curve"/>
      <point x="95" y="525"/>
      <point x="88" y="505"/>
      <point x="83" y="482" type="curve" smooth="yes"/>
      <point x="66" y="415"/>
      <point x="80" y="390"/>
      <point x="103" y="390" type="curve" smooth="yes"/>
      <point x="148" y="390"/>
      <point x="190" y="408"/>
      <point x="297" y="408" type="curve"/>
      <point x="316" y="483"/>
      <point x="339" y="550"/>
      <point x="290" y="550" type="curve"/>
      <point x="227" y="550"/>
      <point x="164" y="547"/>
    </contour>
    <contour>
      <point x="416" y="518" type="curve" smooth="yes"/>
      <point x="397" y="537"/>
      <point x="353" y="550"/>
      <point x="300" y="550" type="curve" smooth="yes"/>
      <point x="290" y="550" type="line"/>
      <point x="197" y="180" type="line" smooth="yes"/>
      <point x="179" y="111"/>
      <point x="264" y="45"/>
      <point x="343" y="59" type="curve"/>
      <point x="334" y="117"/>
      <point x="335" y="132"/>
      <point x="353" y="201" type="curve" smooth="yes"/>
      <point x="422" y="478" type="line" smooth="yes"/>
      <point x="427" y="498"/>
      <point x="427" y="507"/>
    </contour>
    <contour>
      <point x="540" y="169" type="curve"/>
      <point x="536" y="169" type="line"/>
      <point x="480" y="147"/>
      <point x="433" y="135"/>
      <point x="365" y="135" type="curve"/>
      <point x="297" y="135"/>
      <point x="267" y="157"/>
      <point x="266" y="223" type="curve"/>
      <point x="217" y="208"/>
      <point x="201" y="196"/>
      <point x="197" y="180" type="curve" smooth="yes"/>
      <point x="175" y="96"/>
      <point x="230" y="-10"/>
      <point x="352" y="-10" type="curve" smooth="yes"/>
      <point x="361" y="-10" type="line" smooth="yes"/>
      <point x="427" y="-10"/>
      <point x="463" y="10"/>
      <point x="475" y="20" type="curve" smooth="yes"/>
      <point x="498" y="38"/>
      <point x="520" y="63"/>
      <point x="534" y="123" type="curve"/>
      <point x="538" y="140"/>
      <point x="540" y="156"/>
    </contour>
    <contour>
      <point x="473" y="625" type="curve"/>
      <point x="494" y="708" type="line" smooth="yes"/>
      <point x="508" y="762"/>
      <point x="461" y="770"/>
      <point x="400" y="770" type="curve" smooth="yes"/>
      <point x="377" y="770"/>
      <point x="346" y="768"/>
      <point x="320" y="764" type="curve"/>
      <point x="299" y="681" type="line" smooth="yes"/>
      <point x="286" y="627"/>
      <point x="333" y="619"/>
      <point x="394" y="619" type="curve" smooth="yes"/>
      <point x="417" y="619"/>
      <point x="447" y="621"/>
    </contour>
  </outline>
</glyph>
<glyph name="t" format="1">
  <advance width="600"/>
  <unicode hex="0074"/>
  <outline>
    <contour>
      <point x="282" y="700" type="curve"/>
      <point x="148" y="163" type="line" smooth="yes"/>
      <point x="127" y="79"/>
      <point x="197" y="24"/>
      <point x="302" y="34" type="curve"/>
      <point x="286" y="89"/>
      <point x="288" y="125"/>
      <point x="301" y="175" type="curve" smooth="yes"/>
      <point x="418" y="644" type="line" smooth="yes"/>
      <point x="432" y="698"/>
      <point x="393" y="706"/>
      <point x="342" y="706" type="curve" smooth="yes"/>
      <point x="319" y="706"/>
      <point x="298" y="704"/>
    </contour>
    <contour>
      <point x="515" y="186" type="curve"/>
      <point x="511" y="186" type="line"/>
      <point x="463" y="152"/>
      <point x="416" y="138"/>
      <point x="352" y="138" type="curve" smooth="yes"/>
      <point x="288" y="138"/>
      <point x="233" y="155"/>
      <point x="209" y="202" type="curve"/>
      <point x="170" y="196"/>
      <point x="153" y="183"/>
      <point x="148" y="163" type="curve" smooth="yes"/>
      <point x="122" y="59"/>
      <point x="199" y="-12"/>
      <point x="313" y="-12" type="curve" smooth="yes"/>
      <point x="323" y="-12" type="line" smooth="yes"/>
      <point x="391" y="-12"/>
      <point x="433" y="6"/>
      <point x="460" y="27" type="curve" smooth="yes"/>
      <point x="484" y="46"/>
      <point x="502" y="73"/>
      <point x="513" y="123" type="curve" smooth="yes"/>
      <point x="517" y="141"/>
      <point x="518" y="161"/>
    </contour>
    <contour>
      <point x="108" y="540" type="line"/>
      <point x="107" y="534"/>
      <point x="105" y="528"/>
      <point x="103" y="521" type="curve" smooth="yes"/>
      <point x="91" y="470"/>
      <point x="92" y="440"/>
      <point x="106" y="422" type="curve" smooth="yes"/>
      <point x="124" y="397"/>
      <point x="156" y="390"/>
      <point x="247" y="390" type="curve" smooth="yes"/>
      <point x="575" y="390" type="line"/>
      <point x="583" y="407"/>
      <point x="592" y="430"/>
      <point x="597" y="453" type="curve" smooth="yes"/>
      <point x="614" y="519"/>
      <point x="602" y="540"/>
      <point x="546" y="540" type="curve" smooth="yes"/>
    </contour>
    <contour>
      <point x="577" y="700" type="move" name="caronslovak"/>
    </contour>
    <contour>
      <point x="308" y="-1" type="move" name="bottom"/>
    </contour>
  </outline>
</glyph>
<glyph name="braceleft" format="1">
  <advance width="600"/>
  <unicode hex="007B"/>
  <outline>
    <contour>
      <point x="528" y="620" type="curve" smooth="yes"/>
      <point x="558" y="620"/>
      <point x="584" y="617"/>
      <point x="599" y="612" type="curve"/>
      <point x="603" y="612" type="line"/>
      <point x="611" y="628"/>
      <point x="616" y="641"/>
      <point x="622" y="664" type="curve"/>
      <point x="636" y="721"/>
      <point x="612" y="770"/>
      <point x="573" y="770" type="curve" smooth="yes"/>
      <point x="569" y="770" type="line" smooth="yes"/>
      <point x="447" y="770"/>
      <point x="344" y="720"/>
      <point x="326" y="648" type="curve" smooth="yes"/>
      <point x="325" y="645" type="line" smooth="yes"/>
      <point x="316" y="608"/>
      <point x="344" y="575"/>
      <point x="385" y="571" type="curve"/>
      <point x="430" y="608"/>
      <point x="476" y="620"/>
    </contour>
    <contour>
      <point x="442" y="424" type="curve" smooth="yes"/>
      <point x="469" y="534"/>
      <point x="417" y="587"/>
      <point x="428" y="628" type="curve" smooth="yes"/>
      <point x="433" y="648"/>
      <point x="441" y="664"/>
      <point x="456" y="683" type="curve"/>
      <point x="399" y="700"/>
      <point x="336" y="690"/>
      <point x="325" y="645" type="curve" smooth="yes"/>
      <point x="324" y="640" type="line" smooth="yes"/>
      <point x="312" y="594"/>
      <point x="329" y="536"/>
      <point x="309" y="458" type="curve" smooth="yes"/>
      <point x="293" y="394"/>
      <point x="244" y="368"/>
      <point x="140" y="368" type="curve" smooth="yes"/>
      <point x="133" y="368" type="line"/>
      <point x="130" y="357" type="line" smooth="yes"/>
      <point x="121" y="322"/>
      <point x="121" y="284"/>
      <point x="165" y="284" type="curve" smooth="yes"/>
      <point x="189" y="284" type="line" smooth="yes"/>
      <point x="307" y="284"/>
      <point x="421" y="342"/>
    </contour>
    <contour>
      <point x="379" y="175" type="curve" smooth="yes"/>
      <point x="402" y="267"/>
      <point x="321" y="313"/>
      <point x="200" y="313" type="curve" smooth="yes"/>
      <point x="149" y="313"/>
      <point x="141" y="340"/>
      <point x="131" y="362" type="curve"/>
      <point x="129" y="354" type="line" smooth="yes"/>
      <point x="112" y="287"/>
      <point x="123" y="231"/>
      <point x="160" y="231" type="curve" smooth="yes"/>
      <point x="163" y="231" type="line" smooth="yes"/>
      <point x="211" y="231"/>
      <point x="245" y="204"/>
      <point x="230" y="141" type="curve" smooth="yes"/>
      <point x="210" y="63"/>
      <point x="164" y="1"/>
      <point x="152" y="-45" type="curve" smooth="yes"/>
      <point x="151" y="-50" type="line" smooth="yes"/>
      <point x="140" y="-95"/>
      <point x="197" y="-105"/>
      <point x="263" y="-88" type="curve"/>
      <point x="257" y="-69"/>
      <point x="257" y="-53"/>
      <point x="262" y="-33" type="curve" smooth="yes"/>
      <point x="272" y="8"/>
      <point x="353" y="71"/>
    </contour>
    <contour>
      <point x="345" y="-21" type="curve" smooth="yes"/>
      <point x="306" y="-21"/>
      <point x="267" y="-10"/>
      <point x="247" y="17" type="curve"/>
      <point x="198" y="10"/>
      <point x="157" y="-24"/>
      <point x="152" y="-47" type="curve" smooth="yes"/>
      <point x="150" y="-52" type="line" smooth="yes"/>
      <point x="133" y="-123"/>
      <point x="177" y="-172"/>
      <point x="324" y="-172" type="curve" smooth="yes"/>
      <point x="329" y="-172" type="line" smooth="yes"/>
      <point x="378" y="-172"/>
      <point x="425" y="-111"/>
      <point x="448" y="-16" type="curve"/>
      <point x="450" y="-8" type="line"/>
      <point x="446" y="-8" type="line"/>
      <point x="409" y="-17"/>
      <point x="385" y="-21"/>
    </contour>
  </outline>
</glyph>
<glyph name="bar" format="1">
  <advance width="600"/>
  <unicode hex="007C"/>
  <outline>
    <contour>
      <point x="329" y="758" type="curve"/>
      <point x="329" y="722"/>
      <point x="324" y="685"/>
      <point x="314" y="645" type="curve" smooth="yes"/>
      <point x="128" y="-97" type="line" smooth="yes"/>
      <point x="117" y="-142"/>
      <point x="152" y="-164"/>
      <point x="234" y="-164" type="curve" smooth="yes"/>
      <point x="251" y="-164"/>
      <point x="264" y="-163"/>
      <point x="272" y="-161" type="curve"/>
      <point x="486" y="695" type="line" smooth="yes"/>
      <point x="493" y="720"/>
      <point x="492" y="732"/>
      <point x="483" y="743" type="curve" smooth="yes"/>
      <point x="471" y="759"/>
      <point x="448" y="765"/>
      <point x="398" y="765" type="curve" smooth="yes"/>
      <point x="373" y="765"/>
      <point x="353" y="763"/>
    </contour>
  </outline>
</glyph>
<glyph name="braceright" format="1">
  <advance width="600"/>
  <unicode hex="007D"/>
  <outline>
    <contour>
      <point x="87" y="-22" type="curve" smooth="yes"/>
      <point x="57" y="-22"/>
      <point x="31" y="-19"/>
      <point x="16" y="-14" type="curve"/>
      <point x="12" y="-14" type="line"/>
      <point x="4" y="-30"/>
      <point x="-1" y="-43"/>
      <point x="-7" y="-66" type="curve"/>
      <point x="-21" y="-123"/>
      <point x="2" y="-172"/>
      <point x="41" y="-172" type="curve" smooth="yes"/>
      <point x="45" y="-172" type="line" smooth="yes"/>
      <point x="167" y="-172"/>
      <point x="271" y="-122"/>
      <point x="289" y="-50" type="curve" smooth="yes"/>
      <point x="290" y="-47" type="line" smooth="yes"/>
      <point x="299" y="-10"/>
      <point x="270" y="23"/>
      <point x="229" y="27" type="curve"/>
      <point x="185" y="-10"/>
      <point x="139" y="-22"/>
    </contour>
    <contour>
      <point x="173" y="174" type="curve" smooth="yes"/>
      <point x="145" y="64"/>
      <point x="197" y="11"/>
      <point x="187" y="-30" type="curve" smooth="yes"/>
      <point x="182" y="-50"/>
      <point x="174" y="-66"/>
      <point x="158" y="-85" type="curve"/>
      <point x="216" y="-102"/>
      <point x="278" y="-92"/>
      <point x="290" y="-47" type="curve" smooth="yes"/>
      <point x="291" y="-42" type="line" smooth="yes"/>
      <point x="302" y="4"/>
      <point x="286" y="62"/>
      <point x="305" y="140" type="curve" smooth="yes"/>
      <point x="321" y="204"/>
      <point x="371" y="230"/>
      <point x="475" y="230" type="curve" smooth="yes"/>
      <point x="482" y="230" type="line"/>
      <point x="485" y="241" type="line" smooth="yes"/>
      <point x="494" y="276"/>
      <point x="494" y="314"/>
      <point x="450" y="314" type="curve" smooth="yes"/>
      <point x="426" y="314" type="line" smooth="yes"/>
      <point x="308" y="314"/>
      <point x="193" y="256"/>
    </contour>
    <contour>
      <point x="235" y="423" type="curve" smooth="yes"/>
      <point x="212" y="331"/>
      <point x="294" y="285"/>
      <point x="415" y="285" type="curve" smooth="yes"/>
      <point x="466" y="285"/>
      <point x="474" y="258"/>
      <point x="483" y="236" type="curve"/>
      <point x="485" y="244" type="line" smooth="yes"/>
      <point x="502" y="311"/>
      <point x="491" y="367"/>
      <point x="454" y="367" type="curve" smooth="yes"/>
      <point x="451" y="367" type="line" smooth="yes"/>
      <point x="403" y="367"/>
      <point x="369" y="394"/>
      <point x="385" y="457" type="curve" smooth="yes"/>
      <point x="404" y="535"/>
      <point x="451" y="597"/>
      <point x="462" y="643" type="curve" smooth="yes"/>
      <point x="464" y="648" type="line" smooth="yes"/>
      <point x="475" y="693"/>
      <point x="417" y="703"/>
      <point x="351" y="686" type="curve"/>
      <point x="357" y="667"/>
      <point x="357" y="651"/>
      <point x="352" y="631" type="curve" smooth="yes"/>
      <point x="342" y="590"/>
      <point x="261" y="527"/>
    </contour>
    <contour>
      <point x="269" y="619" type="curve" smooth="yes"/>
      <point x="308" y="619"/>
      <point x="348" y="608"/>
      <point x="368" y="581" type="curve"/>
      <point x="417" y="588"/>
      <point x="457" y="622"/>
      <point x="463" y="645" type="curve" smooth="yes"/>
      <point x="464" y="650" type="line" smooth="yes"/>
      <point x="482" y="721"/>
      <point x="437" y="770"/>
      <point x="290" y="770" type="curve" smooth="yes"/>
      <point x="285" y="770" type="line" smooth="yes"/>
      <point x="236" y="770"/>
      <point x="190" y="709"/>
      <point x="166" y="614" type="curve"/>
      <point x="164" y="606" type="line"/>
      <point x="168" y="606" type="line"/>
      <point x="205" y="615"/>
      <point x="229" y="619"/>
    </contour>
  </outline>
</glyph>
<glyph name="asciitilde" format="1">
  <advance width="600"/>
  <unicode hex="007E"/>
  <outline>
    <contour>
      <point x="433" y="325" type="curve" smooth="yes"/>
      <point x="346" y="325"/>
      <point x="297" y="450"/>
      <point x="209" y="450" type="curve" smooth="yes"/>
      <point x="156" y="450"/>
      <point x="118" y="422"/>
      <point x="90" y="378" type="curve" smooth="yes"/>
      <point x="79" y="360"/>
      <point x="61" y="327"/>
      <point x="50" y="280" type="curve" smooth="yes"/>
      <point x="45" y="262"/>
      <point x="40" y="234"/>
      <point x="42" y="216" type="curve"/>
      <point x="46" y="216" type="line"/>
      <point x="99" y="259"/>
      <point x="133" y="275"/>
      <point x="182" y="275" type="curve" smooth="yes"/>
      <point x="269" y="275"/>
      <point x="318" y="150"/>
      <point x="406" y="150" type="curve" smooth="yes"/>
      <point x="459" y="150"/>
      <point x="497" y="178"/>
      <point x="525" y="222" type="curve" smooth="yes"/>
      <point x="536" y="240"/>
      <point x="554" y="273"/>
      <point x="566" y="320" type="curve" smooth="yes"/>
      <point x="570" y="338"/>
      <point x="575" y="366"/>
      <point x="573" y="384" type="curve"/>
      <point x="569" y="384" type="line"/>
      <point x="516" y="341"/>
      <point x="482" y="325"/>
    </contour>
  </outline>
</glyph>
<glyph name="exclamdown" format="1">
  <advance width="600"/>
  <unicode hex="00A1"/>
  <outline>
    <contour>
      <point x="234" y="245" type="line"/>
      <point x="201" y="180"/>
      <point x="160" y="72"/>
      <point x="144" y="6" type="curve"/>
      <point x="116" y="-106" type="line" smooth="yes"/>
      <point x="104" y="-154"/>
      <point x="155" y="-175"/>
      <point x="225" y="-175" type="curve" smooth="yes"/>
      <point x="250" y="-175"/>
      <point x="269" y="-174"/>
      <point x="293" y="-168" type="curve"/>
      <point x="293" y="-132"/>
      <point x="299" y="-95"/>
      <point x="309" y="-55" type="curve" smooth="yes"/>
      <point x="322" y="0" type="line"/>
      <point x="342" y="79"/>
      <point x="357" y="192"/>
      <point x="341" y="214" type="curve" smooth="yes"/>
      <point x="327" y="233"/>
      <point x="297" y="245"/>
      <point x="249" y="245" type="curve"/>
    </contour>
    <contour>
      <point x="264" y="540" type="curve"/>
      <point x="229" y="401" type="line" smooth="yes"/>
      <point x="213" y="338"/>
      <point x="280" y="329"/>
      <point x="341" y="329" type="curve" smooth="yes"/>
      <point x="364" y="329"/>
      <point x="394" y="331"/>
      <point x="420" y="335" type="curve"/>
      <point x="455" y="474" type="line" smooth="yes"/>
      <point x="471" y="537"/>
      <point x="404" y="546"/>
      <point x="343" y="546" type="curve" smooth="yes"/>
      <point x="320" y="546"/>
      <point x="290" y="544"/>
    </contour>
  </outline>
</glyph>
<glyph name="cent" format="1">
  <advance width="600"/>
  <unicode hex="00A2"/>
  <outline>
    <contour>
      <point x="403" y="373" type="line"/>
      <point x="550" y="674" type="line" smooth="yes"/>
      <point x="585" y="745"/>
      <point x="566" y="791"/>
      <point x="491" y="791" type="curve" smooth="yes"/>
      <point x="476" y="791"/>
      <point x="449" y="787"/>
      <point x="431" y="781" type="curve"/>
      <point x="435" y="752"/>
      <point x="434" y="724"/>
      <point x="423" y="681" type="curve"/>
      <point x="358" y="422" type="line" smooth="yes"/>
      <point x="350" y="391"/>
      <point x="375" y="373"/>
      <point x="399" y="373" type="curve" smooth="yes"/>
    </contour>
    <contour>
      <point x="334" y="321" type="line"/>
      <point x="186" y="20" type="line" smooth="yes"/>
      <point x="152" y="-51"/>
      <point x="170" y="-97"/>
      <point x="245" y="-97" type="curve" smooth="yes"/>
      <point x="260" y="-97"/>
      <point x="287" y="-93"/>
      <point x="306" y="-87" type="curve"/>
      <point x="302" y="-58"/>
      <point x="303" y="-30"/>
      <point x="314" y="13" type="curve"/>
      <point x="379" y="272" type="line" smooth="yes"/>
      <point x="386" y="303"/>
      <point x="362" y="321"/>
      <point x="338" y="321" type="curve" smooth="yes"/>
    </contour>
    <contour>
      <point x="451" y="632" type="curve" smooth="yes"/>
      <point x="267" y="632"/>
      <point x="110" y="506"/>
      <point x="64" y="321" type="curve" smooth="yes"/>
      <point x="61" y="311" type="line" smooth="yes"/>
      <point x="26" y="171"/>
      <point x="132" y="68"/>
      <point x="270" y="68" type="curve" smooth="yes"/>
      <point x="295" y="68"/>
      <point x="307" y="85"/>
      <point x="318" y="126" type="curve"/>
      <point x="197" y="187"/>
      <point x="197" y="255"/>
      <point x="212" y="314" type="curve" smooth="yes"/>
      <point x="214" y="322" type="line" smooth="yes"/>
      <point x="237" y="413"/>
      <point x="315" y="478"/>
      <point x="402" y="478" type="curve" smooth="yes"/>
      <point x="471" y="478"/>
      <point x="506" y="461"/>
      <point x="547" y="417" type="curve"/>
      <point x="551" y="417" type="line"/>
      <point x="571" y="449"/>
      <point x="583" y="476"/>
      <point x="591" y="511" type="curve" smooth="yes"/>
      <point x="602" y="555"/>
      <point x="600" y="573"/>
      <point x="586" y="592" type="curve" smooth="yes"/>
      <point x="569" y="614"/>
      <point x="523" y="632"/>
    </contour>
    <contour>
      <point x="174" y="322" type="curve"/>
      <point x="74" y="220"/>
      <point x="135" y="68"/>
      <point x="270" y="68" type="curve" smooth="yes"/>
      <point x="381" y="68"/>
      <point x="432" y="88"/>
      <point x="463" y="113" type="curve" smooth="yes"/>
      <point x="488" y="133"/>
      <point x="517" y="181"/>
      <point x="526" y="220" type="curve"/>
      <point x="532" y="242"/>
      <point x="534" y="255"/>
      <point x="535" y="270" type="curve"/>
      <point x="531" y="270" type="line"/>
      <point x="463" y="231"/>
      <point x="403" y="213"/>
      <point x="318" y="213" type="curve" smooth="yes"/>
      <point x="229" y="213"/>
      <point x="200" y="235"/>
    </contour>
  </outline>
</glyph>
<glyph name="sterling" format="1">
  <advance width="600"/>
  <unicode hex="00A3"/>
  <outline>
    <contour>
      <point x="418" y="570" type="curve" smooth="yes"/>
      <point x="500" y="570"/>
      <point x="556" y="560"/>
      <point x="598" y="508" type="curve"/>
      <point x="602" y="508" type="line"/>
      <point x="613" y="530"/>
      <point x="620" y="548"/>
      <point x="627" y="576" type="curve" smooth="yes"/>
      <point x="641" y="633"/>
      <point x="638" y="657"/>
      <point x="618" y="683" type="curve" smooth="yes"/>
      <point x="600" y="707"/>
      <point x="543" y="720"/>
      <point x="455" y="720" type="curve" smooth="yes"/>
      <point x="285" y="720"/>
      <point x="175" y="640"/>
      <point x="150" y="541" type="curve" smooth="yes"/>
      <point x="146" y="526" type="line" smooth="yes"/>
      <point x="138" y="495"/>
      <point x="181" y="482"/>
      <point x="269" y="477" type="curve"/>
      <point x="284" y="537"/>
      <point x="332" y="570"/>
    </contour>
    <contour>
      <point x="146" y="526" type="curve" smooth="yes"/>
      <point x="118" y="413"/>
      <point x="182" y="323"/>
      <point x="154" y="209" type="curve" smooth="yes"/>
      <point x="143" y="166"/>
      <point x="95" y="133"/>
      <point x="24" y="133" type="curve" smooth="yes"/>
      <point x="22" y="133"/>
      <point x="20" y="133"/>
      <point x="18" y="133" type="curve"/>
      <point x="14" y="133" type="line"/>
      <point x="5" y="113"/>
      <point x="-1" y="98"/>
      <point x="-7" y="75" type="curve" smooth="yes"/>
      <point x="-22" y="13"/>
      <point x="-14" y="-20"/>
      <point x="29" y="-20" type="curve" smooth="yes"/>
      <point x="37" y="-20" type="line" smooth="yes"/>
      <point x="138" y="-20"/>
      <point x="252" y="53"/>
      <point x="283" y="178" type="curve" smooth="yes"/>
      <point x="310" y="287"/>
      <point x="270" y="390"/>
      <point x="297" y="499" type="curve" smooth="yes"/>
      <point x="308" y="540"/>
      <point x="325" y="575"/>
      <point x="368" y="618" type="curve"/>
      <point x="242" y="618"/>
      <point x="161" y="584"/>
    </contour>
    <contour>
      <point x="159" y="92" type="curve"/>
      <point x="233" y="9"/>
      <point x="297" y="-20"/>
      <point x="401" y="-20" type="curve" smooth="yes"/>
      <point x="406" y="-20" type="line" smooth="yes"/>
      <point x="467" y="-20"/>
      <point x="498" y="13"/>
      <point x="518" y="96" type="curve"/>
      <point x="526" y="125"/>
      <point x="529" y="151"/>
      <point x="530" y="171" type="curve"/>
      <point x="526" y="171" type="line"/>
      <point x="491" y="151"/>
      <point x="459" y="141"/>
      <point x="409" y="141" type="curve" smooth="yes"/>
      <point x="339" y="141"/>
      <point x="286" y="148"/>
      <point x="201" y="188" type="curve"/>
      <point x="157" y="148"/>
      <point x="145" y="109"/>
    </contour>
    <contour>
      <point x="83" y="400" type="line"/>
      <point x="81" y="394"/>
      <point x="80" y="388"/>
      <point x="78" y="381" type="curve" smooth="yes"/>
      <point x="63" y="322"/>
      <point x="63" y="288"/>
      <point x="76" y="270" type="curve" smooth="yes"/>
      <point x="87" y="255"/>
      <point x="106" y="250"/>
      <point x="152" y="250" type="curve" smooth="yes"/>
      <point x="460" y="250" type="line"/>
      <point x="469" y="271"/>
      <point x="478" y="294"/>
      <point x="483" y="313" type="curve" smooth="yes"/>
      <point x="499" y="379"/>
      <point x="488" y="400"/>
      <point x="432" y="400" type="curve" smooth="yes"/>
    </contour>
  </outline>
</glyph>
<glyph name="yen" format="1">
  <advance width="600"/>
  <unicode hex="00A5"/>
  <outline>
    <contour>
      <point x="45" y="430" type="line"/>
      <point x="44" y="424"/>
      <point x="42" y="418"/>
      <point x="40" y="411" type="curve" smooth="yes"/>
      <point x="28" y="363"/>
      <point x="32" y="336"/>
      <point x="44" y="320" type="curve" smooth="yes"/>
      <point x="55" y="305"/>
      <point x="74" y="300"/>
      <point x="120" y="300" type="curve"/>
      <point x="203" y="300" type="line"/>
      <point x="212" y="321"/>
      <point x="221" y="344"/>
      <point x="225" y="363" type="curve" smooth="yes"/>
      <point x="238" y="413"/>
      <point x="225" y="430"/>
      <point x="169" y="430" type="curve"/>
    </contour>
    <contour>
      <point x="403" y="430" type="line"/>
      <point x="392" y="409"/>
      <point x="384" y="393"/>
      <point x="378" y="368" type="curve" smooth="yes"/>
      <point x="368" y="329"/>
      <point x="392" y="300"/>
      <point x="423" y="300" type="curve"/>
      <point x="596" y="300" type="line"/>
      <point x="605" y="321"/>
      <point x="614" y="344"/>
      <point x="618" y="363" type="curve" smooth="yes"/>
      <point x="631" y="413"/>
      <point x="618" y="430"/>
      <point x="562" y="430" type="curve"/>
    </contour>
    <contour>
      <point x="538" y="95" type="line"/>
      <point x="542" y="104"/>
      <point x="546" y="116"/>
      <point x="549" y="127" type="curve" smooth="yes"/>
      <point x="559" y="166"/>
      <point x="555" y="189"/>
      <point x="543" y="205" type="curve" smooth="yes"/>
      <point x="531" y="220"/>
      <point x="513" y="225"/>
      <point x="467" y="225" type="curve"/>
      <point x="11" y="225" type="line"/>
      <point x="1" y="204"/>
      <point x="-7" y="181"/>
      <point x="-12" y="162" type="curve" smooth="yes"/>
      <point x="-25" y="111"/>
      <point x="-12" y="95"/>
      <point x="44" y="95" type="curve"/>
    </contour>
    <contour>
      <point x="158" y="710" type="line"/>
      <point x="121" y="475"/>
      <point x="130" y="326"/>
      <point x="197" y="237" type="curve"/>
      <point x="228" y="195"/>
      <point x="261" y="190"/>
      <point x="290" y="190" type="curve"/>
      <point x="338" y="190"/>
      <point x="369" y="204"/>
      <point x="388" y="281" type="curve"/>
      <point x="298" y="341"/>
      <point x="279" y="432"/>
      <point x="312" y="660" type="curve"/>
      <point x="316" y="688"/>
      <point x="248" y="710"/>
      <point x="182" y="710" type="curve" smooth="yes"/>
    </contour>
    <contour>
      <point x="506" y="710" type="line"/>
      <point x="424" y="472"/>
      <point x="374" y="383"/>
      <point x="255" y="302" type="curve"/>
      <point x="224" y="281"/>
      <point x="230" y="190"/>
      <point x="290" y="190" type="curve"/>
      <point x="330" y="190" type="line"/>
      <point x="449" y="273"/>
      <point x="572" y="442"/>
      <point x="639" y="636" type="curve"/>
      <point x="653" y="679"/>
      <point x="594" y="710"/>
      <point x="530" y="710" type="curve"/>
    </contour>
    <contour>
      <point x="325" y="-3" type="curve"/>
      <point x="325" y="33"/>
      <point x="330" y="70"/>
      <point x="340" y="110" type="curve" smooth="yes"/>
      <point x="376" y="253" type="line" smooth="yes"/>
      <point x="385" y="291"/>
      <point x="325" y="320"/>
      <point x="233" y="320" type="curve"/>
      <point x="167" y="60" type="line" smooth="yes"/>
      <point x="161" y="35"/>
      <point x="162" y="23"/>
      <point x="170" y="12" type="curve" smooth="yes"/>
      <point x="182" y="-4"/>
      <point x="206" y="-10"/>
      <point x="256" y="-10" type="curve" smooth="yes"/>
      <point x="281" y="-10"/>
      <point x="300" y="-8"/>
    </contour>
  </outline>
</glyph>
<glyph name="brokenbar" format="1">
  <advance width="600"/>
  <unicode hex="00A6"/>
  <outline>
    <contour>
      <point x="329" y="758" type="curve"/>
      <point x="329" y="722"/>
      <point x="324" y="685"/>
      <point x="314" y="645" type="curve" smooth="yes"/>
      <point x="261" y="433" type="line" smooth="yes"/>
      <point x="250" y="388"/>
      <point x="285" y="366"/>
      <point x="367" y="366" type="curve" smooth="yes"/>
      <point x="384" y="366"/>
      <point x="396" y="367"/>
      <point x="405" y="369" type="curve"/>
      <point x="486" y="695" type="line" smooth="yes"/>
      <point x="493" y="720"/>
      <point x="492" y="732"/>
      <point x="483" y="743" type="curve" smooth="yes"/>
      <point x="471" y="759"/>
      <point x="448" y="765"/>
      <point x="398" y="765" type="curve" smooth="yes"/>
      <point x="373" y="765"/>
      <point x="353" y="763"/>
    </contour>
    <contour>
      <point x="209" y="228" type="curve"/>
      <point x="128" y="-97" type="line"/>
      <point x="117" y="-142"/>
      <point x="152" y="-164"/>
      <point x="234" y="-164" type="curve" smooth="yes"/>
      <point x="251" y="-164"/>
      <point x="264" y="-163"/>
      <point x="272" y="-161" type="curve"/>
      <point x="354" y="165" type="line" smooth="yes"/>
      <point x="367" y="217"/>
      <point x="341" y="235"/>
      <point x="270" y="235" type="curve" smooth="yes"/>
      <point x="248" y="235"/>
      <point x="227" y="233"/>
    </contour>
  </outline>
</glyph>
<glyph name="section" format="1">
  <advance width="600"/>
  <unicode hex="00A7"/>
  <outline>
    <contour>
      <point x="488" y="720" type="curve" smooth="yes"/>
      <point x="322" y="720"/>
      <point x="148" y="581"/>
      <point x="114" y="447" type="curve" smooth="yes"/>
      <point x="111" y="434" type="line" smooth="yes"/>
      <point x="104" y="407"/>
      <point x="169" y="373"/>
      <point x="255" y="373" type="curve"/>
      <point x="253" y="396"/>
      <point x="258" y="423"/>
      <point x="264" y="445" type="curve" smooth="yes"/>
      <point x="279" y="506"/>
      <point x="382" y="570"/>
      <point x="452" y="570" type="curve" smooth="yes"/>
      <point x="501" y="570"/>
      <point x="521" y="538"/>
      <point x="510" y="492" type="curve"/>
      <point x="557" y="492"/>
      <point x="590" y="528"/>
      <point x="595" y="548" type="curve" smooth="yes"/>
      <point x="610" y="611"/>
      <point x="606" y="642"/>
      <point x="584" y="672" type="curve" smooth="yes"/>
      <point x="562" y="701"/>
      <point x="530" y="720"/>
    </contour>
    <contour>
      <point x="413" y="350" type="curve" smooth="yes"/>
      <point x="328" y="384" type="line" smooth="yes"/>
      <point x="273" y="406"/>
      <point x="257" y="416"/>
      <point x="264" y="445" type="curve" smooth="yes"/>
      <point x="272" y="476"/>
      <point x="280" y="496"/>
      <point x="293" y="517" type="curve"/>
      <point x="206" y="516"/>
      <point x="127" y="496"/>
      <point x="111" y="434" type="curve" smooth="yes"/>
      <point x="96" y="374"/>
      <point x="109" y="319"/>
      <point x="243" y="265" type="curve" smooth="yes"/>
      <point x="322" y="232" type="line" smooth="yes"/>
      <point x="374" y="211"/>
      <point x="386" y="195"/>
      <point x="377" y="157" type="curve" smooth="yes"/>
      <point x="375" y="151" type="line" smooth="yes"/>
      <point x="367" y="119"/>
      <point x="358" y="105"/>
      <point x="337" y="83" type="curve"/>
      <point x="346" y="68"/>
      <point x="369" y="58"/>
      <point x="391" y="58" type="curve" smooth="yes"/>
      <point x="436" y="58"/>
      <point x="506" y="94"/>
      <point x="526" y="174" type="curve" smooth="yes"/>
      <point x="527" y="178" type="line" smooth="yes"/>
      <point x="540" y="230"/>
      <point x="533" y="302"/>
    </contour>
    <contour>
      <point x="356" y="121" type="curve" smooth="yes"/>
      <point x="270" y="155" type="line" smooth="yes"/>
      <point x="216" y="177"/>
      <point x="199" y="187"/>
      <point x="209" y="225" type="curve" smooth="yes"/>
      <point x="210" y="231" type="line" smooth="yes"/>
      <point x="215" y="250"/>
      <point x="231" y="278"/>
      <point x="252" y="299" type="curve"/>
      <point x="237" y="310"/>
      <point x="223" y="314"/>
      <point x="196" y="314" type="curve" smooth="yes"/>
      <point x="129" y="314"/>
      <point x="66" y="255"/>
      <point x="52" y="199" type="curve" smooth="yes"/>
      <point x="50" y="192" type="line" smooth="yes"/>
      <point x="35" y="132"/>
      <point x="52" y="90"/>
      <point x="193" y="33" type="curve" smooth="yes"/>
      <point x="276" y="-1" type="line" smooth="yes"/>
      <point x="332" y="-23"/>
      <point x="337" y="-55"/>
      <point x="320" y="-123" type="curve" smooth="yes"/>
      <point x="319" y="-126"/>
      <point x="318" y="-129"/>
      <point x="317" y="-133" type="curve"/>
      <point x="376" y="-133"/>
      <point x="460" y="-90"/>
      <point x="470" y="-51" type="curve"/>
      <point x="483" y="1"/>
      <point x="476" y="73"/>
    </contour>
    <contour>
      <point x="170" y="-249" type="curve" smooth="yes"/>
      <point x="343" y="-249"/>
      <point x="438" y="-178"/>
      <point x="466" y="-67" type="curve" smooth="yes"/>
      <point x="470" y="-51" type="line" smooth="yes"/>
      <point x="473" y="-37"/>
      <point x="429" y="-6"/>
      <point x="392" y="-4" type="curve"/>
      <point x="391" y="-8"/>
      <point x="391" y="-10"/>
      <point x="390" y="-14" type="curve" smooth="yes"/>
      <point x="377" y="-65"/>
      <point x="299" y="-99"/>
      <point x="208" y="-99" type="curve" smooth="yes"/>
      <point x="103" y="-99"/>
      <point x="35" y="-68"/>
      <point x="-9" y="-11" type="curve"/>
      <point x="-13" y="-11" type="line"/>
      <point x="-21" y="-26"/>
      <point x="-29" y="-47"/>
      <point x="-36" y="-73" type="curve" smooth="yes"/>
      <point x="-50" y="-130"/>
      <point x="-45" y="-172"/>
      <point x="-29" y="-193" type="curve" smooth="yes"/>
      <point x="-5" y="-225"/>
      <point x="75" y="-249"/>
    </contour>
    <contour>
      <point x="567" y="436" type="curve"/>
      <point x="595" y="548" type="line" smooth="yes"/>
      <point x="612" y="617"/>
      <point x="571" y="638"/>
      <point x="497" y="638" type="curve"/>
      <point x="467" y="593"/>
      <point x="440" y="528"/>
      <point x="432" y="497" type="curve" smooth="yes"/>
      <point x="431" y="492" type="line" smooth="yes"/>
      <point x="426" y="474"/>
      <point x="428" y="460"/>
      <point x="434" y="451" type="curve" smooth="yes"/>
      <point x="445" y="437"/>
      <point x="464" y="430"/>
      <point x="507" y="430" type="curve" smooth="yes"/>
      <point x="530" y="430"/>
      <point x="551" y="432"/>
    </contour>
  </outline>
</glyph>
<glyph name="dieresis" format="1">
  <advance width="600"/>
  <unicode hex="00A8"/>
  <outline>
    <contour>
      <point x="354" y="613" type="curve"/>
      <point x="381" y="721" type="line" smooth="yes"/>
      <point x="392" y="765"/>
      <point x="344" y="770"/>
      <point x="301" y="770" type="curve" smooth="yes"/>
      <point x="283" y="770"/>
      <point x="258" y="769"/>
      <point x="236" y="767" type="curve"/>
      <point x="210" y="660" type="line" smooth="yes"/>
      <point x="199" y="616"/>
      <point x="246" y="609"/>
      <point x="288" y="609" type="curve" smooth="yes"/>
      <point x="307" y="609"/>
      <point x="332" y="609"/>
    </contour>
    <contour>
      <point x="574" y="613" type="curve"/>
      <point x="601" y="721" type="line" smooth="yes"/>
      <point x="612" y="765"/>
      <point x="564" y="770"/>
      <point x="521" y="770" type="curve" smooth="yes"/>
      <point x="503" y="770"/>
      <point x="478" y="769"/>
      <point x="456" y="767" type="curve"/>
      <point x="430" y="660" type="line" smooth="yes"/>
      <point x="419" y="616"/>
      <point x="466" y="609"/>
      <point x="508" y="609" type="curve" smooth="yes"/>
      <point x="527" y="609"/>
      <point x="552" y="609"/>
    </contour>
  </outline>
</glyph>
<glyph name="ordfeminine" format="1">
  <advance width="600"/>
  <unicode hex="00AA"/>
  <outline>
    <contour>
      <point x="414" y="760" type="curve" smooth="yes"/>
      <point x="323" y="760"/>
      <point x="283" y="752"/>
      <point x="256" y="731" type="curve" smooth="yes"/>
      <point x="235" y="715"/>
      <point x="222" y="691"/>
      <point x="215" y="661" type="curve" smooth="yes"/>
      <point x="211" y="646"/>
      <point x="209" y="633"/>
      <point x="210" y="620" type="curve"/>
      <point x="214" y="620" type="line"/>
      <point x="265" y="636"/>
      <point x="298" y="641"/>
      <point x="350" y="641" type="curve" smooth="yes"/>
      <point x="431" y="641"/>
      <point x="468" y="611"/>
      <point x="493" y="539" type="curve"/>
      <point x="529" y="539"/>
      <point x="548" y="552"/>
      <point x="556" y="584" type="curve"/>
      <point x="577" y="671"/>
      <point x="535" y="760"/>
    </contour>
    <contour>
      <point x="422" y="659" type="curve"/>
      <point x="437" y="630"/>
      <point x="438" y="616"/>
      <point x="429" y="582" type="curve" smooth="yes"/>
      <point x="410" y="505"/>
      <point x="405" y="485"/>
      <point x="391" y="429" type="curve" smooth="yes"/>
      <point x="373" y="358"/>
      <point x="430" y="332"/>
      <point x="509" y="355" type="curve"/>
      <point x="503" y="368"/>
      <point x="504" y="377"/>
      <point x="509" y="399" type="curve" smooth="yes"/>
      <point x="529" y="476"/>
      <point x="540" y="522"/>
      <point x="556" y="584" type="curve" smooth="yes"/>
      <point x="564" y="617"/>
      <point x="507" y="686"/>
    </contour>
    <contour>
      <point x="570" y="415" type="line"/>
      <point x="567" y="415" type="line"/>
      <point x="566" y="415"/>
      <point x="565" y="415"/>
      <point x="564" y="415" type="curve" smooth="yes"/>
      <point x="538" y="415"/>
      <point x="502" y="427"/>
      <point x="490" y="463" type="curve"/>
      <point x="426" y="463"/>
      <point x="398" y="456"/>
      <point x="391" y="429" type="curve" smooth="yes"/>
      <point x="373" y="358"/>
      <point x="421" y="290"/>
      <point x="490" y="290" type="curve" smooth="yes"/>
      <point x="493" y="290" type="line" smooth="yes"/>
      <point x="525" y="290"/>
      <point x="556" y="359"/>
      <point x="567" y="401" type="curve"/>
    </contour>
    <contour>
      <point x="257" y="434" type="curve" smooth="yes"/>
      <point x="260" y="444" type="line" smooth="yes"/>
      <point x="267" y="474"/>
      <point x="275" y="490"/>
      <point x="292" y="509" type="curve"/>
      <point x="250" y="525"/>
      <point x="141" y="472"/>
      <point x="129" y="427" type="curve" smooth="yes"/>
      <point x="126" y="413" type="line" smooth="yes"/>
      <point x="106" y="332"/>
      <point x="142" y="290"/>
      <point x="225" y="290" type="curve" smooth="yes"/>
      <point x="291" y="290"/>
      <point x="353" y="311"/>
      <point x="405" y="372" type="curve" smooth="yes"/>
      <point x="431" y="403"/>
      <point x="427" y="429"/>
      <point x="420" y="444" type="curve"/>
      <point x="371" y="408"/>
      <point x="328" y="399"/>
      <point x="300" y="399" type="curve" smooth="yes"/>
      <point x="297" y="399" type="line" smooth="yes"/>
      <point x="257" y="399"/>
      <point x="250" y="407"/>
    </contour>
    <contour>
      <point x="457" y="526" type="curve" smooth="yes"/>
      <point x="442" y="545"/>
      <point x="389" y="558"/>
      <point x="295" y="558" type="curve" smooth="yes"/>
      <point x="216" y="558"/>
      <point x="144" y="487"/>
      <point x="129" y="427" type="curve" smooth="yes"/>
      <point x="123" y="402"/>
      <point x="134" y="385"/>
      <point x="160" y="385" type="curve"/>
      <point x="214" y="453"/>
      <point x="267" y="479"/>
      <point x="330" y="479" type="curve" smooth="yes"/>
      <point x="367" y="479"/>
      <point x="418" y="473"/>
      <point x="461" y="462" type="curve"/>
      <point x="469" y="495"/>
      <point x="465" y="516"/>
    </contour>
  </outline>
</glyph>
<glyph name="logicalnot" format="1">
  <advance width="600"/>
  <unicode hex="00AC"/>
  <outline>
    <contour>
      <point x="94" y="455" type="line"/>
      <point x="93" y="449"/>
      <point x="91" y="443"/>
      <point x="90" y="436" type="curve" smooth="yes"/>
      <point x="77" y="385"/>
      <point x="78" y="358"/>
      <point x="92" y="340" type="curve" smooth="yes"/>
      <point x="103" y="325"/>
      <point x="122" y="320"/>
      <point x="168" y="320" type="curve"/>
      <point x="553" y="320" type="line"/>
      <point x="556" y="333" type="line"/>
      <point x="577" y="418"/>
      <point x="566" y="455"/>
      <point x="513" y="455" type="curve"/>
    </contour>
    <contour>
      <point x="507" y="138" type="curve"/>
      <point x="556" y="333" type="line" smooth="yes"/>
      <point x="563" y="363"/>
      <point x="521" y="375"/>
      <point x="435" y="375" type="curve"/>
      <point x="416" y="375" type="line"/>
      <point x="371" y="194" type="line" smooth="yes"/>
      <point x="357" y="140"/>
      <point x="390" y="132"/>
      <point x="447" y="132" type="curve" smooth="yes"/>
      <point x="470" y="132"/>
      <point x="491" y="134"/>
    </contour>
  </outline>
</glyph>
<glyph name="registered" format="1">
  <advance width="600"/>
  <unicode hex="00AE"/>
  <outline>
    <contour>
      <point x="292" y="331" type="curve"/>
      <point x="293" y="355"/>
      <point x="297" y="379"/>
      <point x="304" y="404" type="curve"/>
      <point x="335" y="531" type="line"/>
      <point x="344" y="566"/>
      <point x="323" y="579"/>
      <point x="265" y="579" type="curve"/>
      <point x="211" y="361" type="line" smooth="yes"/>
      <point x="206" y="340"/>
      <point x="220" y="324"/>
      <point x="256" y="324" type="curve" smooth="yes"/>
      <point x="267" y="324"/>
      <point x="279" y="324"/>
    </contour>
    <contour>
      <point x="259" y="630" type="curve"/>
      <point x="253" y="620"/>
      <point x="248" y="609"/>
      <point x="244" y="594" type="curve"/>
      <point x="237" y="566"/>
      <point x="241" y="555"/>
      <point x="251" y="555" type="curve"/>
      <point x="255" y="555"/>
      <point x="261" y="556"/>
      <point x="269" y="558" type="curve" smooth="yes"/>
      <point x="298" y="563"/>
      <point x="339" y="566"/>
      <point x="367" y="566" type="curve" smooth="yes"/>
      <point x="411" y="566"/>
      <point x="429" y="563"/>
      <point x="448" y="549" type="curve"/>
      <point x="489" y="576"/>
      <point x="461" y="641"/>
      <point x="410" y="641" type="curve" smooth="yes"/>
      <point x="369" y="641"/>
      <point x="314" y="638"/>
    </contour>
    <contour>
      <point x="497" y="537" type="curve" smooth="yes"/>
      <point x="500" y="548" type="line" smooth="yes"/>
      <point x="511" y="592"/>
      <point x="491" y="641"/>
      <point x="410" y="641" type="curve"/>
      <point x="385" y="641"/>
      <point x="352" y="620"/>
      <point x="343" y="586" type="curve"/>
      <point x="408" y="586"/>
      <point x="425" y="574"/>
      <point x="418" y="545" type="curve" smooth="yes"/>
      <point x="416" y="539" type="line" smooth="yes"/>
      <point x="409" y="508"/>
      <point x="369" y="489"/>
      <point x="304" y="489" type="curve" smooth="yes"/>
      <point x="287" y="489"/>
      <point x="283" y="489"/>
      <point x="279" y="489" type="curve"/>
      <point x="275" y="481"/>
      <point x="272" y="475"/>
      <point x="268" y="458" type="curve" smooth="yes"/>
      <point x="263" y="438"/>
      <point x="264" y="417"/>
      <point x="287" y="417" type="curve" smooth="yes"/>
      <point x="289" y="417" type="line" smooth="yes"/>
      <point x="384" y="417"/>
      <point x="480" y="468"/>
    </contour>
    <contour>
      <point x="416" y="492" type="line"/>
      <point x="384" y="484"/>
      <point x="339" y="453"/>
      <point x="341" y="438" type="curve" smooth="yes"/>
      <point x="349" y="374" type="line" smooth="yes"/>
      <point x="354" y="344"/>
      <point x="371" y="324"/>
      <point x="400" y="324" type="curve" smooth="yes"/>
      <point x="405" y="324" type="line" smooth="yes"/>
      <point x="429" y="324"/>
      <point x="446" y="339"/>
      <point x="455" y="373" type="curve"/>
      <point x="459" y="388"/>
      <point x="460" y="397"/>
      <point x="459" y="408" type="curve"/>
      <point x="457" y="408" type="line"/>
      <point x="452" y="404"/>
      <point x="446" y="403"/>
      <point x="439" y="403" type="curve"/>
      <point x="430" y="403"/>
      <point x="426" y="406"/>
      <point x="423" y="432" type="curve" smooth="yes"/>
    </contour>
    <contour>
      <point x="423" y="760" type="curve" smooth="yes"/>
      <point x="259" y="760"/>
      <point x="143" y="672"/>
      <point x="99" y="498" type="curve" smooth="yes"/>
      <point x="93" y="473" type="line" smooth="yes"/>
      <point x="47" y="290"/>
      <point x="117" y="202"/>
      <point x="283" y="202" type="curve" smooth="yes"/>
      <point x="315" y="202"/>
      <point x="329" y="223"/>
      <point x="334" y="242" type="curve"/>
      <point x="182" y="242"/>
      <point x="109" y="306"/>
      <point x="147" y="458" type="curve" smooth="yes"/>
      <point x="159" y="504" type="line" smooth="yes"/>
      <point x="195" y="648"/>
      <point x="280" y="705"/>
      <point x="409" y="705" type="curve" smooth="yes"/>
      <point x="461" y="705"/>
      <point x="512" y="691"/>
      <point x="561" y="655" type="curve"/>
      <point x="603" y="708"/>
      <point x="501" y="760"/>
    </contour>
    <contour>
      <point x="283" y="202" type="curve" smooth="yes"/>
      <point x="447" y="202"/>
      <point x="563" y="291"/>
      <point x="607" y="464" type="curve" smooth="yes"/>
      <point x="613" y="489" type="line" smooth="yes"/>
      <point x="659" y="672"/>
      <point x="589" y="760"/>
      <point x="423" y="760" type="curve" smooth="yes"/>
      <point x="391" y="760"/>
      <point x="376" y="739"/>
      <point x="372" y="720" type="curve"/>
      <point x="524" y="720"/>
      <point x="597" y="656"/>
      <point x="559" y="504" type="curve" smooth="yes"/>
      <point x="547" y="458" type="line" smooth="yes"/>
      <point x="511" y="314"/>
      <point x="426" y="257"/>
      <point x="297" y="257" type="curve" smooth="yes"/>
      <point x="245" y="257"/>
      <point x="191" y="271"/>
      <point x="144" y="307" type="curve"/>
      <point x="110" y="251"/>
      <point x="205" y="202"/>
    </contour>
  </outline>
</glyph>
<glyph name="degree" format="1">
  <advance width="600"/>
  <unicode hex="00B0"/>
  <outline>
    <contour>
      <point x="358" y="428" type="curve"/>
      <point x="301" y="428"/>
      <point x="275" y="465"/>
      <point x="290" y="525" type="curve" smooth="yes"/>
      <point x="292" y="533" type="line" smooth="yes"/>
      <point x="305" y="584"/>
      <point x="340" y="612"/>
      <point x="393" y="612" type="curve" smooth="yes"/>
      <point x="420" y="612"/>
      <point x="437" y="605"/>
      <point x="457" y="580" type="curve"/>
      <point x="495" y="636"/>
      <point x="485" y="710"/>
      <point x="412" y="710" type="curve"/>
      <point x="309" y="710"/>
      <point x="217" y="637"/>
      <point x="191" y="533" type="curve" smooth="yes"/>
      <point x="189" y="525" type="line" smooth="yes"/>
      <point x="163" y="423"/>
      <point x="219" y="355"/>
      <point x="317" y="355" type="curve"/>
      <point x="335" y="355"/>
      <point x="346" y="382"/>
    </contour>
    <contour>
      <point x="369" y="627" type="curve"/>
      <point x="426" y="627"/>
      <point x="453" y="594"/>
      <point x="440" y="540" type="curve" smooth="yes"/>
      <point x="438" y="532" type="line" smooth="yes"/>
      <point x="425" y="481"/>
      <point x="390" y="453"/>
      <point x="337" y="453" type="curve" smooth="yes"/>
      <point x="310" y="453"/>
      <point x="293" y="460"/>
      <point x="273" y="485" type="curve"/>
      <point x="235" y="429"/>
      <point x="244" y="355"/>
      <point x="317" y="355" type="curve"/>
      <point x="420" y="355"/>
      <point x="513" y="428"/>
      <point x="539" y="532" type="curve" smooth="yes"/>
      <point x="541" y="540" type="line" smooth="yes"/>
      <point x="566" y="642"/>
      <point x="510" y="710"/>
      <point x="412" y="710" type="curve"/>
      <point x="394" y="710"/>
      <point x="386" y="692"/>
    </contour>
  </outline>
</glyph>
<glyph name="twosuperior" format="1">
  <advance width="600"/>
  <unicode hex="00B2"/>
  <outline>
    <contour>
      <point x="371" y="612" type="curve" smooth="yes"/>
      <point x="421" y="612"/>
      <point x="445" y="600"/>
      <point x="467" y="571" type="curve"/>
      <point x="512" y="584"/>
      <point x="524" y="600"/>
      <point x="527" y="612" type="curve" smooth="yes"/>
      <point x="539" y="662"/>
      <point x="524" y="710"/>
      <point x="408" y="710" type="curve" smooth="yes"/>
      <point x="349" y="710"/>
      <point x="305" y="700"/>
      <point x="282" y="682" type="curve" smooth="yes"/>
      <point x="263" y="667"/>
      <point x="255" y="646"/>
      <point x="249" y="621" type="curve" smooth="yes"/>
      <point x="245" y="604"/>
      <point x="244" y="592"/>
      <point x="244" y="581" type="curve"/>
      <point x="246" y="581" type="line"/>
      <point x="293" y="605"/>
      <point x="327" y="612"/>
    </contour>
    <contour>
      <point x="411" y="635" type="curve"/>
      <point x="414" y="622"/>
      <point x="413" y="614"/>
      <point x="410" y="603" type="curve" smooth="yes"/>
      <point x="408" y="592"/>
      <point x="396" y="586"/>
      <point x="332" y="565" type="curve" smooth="yes"/>
      <point x="233" y="533"/>
      <point x="206" y="483"/>
      <point x="194" y="432" type="curve" smooth="yes"/>
      <point x="189" y="412"/>
      <point x="199" y="414"/>
      <point x="250" y="414" type="curve"/>
      <point x="261" y="458"/>
      <point x="284" y="493"/>
      <point x="373" y="510" type="curve" smooth="yes"/>
      <point x="476" y="530"/>
      <point x="514" y="561"/>
      <point x="526" y="610" type="curve" smooth="yes"/>
      <point x="527" y="612" type="line" smooth="yes"/>
      <point x="533" y="636"/>
      <point x="507" y="650"/>
    </contour>
    <contour>
      <point x="467" y="368" type="line"/>
      <point x="473" y="382"/>
      <point x="479" y="398"/>
      <point x="483" y="413" type="curve" smooth="yes"/>
      <point x="496" y="464"/>
      <point x="485" y="480"/>
      <point x="438" y="480" type="curve" smooth="yes"/>
      <point x="434" y="480" type="line" smooth="yes"/>
      <point x="364" y="480"/>
      <point x="278" y="471"/>
      <point x="194" y="432" type="curve"/>
      <point x="193" y="431"/>
      <point x="193" y="430"/>
      <point x="193" y="429" type="curve" smooth="yes"/>
      <point x="185" y="397"/>
      <point x="196" y="368"/>
      <point x="220" y="368" type="curve" smooth="yes"/>
    </contour>
  </outline>
</glyph>
<glyph name="threesuperior" format="1">
  <advance width="600"/>
  <unicode hex="00B3"/>
  <outline>
    <contour>
      <point x="365" y="619" type="curve" smooth="yes"/>
      <point x="413" y="619"/>
      <point x="431" y="603"/>
      <point x="426" y="582" type="curve" smooth="yes"/>
      <point x="424" y="574"/>
      <point x="422" y="569"/>
      <point x="420" y="564" type="curve"/>
      <point x="454" y="566"/>
      <point x="514" y="603"/>
      <point x="518" y="618" type="curve" smooth="yes"/>
      <point x="520" y="625" type="line" smooth="yes"/>
      <point x="532" y="672"/>
      <point x="492" y="711"/>
      <point x="410" y="711" type="curve"/>
      <point x="363" y="711"/>
      <point x="319" y="700"/>
      <point x="299" y="684" type="curve" smooth="yes"/>
      <point x="277" y="667"/>
      <point x="267" y="648"/>
      <point x="260" y="621" type="curve" smooth="yes"/>
      <point x="256" y="606"/>
      <point x="254" y="595"/>
      <point x="255" y="579" type="curve"/>
      <point x="257" y="579" type="line"/>
      <point x="296" y="610"/>
      <point x="331" y="619"/>
    </contour>
    <contour>
      <point x="324" y="525" type="curve" smooth="yes"/>
      <point x="443" y="525"/>
      <point x="506" y="571"/>
      <point x="518" y="618" type="curve" smooth="yes"/>
      <point x="524" y="642"/>
      <point x="485" y="655"/>
      <point x="455" y="655" type="curve"/>
      <point x="455" y="654"/>
      <point x="455" y="652"/>
      <point x="454" y="650" type="curve" smooth="yes"/>
      <point x="438" y="586"/>
      <point x="388" y="565"/>
      <point x="314" y="565" type="curve"/>
      <point x="310" y="557"/>
      <point x="308" y="552"/>
      <point x="305" y="540" type="curve" smooth="yes"/>
      <point x="302" y="528"/>
      <point x="319" y="525"/>
    </contour>
    <contour>
      <point x="318" y="502" type="curve" smooth="yes"/>
      <point x="373" y="497"/>
      <point x="416" y="472"/>
      <point x="407" y="436" type="curve" smooth="yes"/>
      <point x="406" y="435"/>
      <point x="406" y="433"/>
      <point x="405" y="431" type="curve"/>
      <point x="435" y="431"/>
      <point x="479" y="441"/>
      <point x="481" y="450" type="curve" smooth="yes"/>
      <point x="501" y="531"/>
      <point x="420" y="547"/>
      <point x="309" y="547" type="curve"/>
      <point x="307" y="543"/>
      <point x="305" y="543"/>
      <point x="305" y="540" type="curve" smooth="yes"/>
      <point x="298" y="513"/>
      <point x="303" y="504"/>
    </contour>
    <contour>
      <point x="335" y="448" type="curve" smooth="yes"/>
      <point x="286" y="448"/>
      <point x="252" y="456"/>
      <point x="227" y="486" type="curve"/>
      <point x="225" y="486" type="line"/>
      <point x="216" y="473"/>
      <point x="211" y="461"/>
      <point x="206" y="442" type="curve" smooth="yes"/>
      <point x="199" y="412"/>
      <point x="199" y="397"/>
      <point x="209" y="383" type="curve" smooth="yes"/>
      <point x="222" y="367"/>
      <point x="269" y="357"/>
      <point x="322" y="357" type="curve" smooth="yes"/>
      <point x="407" y="357"/>
      <point x="467" y="395"/>
      <point x="479" y="442" type="curve" smooth="yes"/>
      <point x="481" y="450" type="line" smooth="yes"/>
      <point x="488" y="476"/>
      <point x="460" y="486"/>
      <point x="411" y="488" type="curve"/>
      <point x="410" y="483"/>
      <point x="410" y="477"/>
      <point x="408" y="471" type="curve" smooth="yes"/>
      <point x="405" y="456"/>
      <point x="382" y="448"/>
    </contour>
  </outline>
</glyph>
<glyph name="acute" format="1">
  <advance width="600"/>
  <unicode hex="00B4"/>
  <outline>
    <contour>
      <point x="385" y="611" type="curve" smooth="yes"/>
      <point x="417" y="611"/>
      <point x="442" y="618"/>
      <point x="459" y="627" type="curve" smooth="yes"/>
      <point x="515" y="655"/>
      <point x="542" y="683"/>
      <point x="581" y="747" type="curve"/>
      <point x="591" y="763"/>
      <point x="592" y="782"/>
      <point x="577" y="790" type="curve" smooth="yes"/>
      <point x="545" y="808"/>
      <point x="514" y="814"/>
      <point x="468" y="814" type="curve"/>
      <point x="426" y="730"/>
      <point x="387" y="692"/>
      <point x="309" y="627" type="curve"/>
      <point x="338" y="614"/>
      <point x="356" y="611"/>
    </contour>
  </outline>
</glyph>
<glyph name="uni00B5" format="1">
  <advance width="600"/>
  <unicode hex="00B5"/>
  <outline>
    <contour>
      <point x="124" y="541" type="curve"/>
      <point x="125" y="482"/>
      <point x="121" y="446"/>
      <point x="105" y="382" type="curve" smooth="yes"/>
      <point x="49" y="157" type="line"/>
      <point x="42" y="130"/>
      <point x="67" y="114"/>
      <point x="164" y="117" type="curve"/>
      <point x="212" y="222"/>
      <point x="257" y="324"/>
      <point x="277" y="407" type="curve" smooth="yes"/>
      <point x="279" y="412" type="line" smooth="yes"/>
      <point x="305" y="519"/>
      <point x="268" y="547"/>
      <point x="183" y="547" type="curve" smooth="yes"/>
      <point x="162" y="547"/>
      <point x="145" y="545"/>
    </contour>
    <contour>
      <point x="186" y="-11" type="curve" smooth="yes"/>
      <point x="257" y="-11"/>
      <point x="331" y="86"/>
      <point x="372" y="203" type="curve" smooth="yes"/>
      <point x="404" y="292"/>
      <point x="428" y="372"/>
      <point x="432" y="435" type="curve"/>
      <point x="338" y="205"/>
      <point x="270" y="156"/>
      <point x="214" y="156" type="curve" smooth="yes"/>
      <point x="189" y="156"/>
      <point x="171" y="178"/>
      <point x="164" y="223" type="curve"/>
      <point x="106" y="223"/>
      <point x="57" y="192"/>
      <point x="49" y="157" type="curve" smooth="yes"/>
      <point x="29" y="80"/>
      <point x="101" y="-11"/>
    </contour>
    <contour>
      <point x="605" y="542" type="line"/>
      <point x="591" y="546"/>
      <point x="570" y="548"/>
      <point x="547" y="548" type="curve" smooth="yes"/>
      <point x="490" y="548"/>
      <point x="450" y="540"/>
      <point x="436" y="486" type="curve" smooth="yes"/>
      <point x="354" y="158" type="line" smooth="yes"/>
      <point x="335" y="83"/>
      <point x="416" y="52"/>
      <point x="508" y="73" type="curve"/>
      <point x="502" y="109"/>
      <point x="505" y="143"/>
      <point x="516" y="186" type="curve"/>
    </contour>
    <contour>
      <point x="544" y="139" type="line"/>
      <point x="541" y="139" type="line"/>
      <point x="540" y="139"/>
      <point x="538" y="139"/>
      <point x="537" y="139" type="curve" smooth="yes"/>
      <point x="506" y="139"/>
      <point x="476" y="153"/>
      <point x="462" y="197" type="curve"/>
      <point x="385" y="197"/>
      <point x="361" y="188"/>
      <point x="354" y="158" type="curve" smooth="yes"/>
      <point x="332" y="72"/>
      <point x="367" y="-10"/>
      <point x="449" y="-10" type="curve" smooth="yes"/>
      <point x="452" y="-10" type="line" smooth="yes"/>
      <point x="491" y="-10"/>
      <point x="528" y="73"/>
      <point x="540" y="123" type="curve"/>
    </contour>
    <contour>
      <point x="85" y="157" type="line"/>
      <point x="31" y="61"/>
      <point x="-8" y="-24"/>
      <point x="-31" y="-116" type="curve" smooth="yes"/>
      <point x="-46" y="-178"/>
      <point x="-5" y="-204"/>
      <point x="47" y="-204" type="curve" smooth="yes"/>
      <point x="73" y="-204"/>
      <point x="89" y="-200"/>
      <point x="107" y="-193" type="curve"/>
      <point x="112" y="-173"/>
      <point x="114" y="-164"/>
      <point x="122" y="-135" type="curve" smooth="yes"/>
      <point x="140" y="-62"/>
      <point x="136" y="157"/>
      <point x="91" y="157" type="curve" smooth="yes"/>
    </contour>
  </outline>
</glyph>
<glyph name="paragraph" format="1">
  <advance width="600"/>
  <unicode hex="00B6"/>
  <outline>
    <contour>
      <point x="227" y="-150" type="curve"/>
      <point x="380" y="460" type="line"/>
      <point x="414" y="599"/>
      <point x="386" y="630"/>
      <point x="336" y="630" type="curve" smooth="yes"/>
      <point x="321" y="630"/>
      <point x="312" y="626"/>
      <point x="297" y="617" type="curve"/>
      <point x="124" y="-74" type="line" smooth="yes"/>
      <point x="109" y="-134"/>
      <point x="123" y="-160"/>
      <point x="180" y="-160" type="curve" smooth="yes"/>
      <point x="200" y="-160"/>
      <point x="213" y="-157"/>
    </contour>
    <contour>
      <point x="432" y="-153" type="curve"/>
      <point x="432" y="-117"/>
      <point x="437" y="-80"/>
      <point x="447" y="-40" type="curve" smooth="yes"/>
      <point x="599" y="564" type="line" smooth="yes"/>
      <point x="610" y="608"/>
      <point x="581" y="631"/>
      <point x="510" y="631" type="curve" smooth="yes"/>
      <point x="502" y="631"/>
      <point x="497" y="631"/>
      <point x="493" y="631" type="curve"/>
      <point x="318" y="-70" type="line" smooth="yes"/>
      <point x="302" y="-134"/>
      <point x="319" y="-160"/>
      <point x="374" y="-160" type="curve" smooth="yes"/>
      <point x="397" y="-160"/>
      <point x="413" y="-158"/>
    </contour>
    <contour>
      <point x="487" y="710" type="line" smooth="yes"/>
      <point x="282" y="710"/>
      <point x="111" y="589"/>
      <point x="67" y="412" type="curve" smooth="yes"/>
      <point x="64" y="402" type="line" smooth="yes"/>
      <point x="37" y="294"/>
      <point x="75" y="226"/>
      <point x="158" y="226" type="curve" smooth="yes"/>
      <point x="164" y="226" type="line" smooth="yes"/>
      <point x="209" y="226"/>
      <point x="319" y="248"/>
      <point x="343" y="343" type="curve"/>
      <point x="333" y="343" type="line" smooth="yes"/>
      <point x="300" y="343"/>
      <point x="294" y="367"/>
      <point x="305" y="410" type="curve" smooth="yes"/>
      <point x="307" y="418" type="line" smooth="yes"/>
      <point x="330" y="509"/>
      <point x="373" y="573"/>
      <point x="445" y="573" type="curve" smooth="yes"/>
      <point x="526" y="573"/>
      <point x="577" y="566"/>
      <point x="637" y="544" type="curve"/>
      <point x="641" y="544" type="line"/>
      <point x="651" y="564"/>
      <point x="657" y="581"/>
      <point x="662" y="601" type="curve" smooth="yes"/>
      <point x="669" y="631"/>
      <point x="667" y="652"/>
      <point x="654" y="669" type="curve" smooth="yes"/>
      <point x="636" y="693"/>
      <point x="589" y="710"/>
      <point x="490" y="710" type="curve" smooth="yes"/>
    </contour>
  </outline>
</glyph>
<glyph name="cedilla" format="1">
  <advance width="600"/>
  <unicode hex="00B8"/>
  <outline>
    <contour>
      <point x="323" y="-106" type="curve" smooth="yes"/>
      <point x="340" y="-36"/>
      <point x="303" y="-4"/>
      <point x="262" y="0" type="curve"/>
      <point x="267" y="18"/>
      <point x="271" y="31"/>
      <point x="277" y="44" type="curve"/>
      <point x="222" y="44"/>
      <point x="208" y="38"/>
      <point x="200" y="29" type="curve" smooth="yes"/>
      <point x="181" y="9"/>
      <point x="170" y="-15"/>
      <point x="166" y="-29" type="curve" smooth="yes"/>
      <point x="164" y="-36"/>
      <point x="167" y="-38"/>
      <point x="174" y="-38" type="curve" smooth="yes"/>
      <point x="205" y="-38"/>
      <point x="216" y="-51"/>
      <point x="209" y="-76" type="curve" smooth="yes"/>
      <point x="203" y="-102"/>
      <point x="181" y="-117"/>
      <point x="149" y="-117" type="curve" smooth="yes"/>
      <point x="118" y="-117"/>
      <point x="102" y="-111"/>
      <point x="85" y="-97" type="curve"/>
      <point x="81" y="-97" type="line"/>
      <point x="69" y="-116"/>
      <point x="62" y="-136"/>
      <point x="57" y="-156" type="curve" smooth="yes"/>
      <point x="45" y="-207"/>
      <point x="59" y="-247"/>
      <point x="130" y="-247" type="curve" smooth="yes"/>
      <point x="244" y="-247"/>
      <point x="305" y="-177"/>
    </contour>
  </outline>
</glyph>
<glyph name="ordmasculine" format="1">
  <advance width="600"/>
  <unicode hex="00BA"/>
  <outline>
    <contour>
      <point x="427" y="762" type="curve" smooth="yes"/>
      <point x="306" y="762"/>
      <point x="198" y="663"/>
      <point x="162" y="518" type="curve" smooth="yes"/>
      <point x="159" y="504" type="line" smooth="yes"/>
      <point x="121" y="354"/>
      <point x="194" y="286"/>
      <point x="299" y="286" type="curve" smooth="yes"/>
      <point x="333" y="286"/>
      <point x="362" y="312"/>
      <point x="371" y="350" type="curve"/>
      <point x="302" y="350"/>
      <point x="245" y="350"/>
      <point x="281" y="492" type="curve" smooth="yes"/>
      <point x="283" y="500" type="line" smooth="yes"/>
      <point x="311" y="612"/>
      <point x="346" y="655"/>
      <point x="395" y="655" type="curve" smooth="yes"/>
      <point x="450" y="655"/>
      <point x="466" y="638"/>
      <point x="495" y="601" type="curve"/>
      <point x="600" y="652"/>
      <point x="494" y="762"/>
    </contour>
    <contour>
      <point x="299" y="286" type="curve" smooth="yes"/>
      <point x="420" y="286"/>
      <point x="526" y="373"/>
      <point x="558" y="502" type="curve" smooth="yes"/>
      <point x="562" y="516" type="line" smooth="yes"/>
      <point x="604" y="686"/>
      <point x="531" y="762"/>
      <point x="427" y="762" type="curve" smooth="yes"/>
      <point x="399" y="762"/>
      <point x="375" y="736"/>
      <point x="365" y="698" type="curve"/>
      <point x="428" y="698"/>
      <point x="477" y="689"/>
      <point x="435" y="521" type="curve" smooth="yes"/>
      <point x="432" y="511" type="line" smooth="yes"/>
      <point x="412" y="428"/>
      <point x="378" y="396"/>
      <point x="323" y="396" type="curve" smooth="yes"/>
      <point x="270" y="396"/>
      <point x="249" y="417"/>
      <point x="218" y="453" type="curve"/>
      <point x="134" y="386"/>
      <point x="225" y="286"/>
    </contour>
  </outline>
</glyph>
<glyph name="guillemotright" format="1">
  <advance width="600"/>
  <unicode hex="00BB"/>
  <outline>
    <contour>
      <point x="220" y="91" type="line"/>
      <point x="248" y="82"/>
      <point x="264" y="78"/>
      <point x="298" y="78" type="curve" smooth="yes"/>
      <point x="337" y="78"/>
      <point x="357" y="83"/>
      <point x="381" y="97" type="curve" smooth="yes"/>
      <point x="457" y="145"/>
      <point x="511" y="196"/>
      <point x="577" y="275" type="curve"/>
      <point x="582" y="295" type="line"/>
      <point x="587" y="315"/>
      <point x="579" y="343"/>
      <point x="502" y="343" type="curve"/>
      <point x="427" y="243"/>
      <point x="357" y="180"/>
      <point x="221" y="95" type="curve"/>
    </contour>
    <contour>
      <point x="324" y="505" type="line"/>
      <point x="417" y="416"/>
      <point x="464" y="347"/>
      <point x="477" y="259" type="curve"/>
      <point x="564" y="273"/>
      <point x="579" y="280"/>
      <point x="581" y="291" type="curve"/>
      <point x="583" y="299" type="line" smooth="yes"/>
      <point x="590" y="324"/>
      <point x="589" y="344"/>
      <point x="574" y="379" type="curve" smooth="yes"/>
      <point x="544" y="449"/>
      <point x="515" y="484"/>
      <point x="488" y="502" type="curve"/>
      <point x="468" y="517"/>
      <point x="450" y="522"/>
      <point x="407" y="522" type="curve" smooth="yes"/>
      <point x="370" y="522"/>
      <point x="354" y="518"/>
      <point x="325" y="509" type="curve"/>
    </contour>
    <contour>
      <point x="-10" y="91" type="line"/>
      <point x="18" y="82"/>
      <point x="34" y="78"/>
      <point x="68" y="78" type="curve" smooth="yes"/>
      <point x="107" y="78"/>
      <point x="127" y="83"/>
      <point x="151" y="97" type="curve" smooth="yes"/>
      <point x="227" y="145"/>
      <point x="281" y="196"/>
      <point x="347" y="275" type="curve"/>
      <point x="352" y="295" type="line"/>
      <point x="357" y="315"/>
      <point x="349" y="343"/>
      <point x="272" y="343" type="curve"/>
      <point x="197" y="243"/>
      <point x="127" y="180"/>
      <point x="-9" y="95" type="curve"/>
    </contour>
    <contour>
      <point x="94" y="505" type="line"/>
      <point x="187" y="416"/>
      <point x="234" y="347"/>
      <point x="247" y="259" type="curve"/>
      <point x="334" y="273"/>
      <point x="349" y="280"/>
      <point x="351" y="291" type="curve"/>
      <point x="353" y="299" type="line" smooth="yes"/>
      <point x="360" y="324"/>
      <point x="359" y="344"/>
      <point x="344" y="379" type="curve" smooth="yes"/>
      <point x="314" y="449"/>
      <point x="285" y="484"/>
      <point x="258" y="502" type="curve"/>
      <point x="238" y="517"/>
      <point x="220" y="522"/>
      <point x="177" y="522" type="curve" smooth="yes"/>
      <point x="140" y="522"/>
      <point x="124" y="518"/>
      <point x="95" y="509" type="curve"/>
    </contour>
  </outline>
</glyph>
<glyph name="onequarter" format="1">
  <advance width="600"/>
  <unicode hex="00BC"/>
  <outline>
    <contour>
      <point x="260" y="428" type="curve"/>
      <point x="280" y="510"/>
      <point x="301" y="595"/>
      <point x="321" y="674" type="curve" smooth="yes"/>
      <point x="328" y="701"/>
      <point x="293" y="710"/>
      <point x="236" y="710" type="curve" smooth="yes"/>
      <point x="233" y="710" type="line"/>
      <point x="218" y="650"/>
      <point x="202" y="586"/>
      <point x="187" y="527" type="curve" smooth="yes"/>
      <point x="168" y="448"/>
      <point x="204" y="428"/>
    </contour>
    <contour>
      <point x="69" y="473" type="line"/>
      <point x="64" y="463"/>
      <point x="61" y="453"/>
      <point x="58" y="443" type="curve" smooth="yes"/>
      <point x="43" y="382"/>
      <point x="57" y="366"/>
      <point x="116" y="366" type="curve" smooth="yes"/>
      <point x="318" y="366" type="line"/>
      <point x="324" y="378"/>
      <point x="330" y="395"/>
      <point x="334" y="411" type="curve" smooth="yes"/>
      <point x="346" y="458"/>
      <point x="338" y="473"/>
      <point x="298" y="473" type="curve" smooth="yes"/>
    </contour>
    <contour>
      <point x="129" y="533" type="curve" smooth="yes"/>
      <point x="176" y="533"/>
      <point x="260" y="629"/>
      <point x="268" y="660" type="curve" smooth="yes"/>
      <point x="274" y="685"/>
      <point x="281" y="710"/>
      <point x="234" y="710" type="curve"/>
      <point x="227" y="710" type="line"/>
      <point x="191" y="671"/>
      <point x="159" y="648"/>
      <point x="111" y="627" type="curve"/>
      <point x="106" y="606" type="line" smooth="yes"/>
      <point x="95" y="562"/>
      <point x="104" y="533"/>
    </contour>
    <contour>
      <point x="321" y="115" type="curve"/>
      <point x="352" y="189"/>
      <point x="441" y="268"/>
      <point x="544" y="306" type="curve"/>
      <point x="545" y="309" type="line"/>
      <point x="532" y="334"/>
      <point x="504" y="344"/>
      <point x="457" y="344" type="curve" smooth="yes"/>
      <point x="417" y="344"/>
      <point x="395" y="336"/>
      <point x="368" y="315" type="curve" smooth="yes"/>
      <point x="312" y="270"/>
      <point x="254" y="189"/>
      <point x="241" y="137" type="curve" smooth="yes"/>
      <point x="237" y="122"/>
      <point x="266" y="115"/>
    </contour>
    <contour>
      <point x="537" y="68" type="line"/>
      <point x="543" y="77"/>
      <point x="547" y="89"/>
      <point x="549" y="99" type="curve" smooth="yes"/>
      <point x="558" y="134"/>
      <point x="559" y="167"/>
      <point x="533" y="167" type="curve" smooth="yes"/>
      <point x="445" y="167" type="line" smooth="yes"/>
      <point x="392" y="167"/>
      <point x="304" y="155"/>
      <point x="241" y="137" type="curve"/>
      <point x="240" y="133" type="line" smooth="yes"/>
      <point x="233" y="108"/>
      <point x="246" y="68"/>
      <point x="274" y="68" type="curve" smooth="yes"/>
    </contour>
    <contour>
      <point x="488" y="-3" type="curve"/>
      <point x="487" y="16"/>
      <point x="489" y="32"/>
      <point x="494" y="52" type="curve" smooth="yes"/>
      <point x="531" y="200" type="line" smooth="yes"/>
      <point x="536" y="219"/>
      <point x="508" y="237"/>
      <point x="477" y="237" type="curve" smooth="yes"/>
      <point x="475" y="237" type="line"/>
      <point x="438" y="207"/>
      <point x="415" y="160"/>
      <point x="408" y="131" type="curve" smooth="yes"/>
      <point x="383" y="29" type="line" smooth="yes"/>
      <point x="376" y="3"/>
      <point x="416" y="-6"/>
      <point x="453" y="-6" type="curve" smooth="yes"/>
      <point x="465" y="-6"/>
      <point x="477" y="-5"/>
    </contour>
    <contour>
      <point x="381" y="411" type="curve"/>
      <point x="394" y="402"/>
      <point x="415" y="397"/>
      <point x="443" y="397" type="curve" smooth="yes"/>
      <point x="476" y="397"/>
      <point x="491" y="403"/>
      <point x="520" y="426" type="curve" smooth="yes"/>
      <point x="601" y="491"/>
      <point x="653" y="581"/>
      <point x="670" y="650" type="curve" smooth="yes"/>
      <point x="680" y="691"/>
      <point x="657" y="713"/>
      <point x="598" y="713" type="curve" smooth="yes"/>
      <point x="573" y="713"/>
      <point x="561" y="712"/>
      <point x="543" y="707" type="curve"/>
      <point x="507" y="605"/>
      <point x="459" y="500"/>
    </contour>
    <contour>
      <point x="259" y="289" type="curve"/>
      <point x="246" y="298"/>
      <point x="225" y="303"/>
      <point x="197" y="303" type="curve" smooth="yes"/>
      <point x="164" y="303"/>
      <point x="149" y="297"/>
      <point x="120" y="274" type="curve" smooth="yes"/>
      <point x="39" y="209"/>
      <point x="-13" y="119"/>
      <point x="-30" y="50" type="curve" smooth="yes"/>
      <point x="-40" y="9"/>
      <point x="-17" y="-13"/>
      <point x="42" y="-13" type="curve" smooth="yes"/>
      <point x="67" y="-13"/>
      <point x="79" y="-12"/>
      <point x="97" y="-7" type="curve"/>
      <point x="133" y="95"/>
      <point x="181" y="200"/>
    </contour>
  </outline>
</glyph>
<glyph name="onehalf" format="1">
  <advance width="600"/>
  <unicode hex="00BD"/>
  <outline>
    <contour>
      <point x="260" y="428" type="curve"/>
      <point x="280" y="510"/>
      <point x="301" y="595"/>
      <point x="321" y="674" type="curve" smooth="yes"/>
      <point x="328" y="701"/>
      <point x="293" y="710"/>
      <point x="236" y="710" type="curve" smooth="yes"/>
      <point x="233" y="710" type="line"/>
      <point x="218" y="650"/>
      <point x="202" y="586"/>
      <point x="187" y="527" type="curve" smooth="yes"/>
      <point x="168" y="448"/>
      <point x="204" y="428"/>
    </contour>
    <contour>
      <point x="66" y="473" type="line"/>
      <point x="65" y="469"/>
      <point x="64" y="465"/>
      <point x="63" y="460" type="curve" smooth="yes"/>
      <point x="43" y="382"/>
      <point x="57" y="366"/>
      <point x="116" y="366" type="curve" smooth="yes"/>
      <point x="318" y="366" type="line"/>
      <point x="324" y="378"/>
      <point x="330" y="395"/>
      <point x="334" y="411" type="curve" smooth="yes"/>
      <point x="346" y="458"/>
      <point x="338" y="473"/>
      <point x="298" y="473" type="curve" smooth="yes"/>
    </contour>
    <contour>
      <point x="129" y="533" type="curve" smooth="yes"/>
      <point x="176" y="533"/>
      <point x="260" y="629"/>
      <point x="268" y="660" type="curve" smooth="yes"/>
      <point x="274" y="685"/>
      <point x="281" y="710"/>
      <point x="234" y="710" type="curve"/>
      <point x="227" y="710" type="line"/>
      <point x="191" y="671"/>
      <point x="159" y="648"/>
      <point x="111" y="627" type="curve"/>
      <point x="106" y="606" type="line" smooth="yes"/>
      <point x="95" y="562"/>
      <point x="104" y="533"/>
    </contour>
    <contour>
      <point x="415" y="244" type="curve" smooth="yes"/>
      <point x="465" y="244"/>
      <point x="489" y="232"/>
      <point x="512" y="203" type="curve"/>
      <point x="556" y="216"/>
      <point x="568" y="232"/>
      <point x="571" y="244" type="curve" smooth="yes"/>
      <point x="584" y="294"/>
      <point x="569" y="342"/>
      <point x="453" y="342" type="curve" smooth="yes"/>
      <point x="394" y="342"/>
      <point x="350" y="332"/>
      <point x="327" y="314" type="curve" smooth="yes"/>
      <point x="308" y="299"/>
      <point x="300" y="278"/>
      <point x="294" y="253" type="curve" smooth="yes"/>
      <point x="289" y="236"/>
      <point x="288" y="224"/>
      <point x="289" y="213" type="curve"/>
      <point x="291" y="213" type="line"/>
      <point x="338" y="237"/>
      <point x="371" y="244"/>
    </contour>
    <contour>
      <point x="456" y="267" type="curve"/>
      <point x="459" y="254"/>
      <point x="458" y="246"/>
      <point x="455" y="235" type="curve" smooth="yes"/>
      <point x="452" y="224"/>
      <point x="441" y="218"/>
      <point x="377" y="197" type="curve" smooth="yes"/>
      <point x="278" y="165"/>
      <point x="251" y="115"/>
      <point x="238" y="64" type="curve" smooth="yes"/>
      <point x="233" y="44"/>
      <point x="244" y="46"/>
      <point x="295" y="46" type="curve"/>
      <point x="306" y="90"/>
      <point x="329" y="125"/>
      <point x="418" y="142" type="curve" smooth="yes"/>
      <point x="521" y="162"/>
      <point x="559" y="193"/>
      <point x="571" y="242" type="curve" smooth="yes"/>
      <point x="571" y="244" type="line" smooth="yes"/>
      <point x="577" y="268"/>
      <point x="552" y="282"/>
    </contour>
    <contour>
      <point x="511" y="0" type="line"/>
      <point x="518" y="14"/>
      <point x="524" y="30"/>
      <point x="528" y="45" type="curve" smooth="yes"/>
      <point x="540" y="96"/>
      <point x="529" y="112"/>
      <point x="482" y="112" type="curve" smooth="yes"/>
      <point x="478" y="112" type="line" smooth="yes"/>
      <point x="408" y="112"/>
      <point x="323" y="103"/>
      <point x="238" y="64" type="curve"/>
      <point x="238" y="63"/>
      <point x="238" y="62"/>
      <point x="238" y="61" type="curve" smooth="yes"/>
      <point x="230" y="29"/>
      <point x="240" y="0"/>
      <point x="264" y="0" type="curve" smooth="yes"/>
    </contour>
    <contour>
      <point x="381" y="411" type="curve"/>
      <point x="394" y="402"/>
      <point x="415" y="397"/>
      <point x="443" y="397" type="curve" smooth="yes"/>
      <point x="476" y="397"/>
      <point x="491" y="403"/>
      <point x="520" y="426" type="curve" smooth="yes"/>
      <point x="601" y="491"/>
      <point x="653" y="581"/>
      <point x="670" y="650" type="curve" smooth="yes"/>
      <point x="680" y="691"/>
      <point x="657" y="713"/>
      <point x="598" y="713" type="curve" smooth="yes"/>
      <point x="573" y="713"/>
      <point x="561" y="712"/>
      <point x="543" y="707" type="curve"/>
      <point x="507" y="605"/>
      <point x="459" y="500"/>
    </contour>
    <contour>
      <point x="259" y="289" type="curve"/>
      <point x="246" y="298"/>
      <point x="225" y="303"/>
      <point x="197" y="303" type="curve" smooth="yes"/>
      <point x="164" y="303"/>
      <point x="149" y="297"/>
      <point x="120" y="274" type="curve" smooth="yes"/>
      <point x="39" y="209"/>
      <point x="-13" y="119"/>
      <point x="-30" y="50" type="curve" smooth="yes"/>
      <point x="-40" y="9"/>
      <point x="-17" y="-13"/>
      <point x="42" y="-13" type="curve" smooth="yes"/>
      <point x="67" y="-13"/>
      <point x="79" y="-12"/>
      <point x="97" y="-7" type="curve"/>
      <point x="133" y="95"/>
      <point x="181" y="200"/>
    </contour>
  </outline>
</glyph>
<glyph name="threequarters" format="1">
  <advance width="600"/>
  <unicode hex="00BE"/>
  <outline>
    <contour>
      <point x="235" y="619" type="curve" smooth="yes"/>
      <point x="283" y="619"/>
      <point x="301" y="603"/>
      <point x="296" y="582" type="curve" smooth="yes"/>
      <point x="294" y="574"/>
      <point x="292" y="569"/>
      <point x="290" y="564" type="curve"/>
      <point x="324" y="566"/>
      <point x="384" y="603"/>
      <point x="388" y="618" type="curve" smooth="yes"/>
      <point x="390" y="625" type="line" smooth="yes"/>
      <point x="402" y="672"/>
      <point x="362" y="711"/>
      <point x="280" y="711" type="curve"/>
      <point x="233" y="711"/>
      <point x="189" y="700"/>
      <point x="169" y="684" type="curve" smooth="yes"/>
      <point x="147" y="667"/>
      <point x="137" y="648"/>
      <point x="130" y="621" type="curve" smooth="yes"/>
      <point x="126" y="606"/>
      <point x="124" y="595"/>
      <point x="125" y="579" type="curve"/>
      <point x="127" y="579" type="line"/>
      <point x="166" y="610"/>
      <point x="201" y="619"/>
    </contour>
    <contour>
      <point x="194" y="525" type="curve" smooth="yes"/>
      <point x="313" y="525"/>
      <point x="376" y="571"/>
      <point x="388" y="618" type="curve" smooth="yes"/>
      <point x="394" y="642"/>
      <point x="355" y="655"/>
      <point x="325" y="655" type="curve"/>
      <point x="325" y="654"/>
      <point x="325" y="652"/>
      <point x="324" y="650" type="curve" smooth="yes"/>
      <point x="308" y="586"/>
      <point x="258" y="565"/>
      <point x="184" y="565" type="curve"/>
      <point x="180" y="557"/>
      <point x="178" y="552"/>
      <point x="175" y="540" type="curve" smooth="yes"/>
      <point x="172" y="528"/>
      <point x="189" y="525"/>
    </contour>
    <contour>
      <point x="188" y="502" type="curve" smooth="yes"/>
      <point x="243" y="497"/>
      <point x="286" y="472"/>
      <point x="277" y="436" type="curve" smooth="yes"/>
      <point x="276" y="435"/>
      <point x="276" y="433"/>
      <point x="275" y="431" type="curve"/>
      <point x="305" y="431"/>
      <point x="349" y="441"/>
      <point x="351" y="450" type="curve" smooth="yes"/>
      <point x="371" y="531"/>
      <point x="290" y="547"/>
      <point x="179" y="547" type="curve"/>
      <point x="177" y="543"/>
      <point x="175" y="543"/>
      <point x="175" y="540" type="curve" smooth="yes"/>
      <point x="168" y="513"/>
      <point x="173" y="504"/>
    </contour>
    <contour>
      <point x="205" y="448" type="curve" smooth="yes"/>
      <point x="156" y="448"/>
      <point x="122" y="456"/>
      <point x="97" y="486" type="curve"/>
      <point x="95" y="486" type="line"/>
      <point x="86" y="473"/>
      <point x="81" y="461"/>
      <point x="76" y="442" type="curve" smooth="yes"/>
      <point x="69" y="412"/>
      <point x="69" y="397"/>
      <point x="79" y="383" type="curve" smooth="yes"/>
      <point x="92" y="367"/>
      <point x="139" y="357"/>
      <point x="192" y="357" type="curve" smooth="yes"/>
      <point x="277" y="357"/>
      <point x="337" y="395"/>
      <point x="349" y="442" type="curve" smooth="yes"/>
      <point x="351" y="450" type="line" smooth="yes"/>
      <point x="358" y="476"/>
      <point x="330" y="486"/>
      <point x="281" y="488" type="curve"/>
      <point x="280" y="483"/>
      <point x="280" y="477"/>
      <point x="278" y="471" type="curve" smooth="yes"/>
      <point x="275" y="456"/>
      <point x="252" y="448"/>
    </contour>
    <contour>
      <point x="321" y="115" type="curve"/>
      <point x="352" y="189"/>
      <point x="441" y="268"/>
      <point x="544" y="306" type="curve"/>
      <point x="545" y="309" type="line"/>
      <point x="532" y="334"/>
      <point x="504" y="344"/>
      <point x="457" y="344" type="curve" smooth="yes"/>
      <point x="417" y="344"/>
      <point x="395" y="336"/>
      <point x="368" y="315" type="curve" smooth="yes"/>
      <point x="312" y="270"/>
      <point x="254" y="189"/>
      <point x="241" y="137" type="curve" smooth="yes"/>
      <point x="237" y="122"/>
      <point x="266" y="115"/>
    </contour>
    <contour>
      <point x="537" y="68" type="line"/>
      <point x="543" y="77"/>
      <point x="547" y="89"/>
      <point x="549" y="99" type="curve" smooth="yes"/>
      <point x="558" y="134"/>
      <point x="559" y="167"/>
      <point x="533" y="167" type="curve" smooth="yes"/>
      <point x="445" y="167" type="line" smooth="yes"/>
      <point x="392" y="167"/>
      <point x="304" y="155"/>
      <point x="241" y="137" type="curve"/>
      <point x="240" y="133" type="line" smooth="yes"/>
      <point x="233" y="108"/>
      <point x="246" y="68"/>
      <point x="274" y="68" type="curve" smooth="yes"/>
    </contour>
    <contour>
      <point x="488" y="-3" type="curve"/>
      <point x="487" y="16"/>
      <point x="489" y="32"/>
      <point x="494" y="52" type="curve" smooth="yes"/>
      <point x="531" y="200" type="line" smooth="yes"/>
      <point x="536" y="219"/>
      <point x="508" y="237"/>
      <point x="477" y="237" type="curve" smooth="yes"/>
      <point x="475" y="237" type="line"/>
      <point x="438" y="207"/>
      <point x="415" y="160"/>
      <point x="408" y="131" type="curve" smooth="yes"/>
      <point x="383" y="29" type="line" smooth="yes"/>
      <point x="376" y="3"/>
      <point x="416" y="-6"/>
      <point x="453" y="-6" type="curve" smooth="yes"/>
      <point x="465" y="-6"/>
      <point x="477" y="-5"/>
    </contour>
    <contour>
      <point x="381" y="411" type="curve"/>
      <point x="394" y="402"/>
      <point x="415" y="397"/>
      <point x="443" y="397" type="curve" smooth="yes"/>
      <point x="476" y="397"/>
      <point x="491" y="403"/>
      <point x="520" y="426" type="curve" smooth="yes"/>
      <point x="601" y="491"/>
      <point x="653" y="581"/>
      <point x="670" y="650" type="curve" smooth="yes"/>
      <point x="680" y="691"/>
      <point x="657" y="713"/>
      <point x="598" y="713" type="curve" smooth="yes"/>
      <point x="573" y="713"/>
      <point x="561" y="712"/>
      <point x="543" y="707" type="curve"/>
      <point x="507" y="605"/>
      <point x="459" y="500"/>
    </contour>
    <contour>
      <point x="259" y="289" type="curve"/>
      <point x="246" y="298"/>
      <point x="225" y="303"/>
      <point x="197" y="303" type="curve" smooth="yes"/>
      <point x="164" y="303"/>
      <point x="149" y="297"/>
      <point x="120" y="274" type="curve" smooth="yes"/>
      <point x="39" y="209"/>
      <point x="-13" y="119"/>
      <point x="-30" y="50" type="curve" smooth="yes"/>
      <point x="-40" y="9"/>
      <point x="-17" y="-13"/>
      <point x="42" y="-13" type="curve" smooth="yes"/>
      <point x="67" y="-13"/>
      <point x="79" y="-12"/>
      <point x="97" y="-7" type="curve"/>
      <point x="133" y="95"/>
      <point x="181" y="200"/>
    </contour>
  </outline>
</glyph>
<glyph name="questiondown" format="1">
  <advance width="600"/>
  <unicode hex="00BF"/>
  <outline>
    <contour>
      <point x="197" y="-185" type="curve" smooth="yes"/>
      <point x="283" y="-185"/>
      <point x="361" y="-165"/>
      <point x="402" y="-132" type="curve" smooth="yes"/>
      <point x="429" y="-111"/>
      <point x="449" y="-75"/>
      <point x="459" y="-34" type="curve" smooth="yes"/>
      <point x="466" y="-7"/>
      <point x="467" y="11"/>
      <point x="464" y="31" type="curve"/>
      <point x="460" y="31" type="line"/>
      <point x="386" y="-14"/>
      <point x="313" y="-35"/>
      <point x="228" y="-35" type="curve" smooth="yes"/>
      <point x="142" y="-35"/>
      <point x="121" y="-13"/>
      <point x="129" y="17" type="curve" smooth="yes"/>
      <point x="135" y="43"/>
      <point x="143" y="61"/>
      <point x="154" y="82" type="curve"/>
      <point x="76" y="89"/>
      <point x="26" y="48"/>
      <point x="15" y="8" type="curve" smooth="yes"/>
      <point x="-10" y="-94"/>
      <point x="41" y="-185"/>
    </contour>
    <contour>
      <point x="173" y="-102" type="curve"/>
      <point x="155" y="-60"/>
      <point x="154" y="-42"/>
      <point x="163" y="-6" type="curve" smooth="yes"/>
      <point x="170" y="23"/>
      <point x="183" y="49"/>
      <point x="248" y="88" type="curve" smooth="yes"/>
      <point x="275" y="104" type="line" smooth="yes"/>
      <point x="360" y="154"/>
      <point x="380" y="179"/>
      <point x="387" y="205" type="curve" smooth="yes"/>
      <point x="388" y="209" type="line" smooth="yes"/>
      <point x="396" y="244"/>
      <point x="364" y="283"/>
      <point x="283" y="283" type="curve" smooth="yes"/>
      <point x="275" y="283" type="line"/>
      <point x="275" y="280" type="line" smooth="yes"/>
      <point x="268" y="253"/>
      <point x="251" y="230"/>
      <point x="209" y="208" type="curve" smooth="yes"/>
      <point x="175" y="190" type="line" smooth="yes"/>
      <point x="79" y="140"/>
      <point x="32" y="74"/>
      <point x="16" y="11" type="curve" smooth="yes"/>
      <point x="15" y="8" type="line" smooth="yes"/>
      <point x="-2" y="-61"/>
      <point x="56" y="-141"/>
    </contour>
    <contour>
      <point x="300" y="540" type="curve"/>
      <point x="270" y="421" type="line" smooth="yes"/>
      <point x="254" y="358"/>
      <point x="321" y="349"/>
      <point x="382" y="349" type="curve" smooth="yes"/>
      <point x="405" y="349"/>
      <point x="435" y="351"/>
      <point x="461" y="355" type="curve"/>
      <point x="491" y="474" type="line" smooth="yes"/>
      <point x="507" y="537"/>
      <point x="440" y="546"/>
      <point x="379" y="546" type="curve" smooth="yes"/>
      <point x="356" y="546"/>
      <point x="326" y="544"/>
    </contour>
  </outline>
</glyph>
<glyph name="AE" format="1">
  <advance width="600"/>
  <unicode hex="00C6"/>
  <outline>
    <contour>
      <point x="100" y="-2" type="curve"/>
      <point x="216" y="402"/>
      <point x="299" y="544"/>
      <point x="385" y="614" type="curve"/>
      <point x="414" y="637"/>
      <point x="437" y="700"/>
      <point x="358" y="700" type="curve"/>
      <point x="298" y="700" type="line"/>
      <point x="174" y="570"/>
      <point x="50" y="338"/>
      <point x="-20" y="57" type="curve"/>
      <point x="-33" y="8"/>
      <point x="-14" y="-10"/>
      <point x="46" y="-10" type="curve" smooth="yes"/>
      <point x="66" y="-10"/>
      <point x="83" y="-7"/>
    </contour>
    <contour>
      <point x="384" y="8" type="curve"/>
      <point x="449" y="268"/>
      <point x="484" y="456"/>
      <point x="482" y="613" type="curve"/>
      <point x="478" y="678"/>
      <point x="446" y="700"/>
      <point x="357" y="700" type="curve"/>
      <point x="331" y="700"/>
      <point x="291" y="638"/>
      <point x="269" y="550" type="curve"/>
      <point x="328" y="550" type="line"/>
      <point x="341" y="550"/>
      <point x="344" y="547"/>
      <point x="342" y="517" type="curve"/>
      <point x="335" y="407"/>
      <point x="289" y="193"/>
      <point x="253" y="50" type="curve" smooth="yes"/>
      <point x="243" y="12"/>
      <point x="288" y="0"/>
      <point x="332" y="0" type="curve" smooth="yes"/>
      <point x="354" y="0"/>
      <point x="366" y="2"/>
    </contour>
    <contour>
      <point x="25" y="310" type="line"/>
      <point x="19" y="285" type="line"/>
      <point x="-1" y="208"/>
      <point x="5" y="170"/>
      <point x="36" y="170" type="curve"/>
      <point x="309" y="170" type="line"/>
      <point x="314" y="189" type="line"/>
      <point x="333" y="267"/>
      <point x="304" y="310"/>
      <point x="239" y="310" type="curve"/>
    </contour>
    <contour>
      <point x="343" y="700" type="line"/>
      <point x="336" y="675" type="line"/>
      <point x="315" y="591"/>
      <point x="359" y="550"/>
      <point x="382" y="550" type="curve" smooth="yes"/>
      <point x="650" y="550" type="line"/>
      <point x="659" y="564"/>
      <point x="665" y="583"/>
      <point x="671" y="604" type="curve" smooth="yes"/>
      <point x="676" y="625"/>
      <point x="682" y="669"/>
      <point x="668" y="688" type="curve" smooth="yes"/>
      <point x="660" y="698"/>
      <point x="654" y="700"/>
      <point x="637" y="700" type="curve"/>
    </contour>
    <contour>
      <point x="410" y="373" type="line"/>
      <point x="406" y="357" type="line"/>
      <point x="386" y="278"/>
      <point x="388" y="240"/>
      <point x="421" y="240" type="curve" smooth="yes"/>
      <point x="544" y="240" type="line"/>
      <point x="550" y="252"/>
      <point x="557" y="269"/>
      <point x="561" y="285" type="curve" smooth="yes"/>
      <point x="573" y="332"/>
      <point x="568" y="373"/>
      <point x="522" y="373" type="curve"/>
    </contour>
    <contour>
      <point x="295" y="150" type="line"/>
      <point x="290" y="132" type="line" smooth="yes"/>
      <point x="271" y="55"/>
      <point x="283" y="0"/>
      <point x="332" y="0" type="curve" smooth="yes"/>
      <point x="513" y="0" type="line"/>
      <point x="521" y="15"/>
      <point x="528" y="35"/>
      <point x="534" y="58" type="curve" smooth="yes"/>
      <point x="550" y="124"/>
      <point x="539" y="150"/>
      <point x="495" y="150" type="curve" smooth="yes"/>
    </contour>
    <contour>
      <point x="471" y="711" type="move" name="top"/>
    </contour>
  </outline>
</glyph>
<glyph name="Eacute" format="1">
  <advance width="600"/>
  <unicode hex="00C9"/>
  <outline>
    <contour>
      <point x="133" y="700" type="line"/>
      <point x="131" y="692"/>
      <point x="128" y="683"/>
      <point x="126" y="675" type="curve" smooth="yes"/>
      <point x="114" y="627"/>
      <point x="107" y="575"/>
      <point x="120" y="558" type="curve" smooth="yes"/>
      <point x="125" y="552"/>
      <point x="127" y="550"/>
      <point x="135" y="550" type="curve" smooth="yes"/>
      <point x="613" y="550" type="line"/>
      <point x="622" y="564"/>
      <point x="628" y="583"/>
      <point x="634" y="604" type="curve" smooth="yes"/>
      <point x="639" y="625"/>
      <point x="645" y="669"/>
      <point x="631" y="688" type="curve" smooth="yes"/>
      <point x="623" y="698"/>
      <point x="617" y="700"/>
      <point x="600" y="700" type="curve" smooth="yes"/>
    </contour>
    <contour>
      <point x="191" y="95" type="curve"/>
      <point x="287" y="477" type="line" smooth="yes"/>
      <point x="307" y="558"/>
      <point x="274" y="584"/>
      <point x="154" y="584" type="curve"/>
      <point x="45" y="150" type="line"/>
      <point x="34" y="107"/>
      <point x="107" y="95"/>
    </contour>
    <contour>
      <point x="45" y="150" type="line"/>
      <point x="40" y="132" type="line" smooth="yes"/>
      <point x="26" y="73"/>
      <point x="67" y="0"/>
      <point x="115" y="0" type="curve" smooth="yes"/>
      <point x="477" y="0" type="line"/>
      <point x="485" y="15"/>
      <point x="492" y="35"/>
      <point x="498" y="58" type="curve" smooth="yes"/>
      <point x="514" y="124"/>
      <point x="503" y="150"/>
      <point x="459" y="150" type="curve" smooth="yes"/>
    </contour>
    <contour>
      <point x="178" y="400" type="line"/>
      <point x="155" y="310"/>
      <point x="157" y="270"/>
      <point x="200" y="270" type="curve" smooth="yes"/>
      <point x="500" y="270" type="line"/>
      <point x="501" y="274"/>
      <point x="503" y="280"/>
      <point x="504" y="284" type="curve" smooth="yes"/>
      <point x="511" y="315"/>
      <point x="512" y="357"/>
      <point x="493" y="382" type="curve" smooth="yes"/>
      <point x="482" y="397"/>
      <point x="471" y="400"/>
      <point x="452" y="400" type="curve" smooth="yes"/>
    </contour>
    <contour>
      <point x="430" y="758" type="curve" smooth="yes"/>
      <point x="467" y="758"/>
      <point x="487" y="763"/>
      <point x="504" y="771" type="curve" smooth="yes"/>
      <point x="562" y="799"/>
      <point x="595" y="827"/>
      <point x="631" y="880" type="curve" smooth="yes"/>
      <point x="640" y="894"/>
      <point x="639" y="909"/>
      <point x="625" y="915" type="curve" smooth="yes"/>
      <point x="589" y="929"/>
      <point x="559" y="934"/>
      <point x="505" y="934" type="curve"/>
      <point x="467" y="867"/>
      <point x="417" y="823"/>
      <point x="343" y="771" type="curve"/>
      <point x="377" y="761"/>
      <point x="397" y="758"/>
    </contour>
  </outline>
</glyph>
<glyph name="Ecircumflex" format="1">
  <advance width="600"/>
  <unicode hex="00CA"/>
  <outline>
    <contour>
      <point x="133" y="700" type="line"/>
      <point x="131" y="692"/>
      <point x="128" y="683"/>
      <point x="126" y="675" type="curve" smooth="yes"/>
      <point x="114" y="627"/>
      <point x="107" y="575"/>
      <point x="120" y="558" type="curve" smooth="yes"/>
      <point x="125" y="552"/>
      <point x="127" y="550"/>
      <point x="135" y="550" type="curve" smooth="yes"/>
      <point x="613" y="550" type="line"/>
      <point x="622" y="564"/>
      <point x="628" y="583"/>
      <point x="634" y="604" type="curve" smooth="yes"/>
      <point x="639" y="625"/>
      <point x="645" y="669"/>
      <point x="631" y="688" type="curve" smooth="yes"/>
      <point x="623" y="698"/>
      <point x="617" y="700"/>
      <point x="600" y="700" type="curve" smooth="yes"/>
    </contour>
    <contour>
      <point x="191" y="95" type="curve"/>
      <point x="287" y="477" type="line" smooth="yes"/>
      <point x="307" y="558"/>
      <point x="274" y="584"/>
      <point x="154" y="584" type="curve"/>
      <point x="45" y="150" type="line"/>
      <point x="34" y="107"/>
      <point x="107" y="95"/>
    </contour>
    <contour>
      <point x="45" y="150" type="line"/>
      <point x="40" y="132" type="line" smooth="yes"/>
      <point x="26" y="73"/>
      <point x="67" y="0"/>
      <point x="115" y="0" type="curve" smooth="yes"/>
      <point x="477" y="0" type="line"/>
      <point x="485" y="15"/>
      <point x="492" y="35"/>
      <point x="498" y="58" type="curve" smooth="yes"/>
      <point x="514" y="124"/>
      <point x="503" y="150"/>
      <point x="459" y="150" type="curve" smooth="yes"/>
    </contour>
    <contour>
      <point x="178" y="400" type="line"/>
      <point x="155" y="310"/>
      <point x="157" y="270"/>
      <point x="200" y="270" type="curve" smooth="yes"/>
      <point x="500" y="270" type="line"/>
      <point x="501" y="274"/>
      <point x="503" y="280"/>
      <point x="504" y="284" type="curve" smooth="yes"/>
      <point x="511" y="315"/>
      <point x="512" y="357"/>
      <point x="493" y="382" type="curve" smooth="yes"/>
      <point x="482" y="397"/>
      <point x="471" y="400"/>
      <point x="452" y="400" type="curve" smooth="yes"/>
    </contour>
    <contour>
      <point x="327" y="770" type="line"/>
      <point x="370" y="816"/>
      <point x="439" y="858"/>
      <point x="515" y="876" type="curve"/>
      <point x="527" y="926"/>
      <point x="501" y="944"/>
      <point x="452" y="944" type="curve"/>
      <point x="406" y="944" type="line"/>
      <point x="352" y="926"/>
      <point x="291" y="885"/>
      <point x="250" y="848" type="curve" smooth="yes"/>
      <point x="226" y="827"/>
      <point x="215" y="810"/>
      <point x="214" y="804" type="curve" smooth="yes"/>
      <point x="209" y="784"/>
      <point x="266" y="770"/>
      <point x="321" y="770" type="curve"/>
    </contour>
    <contour>
      <point x="663" y="784" type="curve"/>
      <point x="643" y="843"/>
      <point x="621" y="884"/>
      <point x="576" y="916" type="curve" smooth="yes"/>
      <point x="535" y="943"/>
      <point x="503" y="944"/>
      <point x="470" y="944" type="curve" smooth="yes"/>
      <point x="449" y="944" type="line"/>
      <point x="428" y="944"/>
      <point x="408" y="928"/>
      <point x="381" y="874" type="curve"/>
      <point x="457" y="854"/>
      <point x="484" y="833"/>
      <point x="509" y="795" type="curve" smooth="yes"/>
      <point x="520" y="780"/>
      <point x="534" y="770"/>
      <point x="570" y="770" type="curve" smooth="yes"/>
      <point x="607" y="770"/>
      <point x="633" y="774"/>
    </contour>
  </outline>
</glyph>
<glyph name="Icircumflex" format="1">
  <advance width="600"/>
  <unicode hex="00CE"/>
  <outline>
    <contour>
      <point x="329" y="86" type="curve"/>
      <point x="427" y="477" type="line" smooth="yes"/>
      <point x="447" y="558"/>
      <point x="416" y="584"/>
      <point x="294" y="584" type="curve"/>
      <point x="204" y="228" type="line" smooth="yes"/>
      <point x="180" y="130"/>
      <point x="207" y="86"/>
    </contour>
    <contour>
      <point x="154" y="700" type="line"/>
      <point x="148" y="691"/>
      <point x="143" y="679"/>
      <point x="140" y="664" type="curve"/>
      <point x="130" y="626"/>
      <point x="132" y="597"/>
      <point x="147" y="577" type="curve" smooth="yes"/>
      <point x="163" y="555"/>
      <point x="192" y="550"/>
      <point x="265" y="550" type="curve" smooth="yes"/>
      <point x="614" y="550" type="line"/>
      <point x="624" y="570"/>
      <point x="631" y="590"/>
      <point x="636" y="608" type="curve" smooth="yes"/>
      <point x="648" y="659"/>
      <point x="651" y="700"/>
      <point x="597" y="700" type="curve" smooth="yes"/>
    </contour>
    <contour>
      <point x="18" y="150" type="line"/>
      <point x="8" y="134"/>
      <point x="2" y="116"/>
      <point x="-2" y="97" type="curve"/>
      <point x="-10" y="67"/>
      <point x="-14" y="36"/>
      <point x="0" y="18" type="curve" smooth="yes"/>
      <point x="11" y="4"/>
      <point x="22" y="0"/>
      <point x="61" y="0" type="curve" smooth="yes"/>
      <point x="476" y="0" type="line"/>
      <point x="484" y="15"/>
      <point x="492" y="35"/>
      <point x="498" y="58" type="curve" smooth="yes"/>
      <point x="511" y="109"/>
      <point x="513" y="150"/>
      <point x="459" y="150" type="curve" smooth="yes"/>
    </contour>
    <contour>
      <point x="327" y="770" type="line"/>
      <point x="370" y="816"/>
      <point x="439" y="858"/>
      <point x="515" y="876" type="curve"/>
      <point x="527" y="926"/>
      <point x="501" y="944"/>
      <point x="452" y="944" type="curve"/>
      <point x="406" y="944" type="line"/>
      <point x="352" y="926"/>
      <point x="291" y="885"/>
      <point x="250" y="848" type="curve" smooth="yes"/>
      <point x="226" y="827"/>
      <point x="215" y="810"/>
      <point x="214" y="804" type="curve" smooth="yes"/>
      <point x="209" y="784"/>
      <point x="266" y="770"/>
      <point x="321" y="770" type="curve"/>
    </contour>
    <contour>
      <point x="663" y="784" type="curve"/>
      <point x="643" y="843"/>
      <point x="621" y="884"/>
      <point x="576" y="916" type="curve" smooth="yes"/>
      <point x="535" y="943"/>
      <point x="503" y="944"/>
      <point x="470" y="944" type="curve" smooth="yes"/>
      <point x="449" y="944" type="line"/>
      <point x="428" y="944"/>
      <point x="408" y="928"/>
      <point x="381" y="874" type="curve"/>
      <point x="457" y="854"/>
      <point x="484" y="833"/>
      <point x="509" y="795" type="curve" smooth="yes"/>
      <point x="520" y="780"/>
      <point x="534" y="770"/>
      <point x="570" y="770" type="curve" smooth="yes"/>
      <point x="607" y="770"/>
      <point x="633" y="774"/>
    </contour>
  </outline>
</glyph>
<glyph name="Idieresis" format="1">
  <advance width="600"/>
  <unicode hex="00CF"/>
  <outline>
    <contour>
      <point x="329" y="86" type="curve"/>
      <point x="427" y="477" type="line" smooth="yes"/>
      <point x="447" y="558"/>
      <point x="416" y="584"/>
      <point x="294" y="584" type="curve"/>
      <point x="204" y="228" type="line" smooth="yes"/>
      <point x="180" y="130"/>
      <point x="207" y="86"/>
    </contour>
    <contour>
      <point x="154" y="700" type="line"/>
      <point x="148" y="691"/>
      <point x="143" y="679"/>
      <point x="140" y="664" type="curve"/>
      <point x="130" y="626"/>
      <point x="132" y="597"/>
      <point x="147" y="577" type="curve" smooth="yes"/>
      <point x="163" y="555"/>
      <point x="192" y="550"/>
      <point x="265" y="550" type="curve" smooth="yes"/>
      <point x="614" y="550" type="line"/>
      <point x="624" y="570"/>
      <point x="631" y="590"/>
      <point x="636" y="608" type="curve" smooth="yes"/>
      <point x="648" y="659"/>
      <point x="651" y="700"/>
      <point x="597" y="700" type="curve" smooth="yes"/>
    </contour>
    <contour>
      <point x="18" y="150" type="line"/>
      <point x="8" y="134"/>
      <point x="2" y="116"/>
      <point x="-2" y="97" type="curve"/>
      <point x="-10" y="67"/>
      <point x="-14" y="36"/>
      <point x="0" y="18" type="curve" smooth="yes"/>
      <point x="11" y="4"/>
      <point x="22" y="0"/>
      <point x="61" y="0" type="curve" smooth="yes"/>
      <point x="476" y="0" type="line"/>
      <point x="484" y="15"/>
      <point x="492" y="35"/>
      <point x="498" y="58" type="curve" smooth="yes"/>
      <point x="511" y="109"/>
      <point x="513" y="150"/>
      <point x="459" y="150" type="curve" smooth="yes"/>
    </contour>
    <contour>
      <point x="398" y="790" type="curve"/>
      <point x="423" y="888" type="line" smooth="yes"/>
      <point x="434" y="932"/>
      <point x="386" y="937"/>
      <point x="343" y="937" type="curve" smooth="yes"/>
      <point x="325" y="937"/>
      <point x="300" y="936"/>
      <point x="278" y="934" type="curve"/>
      <point x="254" y="837" type="line" smooth="yes"/>
      <point x="243" y="793"/>
      <point x="290" y="786"/>
      <point x="332" y="786" type="curve" smooth="yes"/>
      <point x="351" y="786"/>
      <point x="376" y="786"/>
    </contour>
    <contour>
      <point x="618" y="790" type="curve"/>
      <point x="643" y="888" type="line" smooth="yes"/>
      <point x="654" y="932"/>
      <point x="606" y="937"/>
      <point x="563" y="937" type="curve" smooth="yes"/>
      <point x="545" y="937"/>
      <point x="520" y="936"/>
      <point x="498" y="934" type="curve"/>
      <point x="474" y="837" type="line" smooth="yes"/>
      <point x="463" y="793"/>
      <point x="510" y="786"/>
      <point x="552" y="786" type="curve" smooth="yes"/>
      <point x="571" y="786"/>
      <point x="596" y="786"/>
    </contour>
  </outline>
</glyph>
<glyph name="Eth" format="1">
  <advance width="600"/>
  <unicode hex="00D0"/>
  <outline>
    <contour>
      <point x="35" y="390" type="line"/>
      <point x="34" y="386"/>
      <point x="33" y="382"/>
      <point x="32" y="377" type="curve" smooth="yes"/>
      <point x="13" y="302"/>
      <point x="22" y="288"/>
      <point x="55" y="288" type="curve" smooth="yes"/>
      <point x="321" y="288" type="line"/>
      <point x="326" y="302"/>
      <point x="332" y="318"/>
      <point x="335" y="331" type="curve" smooth="yes"/>
      <point x="346" y="375"/>
      <point x="338" y="390"/>
      <point x="300" y="390" type="curve"/>
    </contour>
    <contour>
      <point x="177" y="40" type="curve"/>
      <point x="291" y="495" type="line" smooth="yes"/>
      <point x="312" y="576"/>
      <point x="268" y="609"/>
      <point x="160" y="609" type="curve"/>
      <point x="31" y="95" type="line" smooth="yes"/>
      <point x="23" y="64"/>
      <point x="88" y="40"/>
    </contour>
    <contour>
      <point x="134" y="700" type="curve"/>
      <point x="125" y="683"/>
      <point x="119" y="666"/>
      <point x="113" y="643" type="curve"/>
      <point x="103" y="600"/>
      <point x="103" y="574"/>
      <point x="113" y="559" type="curve" smooth="yes"/>
      <point x="119" y="552"/>
      <point x="124" y="550"/>
      <point x="134" y="550" type="curve" smooth="yes"/>
      <point x="144" y="550"/>
      <point x="162" y="554"/>
      <point x="201" y="559" type="curve" smooth="yes"/>
      <point x="245" y="565"/>
      <point x="291" y="570"/>
      <point x="357" y="570" type="curve" smooth="yes"/>
      <point x="441" y="570"/>
      <point x="472" y="543"/>
      <point x="513" y="504" type="curve"/>
      <point x="624" y="593"/>
      <point x="553" y="720"/>
      <point x="408" y="720" type="curve" smooth="yes"/>
      <point x="318" y="720"/>
      <point x="222" y="714"/>
    </contour>
    <contour>
      <point x="591" y="403" type="curve" smooth="yes"/>
      <point x="598" y="428" type="line" smooth="yes"/>
      <point x="646" y="620"/>
      <point x="567" y="720"/>
      <point x="408" y="720" type="curve"/>
      <point x="379" y="720"/>
      <point x="356" y="695"/>
      <point x="346" y="652" type="curve"/>
      <point x="468" y="604"/>
      <point x="473" y="563"/>
      <point x="433" y="403" type="curve" smooth="yes"/>
      <point x="431" y="393" type="line" smooth="yes"/>
      <point x="391" y="234"/>
      <point x="314" y="145"/>
      <point x="215" y="145" type="curve" smooth="yes"/>
      <point x="145" y="145"/>
      <point x="127" y="148"/>
      <point x="79" y="173" type="curve"/>
      <point x="55" y="157"/>
      <point x="41" y="135"/>
      <point x="31" y="95" type="curve" smooth="yes"/>
      <point x="20" y="50"/>
      <point x="105" y="-10"/>
      <point x="178" y="-10" type="curve" smooth="yes"/>
      <point x="182" y="-10" type="line" smooth="yes"/>
      <point x="372" y="-10"/>
      <point x="527" y="147"/>
    </contour>
  </outline>
</glyph>
<glyph name="Ntilde" format="1">
  <advance width="600"/>
  <unicode hex="00D1"/>
  <outline>
    <contour>
      <point x="146" y="-4" type="curve"/>
      <point x="173" y="101" type="line"/>
      <point x="258" y="443"/>
      <point x="283" y="671"/>
      <point x="267" y="693" type="curve" smooth="yes"/>
      <point x="261" y="701"/>
      <point x="248" y="710"/>
      <point x="240" y="710" type="curve"/>
      <point x="215" y="710"/>
      <point x="198" y="708"/>
      <point x="170" y="701" type="curve"/>
      <point x="170" y="665"/>
      <point x="165" y="630"/>
      <point x="155" y="590" type="curve" smooth="yes"/>
      <point x="22" y="57" type="line"/>
      <point x="9" y="8"/>
      <point x="65" y="-9"/>
      <point x="108" y="-9" type="curve"/>
      <point x="124" y="-9"/>
      <point x="133" y="-8"/>
    </contour>
    <contour>
      <point x="465" y="-10" type="line"/>
      <point x="630" y="651" type="line"/>
      <point x="640" y="691"/>
      <point x="594" y="710"/>
      <point x="530" y="710" type="curve"/>
      <point x="505" y="710" type="line"/>
      <point x="445" y="470" type="line"/>
      <point x="384" y="225"/>
      <point x="357" y="51"/>
      <point x="380" y="20" type="curve" smooth="yes"/>
      <point x="396" y="-1"/>
      <point x="422" y="-10"/>
      <point x="440" y="-10" type="curve"/>
    </contour>
    <contour>
      <point x="240" y="710" type="line"/>
      <point x="260" y="683"/>
      <point x="256" y="627"/>
      <point x="253" y="579" type="curve" smooth="yes"/>
      <point x="235" y="327"/>
      <point x="275" y="104"/>
      <point x="327" y="35" type="curve"/>
      <point x="349" y="6"/>
      <point x="391" y="-10"/>
      <point x="440" y="-10" type="curve" smooth="yes"/>
      <point x="444" y="-10"/>
      <point x="445" y="-10"/>
      <point x="449" y="-10" type="curve"/>
      <point x="454" y="-10"/>
      <point x="463" y="19"/>
      <point x="476" y="71" type="curve"/>
      <point x="353" y="203"/>
      <point x="354" y="436"/>
      <point x="356" y="667" type="curve"/>
      <point x="356" y="695"/>
      <point x="298" y="710"/>
      <point x="242" y="710" type="curve"/>
    </contour>
    <contour>
      <point x="554" y="903" type="curve" smooth="yes"/>
      <point x="484" y="903"/>
      <point x="437" y="975"/>
      <point x="366" y="975" type="curve" smooth="yes"/>
      <point x="323" y="975"/>
      <point x="293" y="952"/>
      <point x="270" y="916" type="curve" smooth="yes"/>
      <point x="260" y="902"/>
      <point x="246" y="875"/>
      <point x="237" y="837" type="curve" smooth="yes"/>
      <point x="233" y="822"/>
      <point x="230" y="800"/>
      <point x="231" y="785" type="curve"/>
      <point x="235" y="785" type="line"/>
      <point x="278" y="820"/>
      <point x="305" y="833"/>
      <point x="345" y="833" type="curve" smooth="yes"/>
      <point x="415" y="833"/>
      <point x="462" y="761"/>
      <point x="533" y="761" type="curve" smooth="yes"/>
      <point x="576" y="761"/>
      <point x="607" y="784"/>
      <point x="630" y="820" type="curve" smooth="yes"/>
      <point x="639" y="834"/>
      <point x="653" y="861"/>
      <point x="662" y="899" type="curve" smooth="yes"/>
      <point x="666" y="914"/>
      <point x="670" y="936"/>
      <point x="668" y="951" type="curve"/>
      <point x="664" y="951" type="line"/>
      <point x="622" y="916"/>
      <point x="594" y="903"/>
    </contour>
  </outline>
</glyph>
<glyph name="Ograve" format="1">
  <advance width="600"/>
  <unicode hex="00D2"/>
  <outline>
    <contour>
      <point x="409" y="720" type="curve" smooth="yes"/>
      <point x="263" y="720"/>
      <point x="130" y="588"/>
      <point x="68" y="342" type="curve" smooth="yes"/>
      <point x="64" y="326" type="line" smooth="yes"/>
      <point x="6" y="93"/>
      <point x="66" y="-20"/>
      <point x="231" y="-20" type="curve" smooth="yes"/>
      <point x="274" y="-20"/>
      <point x="314" y="28"/>
      <point x="332" y="98" type="curve"/>
      <point x="205" y="98"/>
      <point x="172" y="158"/>
      <point x="207" y="299" type="curve" smooth="yes"/>
      <point x="211" y="312" type="line" smooth="yes"/>
      <point x="253" y="480"/>
      <point x="311" y="571"/>
      <point x="383" y="571" type="curve" smooth="yes"/>
      <point x="424" y="571"/>
      <point x="450" y="556"/>
      <point x="480" y="520" type="curve"/>
      <point x="553" y="575"/>
      <point x="506" y="720"/>
    </contour>
    <contour>
      <point x="231" y="-20" type="curve" smooth="yes"/>
      <point x="377" y="-20"/>
      <point x="510" y="112"/>
      <point x="572" y="358" type="curve" smooth="yes"/>
      <point x="576" y="374" type="line" smooth="yes"/>
      <point x="634" y="607"/>
      <point x="574" y="720"/>
      <point x="409" y="720" type="curve" smooth="yes"/>
      <point x="366" y="720"/>
      <point x="326" y="672"/>
      <point x="308" y="602" type="curve"/>
      <point x="435" y="602"/>
      <point x="468" y="542"/>
      <point x="433" y="401" type="curve" smooth="yes"/>
      <point x="430" y="388" type="line" smooth="yes"/>
      <point x="387" y="220"/>
      <point x="329" y="129"/>
      <point x="257" y="129" type="curve" smooth="yes"/>
      <point x="216" y="129"/>
      <point x="186" y="141"/>
      <point x="160" y="180" type="curve"/>
      <point x="81" y="120"/>
      <point x="133" y="-20"/>
    </contour>
    <contour>
      <point x="507" y="771" type="curve"/>
      <point x="459" y="823"/>
      <point x="431" y="867"/>
      <point x="427" y="934" type="curve"/>
      <point x="373" y="934"/>
      <point x="341" y="929"/>
      <point x="297" y="915" type="curve" smooth="yes"/>
      <point x="281" y="909"/>
      <point x="272" y="894"/>
      <point x="274" y="879" type="curve" smooth="yes"/>
      <point x="284" y="822"/>
      <point x="298" y="802"/>
      <point x="346" y="772" type="curve" smooth="yes"/>
      <point x="360" y="764"/>
      <point x="377" y="758"/>
      <point x="414" y="758" type="curve" smooth="yes"/>
      <point x="447" y="758"/>
      <point x="469" y="761"/>
    </contour>
  </outline>
</glyph>
